<svg height="67.255661mm" viewBox="0 0 99.708162 67.255653" width="99.708168mm" xmlns="http://www.w3.org/2000/svg"><g fill="#fff" stroke="#aaa" stroke-width=".1" transform="translate(-52.331505 -84.504496)"><path d="m66.109092 93.06285-1.860437.804513.653667 1.533602 1.860436-1.181627z"/><path d="m62.487496 94.815997.564224 1.558327 1.800135-.9135-.617958-1.504593z"/><path d="m61.385922 95.326484.752295 1.155312.859766-.0806-.564221-1.531459z"/><path d="m59.854461 96.07878 1.397121-.752296.832898 1.235914-1.719532.564224z"/><path d="m56.657204 97.234093.725429 1.074706 1.235914-.725427-.644824-.994105z"/><path d="m59.397711 96.159385.644826.779163-1.235916.644824-.698561-.994105z"/><path d="m56.925883 98.255065-.403016-.994106-1.800137.456753.134339.698558z"/><path d="m62.541233 96.535532.45675 1.074709 2.579299-1.558327.24181-1.209048z"/><path d="m59.881329 98.147594 1.612064-.188074.779164-.376148.134337-.994105-.832898.161208-2.095683.644824z"/><path d="m57.919986 98.308799.188074.725429 1.558327-.725429-.376148-.671692z"/><path d="m57.678178 98.255065-2.364359.24181-.188074.456751 1.612064.161205 1.04784-.188074z"/><path d="m53.191271 98.658081-.510487.483618.107471.241808 2.122548-.214939-.161205-.698561z"/><path d="m57.19456 100.40448-.322414-1.15531-1.800135-.05374-.0806 1.20905z"/><path d="m53.0838 100.13581 1.746401.37614.134339-1.101574-1.853872-.05373z"/><path d="m52.573315 98.792418 2.203151-.376148-.295544-1.50459-2.149417 1.04784z"/><path d="m56.442265 97.099754-.456753-.752295-1.397119.510484.107471.779164z"/><path d="m58.376739 96.428061-.564221-.859766-1.531461.752295.322413.859766z"/><path d="m60.57989 95.460824-.564221-.8329-2.015077.859768.429881.886632z"/><path d="m62.621836 94.708529-.510487-.940372-1.934475.779164.59109.994106z"/><path d="m64.368237 93.633821-.510488-.859767-1.638929.752295.429884 1.209046z"/><path d="m66.007166 92.988994-.886634-.859766-1.020972.617958.429882.886635z"/><path d="m57.328899 100.37761 2.471828-.510484-.698561-1.074708-2.041946.483621z"/><path d="m61.439656 99.24917-.591089-1.074708-1.101575.134337-.483618.37615.644824 1.128443z"/><path d="m63.105454 98.523741-.429884-1.04784-1.612061.752295.429884.940372z"/><path d="m65.335474 97.36843-.483619-.698561-2.015077 1.020974.403016.806032z"/><path d="m66.920669 96.374324-.725429-.967237-1.155311 1.155311.322413.779164z"/><path d="m68.129715 95.648898-.456751-1.746401-1.665798.940369.967237 1.504593z"/><path d="m70.064189 94.735395-.322411-1.343385-1.88074.376147.349279 1.907609z"/><path d="m71.273237 95.783237 1.423988-.671695-.241808-.967237-.483619-.886632-1.692667.21494z"/><path d="m72.240474 97.744578 2.310622.429884.0806-1.746401-2.122548-.24181z"/><path d="m72.428548 95.326484-.188074 1.477725-1.04784-.806032z"/><path d="m73.745064 96.025045.429885-1.719532-1.020974-.0806-.510485 1.746401z"/><path d="m77.452808 97.905786-.349279-1.370254-2.33749.295545.134336 1.18218z"/><path d="m79.709696 97.072885.0806-1.800135-2.606167.644824.214942 1.423988z"/><path d="m79.870901 97.260959-1.719532.161208.05373 1.665795.886635.161208.752295-.403016z"/><path d="m76.351231 99.759658-.214939-1.719535-1.88074.188073.134339 1.853874z"/><path d="m78.366311 99.59845-.483618-1.719533-1.692667.214942.403016 1.853872z"/><path d="m74.174949 98.281933-.940369.134337.134337 1.6658.994106.16121z"/><path d="m73.046504 98.013257h-1.101575l.295545 1.934474h1.020972z"/><path d="m70.950824 99.383507 1.155311.403016-.188074-1.558327-.725427.107471z"/><path d="m77.291603 95.111542-.188074 1.343388-1.63893-.05374.322411-1.397119z"/><path d="m74.255552 94.681661 1.450855.376147-.483618 1.316516h-.671693l-.752295-.214939z"/><path d="m70.147607 101.37891 1.371785.65607.477142-2.117316-1.163034-.506963z"/><path d="m73.815639 102.03498-.298214-1.90856-1.401606-.208756-.4175 1.878746z"/><path d="m76.469746 101.61748-.44732-1.61035-2.266429.14911.17893 1.64017z"/><path d="m78.85546 100.99123-.417502-1.282314-2.206784.328034.447321 1.46125z"/><path d="m81.002601 99.828201-.566608-1.133214-1.878748.86482.357857 1.341963z"/><path d="m79.720279 95.116419.328036-2.415535-2.11732-.05964-.119285 2.564641z"/><path d="m80.078136 92.61142.119285-2.355892-1.93839.298215.05964 2.027853z"/><path d="m79.869385 88.018923-1.908569.626248.238572 1.819105 1.878748-.328033z"/><path d="m77.63278 95.026952.119285-1.580533-1.520891-.149106.119285 1.461249z"/><path d="m76.499567 91.060705h1.67l-.357857 2.206784-1.491072-.05964z"/><path d="m76.380283 88.317135-.835002 1.043749 1.431428 1.67.954286-.05964.208751-.685893-.566608-.954286z"/><path d="m76.231174 94.042848-.238572.924462-1.93839-.536784.62625-1.192858z"/><path d="m74.740104 92.521954 1.461249-.506963.119285 1.252498-.656069.387681-.685893-.268394z"/><path d="m76.469746 90.643206-.17893 1.341964-1.431427.208748-.05964-1.222676z"/><path d="m73.249034 91.269456 1.341964-.357857.178927 1.312141-1.163034.208751z"/><path d="m73.242271 92.894993.507979 1.374534.388456-.08964.567743-1.434296-.209169-.358574z"/><path d="m69.208318 92.446775 1.494057-.507978.776909.806791-1.583701.866553z"/><path d="m72.345837 91.400936.74703.418338.56774.866552-1.822749.209167-.597622-.776909z"/><path d="m72.764175 94.329288.83667-.119525-.478096-1.404414-1.225127.209169z"/><path d="m72.375719 91.191769.537861.388454.627504-.627505 1.255009-.358571-1.045843-.687268z"/><path d="m74.275639 86.665632-.437698.738616 1.75079 1.586654.793327-.902751z"/><path d="m75.096321 84.805418-.875395 1.696077 1.477229 1.121601 1.121601-1.723435z"/><path d="m78.762041 87.705164-1.69608-1.641366-1.148956 1.531943 1.778146 1.696079.27356-.84804z"/><path d="m73.810583 86.884482.08207 1.203669-2.133775.109424-.410342-1.094245z"/><path d="m72.606914 84.641281-.218847 2.10642h1.696077l.711261-1.696077z"/><path d="m71.047616 87.021261 1.231027-.08207.300916-2.407335-1.805503-.02736z"/><path d="m68.093157 85.817592 2.54412-1.285734.410339 2.516761-1.996995.820682z"/><path d="m69.789237 89.756873 1.422516-.246205v-2.37998l-1.449874.574476z"/><path d="m71.348535 87.924014.1192 2.553476 1.043591.284615 1.264959-.980343-1.011967-1.486326-1.043591-.06325z"/><path d="m75.009294 90.818445.9233-.178702.327623-.387192-.774382-.893516-.804164 1.042437z"/><path d="m74.29448 88.048543-1.102006.476544.476544 1.161571.9233.68503.953085-1.221139z"/><path d="m70.422573 91.23542.625461.863733 1.310492-.77438.02978-.565894-.953084-.238273z"/><path d="m71.077818 89.567521.357408.893519-.923301.595678-.744598-1.250923z"/><path d="m65.180608 87.691136 1.012653 1.429628 1.012653-.714814-1.191358-1.489194z"/><path d="m67.920725 85.904103-1.816817.833951.833949 1.280705 1.459412-.804164z"/><path d="m69.409922 89.716442.387189-1.250923h-1.727465l.446757 1.161571z"/><path d="m70.184302 90.669527-.595678-1.042437-1.399844.387191-.148918 1.072221.804164.357405.804167.05957z"/><path d="m69.201433 88.286816-.625462-1.102005-1.548762.863732.804167.476544z"/><path d="m66.252829 89.120764.685028.446757 1.072221-.714811-.536109-.44676z"/><path d="m64.376444 90.520606 2.263574-.02978.327623 1.37006-2.472063.44676z"/><path d="m65.12104 87.988975-.506326 2.382713 1.876386.05957.178702-1.012653-.625462-.268054z"/><path d="m68.129214 88.912278.357405.982866-.953082.238274-.714814-.387192z"/><path d="m69.171649 92.307642.476544 1.131787-2.5912.476541.44676-1.846602z"/><path d="m67.235698 92.367207.714812-1.250923.05957-1.042435-1.250924.268055z"/><path d="m65.418878 92.307642.804167.774379.565894 1.042438.416975-1.727468-.297839-.446757z"/><path d="m67.652671 91.860882 1.518978.44676 1.429628-.416976-.178704-.9233-.238271-.327623-.44676.833948-.893516.08935-.77438-.357407z"/><path d="m81.144775 99.81318-1.548762.95308 1.459409 2.11466 1.250924-1.13179z"/><path d="m84.182731 102.49373-.595677 2.02531-2.263577-.98287.536112-1.37006 1.340273-.0596z"/><path d="m86.684578 102.04697-.119136 2.26358-2.591197.41697.357407-2.62098z"/><path d="m86.174647 107.02371 1.074674-2.80609-2.000089.41793-.746299 1.82098z"/><path d="m85.279085 108.63572.865709-1.04482-.567187-.77615-1.014971-.26867-.567187.83586z"/><path d="m81.786397 103.94895.02985 2.23891 1.31349.53733.567187-2.11949z"/><path d="m84.920861 104.6057-.7463 2.44787-1.283639-.17912.597043-.50748.282117-1.54279z"/><path d="m80.626197 108.23897 1.451919 1.51241 1.45192-2.08713-.846952-.63522z"/><path d="m83.762758 110.29561 1.038799-.73327.305531-.94714-1.222119-1.16101-1.191564 1.68041z"/><path d="m80.371382 111.2733.763823.9777 2.535894-1.58876-.794377-1.25267z"/><path d="m82.44898 106.75147-1.802622 1.28322-1.099907-1.00825 1.86373-1.43598z"/><path d="m80.67691 108.43188 1.191566 1.5582-1.86373 1.13046-1.313778-1.58875z"/><path d="m80.371382 102.29074-1.038802.79437-1.222116-1.6193 1.34433-.61106z"/><path d="m81.043545 103.57396.794377.30553-.152765 1.49709-1.099904-.48884z"/><path d="m78.568757 103.87949.366636.5194 1.497094-.12221.794378-.91659-.672166-.97769z"/><path d="m81.440735 105.34603-2.138706 1.52765-1.008248-1.4971 1.25267-.97769z"/><path d="m79.057604 103.32954-1.16101-1.86373-1.924836.5194.733269 2.62755z"/><path d="m76.980003 105.80433 1.894284-.85549-.458295-1.0999-1.86373 1.00824z"/><path d="m78.293781 109.50123 2.352577-1.19156-1.099907-1.09991-1.802622 1.34433z"/><path d="m75.880098 101.89355.213871 1.80262-1.161013.4583-.733269-2.10816z"/><path d="m75.391252 106.5987 1.46654-.5805-.458293-.9777-.06111-1.34433-1.374881.67217-.09166.97769z"/><path d="m78.202121 105.43769 1.130459 1.83318-2.352577 1.5582-1.374881-2.04705z"/><path d="m79.974192 111.30386-1.46654-1.83318-1.95539 1.22212 1.283224 2.32202z"/><path d="m81.043545 112.28155-.947139-.88604-1.283224 1.06936.580504.91659z"/><path d="m78.143831 109.6076-.48787-1.03672-1.646569.94525.426887 1.1282z"/><path d="m73.996921 108.81481 1.006235-.64033 1.006236-.33541.792793 1.03672-1.128205.7928-1.280663.12196z"/><path d="m73.112652 106.25348 1.555094-.48787v-1.92099l-1.920997.42688z"/><path d="m74.027412 102.0151.609841 1.70755-1.82952.51836-.487873-2.19542z"/><path d="m73.996921 108.72334 1.860011-1.00624-.975744-1.98198-1.677059.57935z"/><path d="m76.161853 114.02894 1.951488-.60984-1.433124-2.07345-1.555091.70131z"/><path d="m75.887425 109.72957-1.524601.36591.609841 1.8905 1.707552-.64033z"/><path d="m76.314311 114.30337 1.646569-.64033.548857.94525-.121968.82328-1.37214.36591-.609841-.48787z"/><path d="m76.253328 115.09616-2.164932.33541-.487871-1.95148 1.920994-.48788z"/><path d="m72.655272 111.68106 1.82952-.7623-.579348-2.07346-2.164932.82329z"/><path d="m75.521519 112.96172-1.097711-1.92099-1.646568.70131.792792 1.67706z"/><path d="m73.81397 108.78432-.792792-2.07346-1.585585.64034.396396 2.2564z"/><path d="m72.685765 104.97282-1.402633.061.09148 2.19543 1.646569-.48787z"/><path d="m71.283132 104.69839 1.402633.15246-.396396-2.77477-.701315-.061z"/><path d="m71.283132 106.80234-2.31739-.3964.579348-2.71378 1.646568.21344z"/><path d="m70.063454 101.49673 1.463616.54886-.304921 1.79903-1.707552-.24394z"/><path d="m70.215914 108.99776-.213444 2.10395-1.433124.36591-.640331-2.2869z"/><path d="m71.679529 108.93678.243937 1.64657-1.250172.57934-.548857-.70131.274429-1.43312z"/><path d="m70.307389 106.77185.09148 2.22591-2.469851.12197.762299-2.40887z"/><path d="m71.618545 108.8453-.426887-2.04296h-.762302l.09148 2.10395z"/><path d="m71.98445 110.70531.975744 1.58559-1.341649.82328-.91476-1.86001z"/><path d="m69.240171 114.02894 2.103945-.85377-.853776-2.07346-1.981978.51836z"/><path d="m72.167402 114.97419 1.555091-.3659-.701315-2.19542-1.494108.91476z"/><path d="m69.54509 115.58403 2.469851-.70131-.579348-1.61608-2.195422.91476z"/><path d="m70.063454 117.10863 2.500344-.51836-.518364-1.61608-2.469854.82329z"/><path d="m72.44183 118.60274 1.341647-.0305-.731809-1.79903-.94525.0915z"/><path d="m70.429356 118.57225 1.677062-.45738-.213445-1.18919-1.860013.42689z"/><path d="m72.411337 115.03518 1.433123-.18295.213445 1.4941-.243935 1.34165-.609841-1.06722h-.518364z"/><path d="m76.253328 115.30961.121967 1.4941-.670822-.0305v1.37214l-1.646568.24394-.182951-.67083.365903-1.18918-.152461-1.03673z"/><path d="m78.143831 117.13913.365906-.3964-.213445-.91476-1.280663.0305-.670824-.45738.182951 1.40263 1.494107.30492"/><path d="m80.217289 115.24862 1.433123.73181.640332-2.10395-1.34165-.67082z"/><path d="m83.693374 112.35188-1.036728-1.03673-1.585581 1.58559 1.372139 1.1282z"/><path d="m80.278272 114.73026-.579347 2.43936h-1.189188l-.182952-1.55509.365903-1.06722.884267-.36591z"/><path d="m81.010078 112.99221-.670822 1.61608-1.036727-1.18919 1.494107-.88427z"/><path d="m78.723179 112.56533 1.03673 1.55509-1.219682.39639-.609838-1.55509z"/><path d="m83.998296 112.44336.853776-.21345 1.280662-1.5246-1.128204-.85377-1.738043 1.25017z"/><path d="m87.657335 108.75383-.731809 1.67706-.640331.15246-1.189188-.7623.823283-1.61608z"/><path d="m87.90127 108.4794.45738-2.07346-1.799026-.21344-.487874 1.79903z"/><path d="m81.284507 117.65749.548857-1.58558-1.524601-.60984-.548854 2.16493z"/><path d="m83.698486 116.40472.48964-1.04457-1.827988-1.20778-.48964 2.25235z"/><path d="m85.526473 114.28295-1.63213-1.59949-1.305705 1.40363 1.762702 1.27306z"/><path d="m86.930106 113.10781-1.273061-1.5342-1.305705 1.20777 1.207778 1.46892z"/><path d="m88.529597 113.69538-.261141-1.30571-2.154415 1.43628.2285.55492.750779-.39171z"/><path d="m88.301098 111.60625-1.762702-.94664-.783423.84871 1.305705 1.50156 1.305706-.71814z"/><path d="m88.627525 113.49952 1.534202.0326.06529-1.66477-1.762702-.26114z"/><path d="m92.022359 113.79331-.06529-1.69742-1.566846-.26114-.06529 1.66477z"/><path d="m91.826501 109.68033-1.795343.0979-.2285 1.86063 1.827988.26114z"/><path d="m89.44359 111.57361.424354-1.46892-2.284984-.457-.718137 1.17514 1.566844.65285z"/><path d="m91.957073 109.58241.293783-1.95856-2.154415.0979-.06528 1.86063z"/><path d="m87.71353 109.54976 2.12177.42436.2285-1.82799-1.762702-.16321z"/><path d="m90.488154 107.55856.130569-1.89327-1.436274.0326-.84871.81607-.06528 1.33835z"/><path d="m92.609925 107.52592v-2.05649l-1.958557.19586-.03265 1.5342z"/><path d="m92.675211 105.24094.09793-2.12178-2.905194.29379.522283 1.9912z"/><path d="m86.766893 106.057 1.534205.29379 1.077206-.84871.913995-.0327-.750782-1.7627-2.154414.48964z"/><path d="m91.826501 103.15181-.456996-1.95856-1.207778-.2285.163214 2.38291z"/><path d="m88.235812 101.68289.587568 2.02384 1.436275-.32642-.293783-1.99121z"/><path d="m86.734251 104.22902 1.958557-.32643-.424352-2.02384-1.436277.29378z"/><path d="m93.360706 103.15181-.359068-2.08913-1.534205.0653.456996 1.9912z"/><path d="m92.348784 113.79331-.163214 2.38291-1.63213.29378v-2.80727z"/><path d="m91.271578 116.43736.587568 1.69742-2.284984.13057-.979281-1.27307z"/><path d="m93.91563 116.33943.326427 1.27306-2.252342.457-.522282-1.66477z"/><path d="m90.357582 116.37207-.09793-1.7627-1.370989.35907-1.207778.81607.228497.97928 1.273064.0653z"/><path d="m86.375183 114.34823.750779 1.56685 1.664776-.84871-.48964-1.27306z"/><path d="m90.488154 114.57673-.06529-1.07721-2.023843.2285.456997 1.20778z"/><path d="m86.016114 114.05445.783423 1.50156-1.10985.97928-1.762702-.42436.293783-.62021z"/><path d="m81.576715 118.33063 2.089129-.0326-.261141-1.89327-1.566847.0979z"/><path d="m85.330618 118.26535.359069-1.79535-1.795344-.26114-.293785.78342.130572 1.17514z"/><path d="m87.321819 117.90628.489638-1.73006-1.370989-.2285-.946636 2.05648z"/><path d="m93.328062 119.96276-.261141-2.02384-2.382912.29378-.228496 1.63213z"/><path d="m94.829625 117.54721.881351 1.66477-2.121773.78343-.39171-2.08913z"/><path d="m95.906831 119.34255.946637 1.69742-2.252342.94664-.750782-2.05649z"/><path d="m91.761218 121.95396 2.513481-.0979-.261141-1.79535-2.415553.26114z"/><path d="m89.313021 121.62754 2.154412.32642.228499-1.7627-2.023843-.35907z"/><path d="m86.962751 120.58297 1.925915 1.10985.62021-1.46891-1.33835-.97929z"/><path d="m85.591759 118.29799.881351 2.12177 1.664774-1.3057-.424354-1.20778z"/><path d="m88.562239 117.12285.979278 1.33835-1.240419.84871-.718138-1.7627z"/><path d="m90.324941 119.83219.163213-1.24042-.881351-.13057-1.207778.914.946637.48963z"/><path d="m96.396472 121.23583.816065 1.5342-2.154415.55492-.554924-1.37099z"/><path d="m92.152928 122.24775.424355 1.69741 2.382912-.48963-.522283-1.59949z"/><path d="m89.900586 123.5861 2.448198.22849-.293783-1.69741-2.023843-.26114z"/><path d="m88.758094 121.69282-.62021 1.66478 1.632133.32642.163213-1.79534z"/><path d="m87.485033 121.17054-1.011923 1.33835 1.599488.91399.62021-1.73006z"/><path d="m86.146683 120.02805 1.305706 1.20778-1.109848 1.33834-2.121773-1.82798z"/><path d="m83.698486 118.33063.554926 2.51349 1.860629-.94664-.620209-1.59949z"/><path d="m85.167405 121.72547 1.142492.91399-1.077206 1.40363-1.501561-1.10985z"/><path d="m87.974671 123.45553-.750779 1.73005-1.860632-1.10984 1.077208-1.40364z"/><path d="m83.894343 120.41976 1.207776 1.24042-1.403633 1.24042-1.403633-2.2197z"/><path d="m83.535272 118.42856.489641 1.95856-1.73006.2285-.718138-2.2197z"/><path d="m90.586082 123.78195.03264 1.82799-3.36219-.62021.84871-1.59949z"/><path d="m92.544639 123.91252.195858 1.82799-2.023843-.19586-.06529-1.73006z"/><path d="m94.633768 123.5861.783423 1.69741-.718138.39171-1.827987-.0653-.228497-1.63213z"/><path d="m96.461755 123.16174.03265 2.08913-.946637-.0326-.84871-1.69742z"/><path d="m98.257101 123.48817-.359068 1.73006-1.370992-.0979.09793-2.02385z"/><path d="m99.693376 121.79075-.424355 1.7627-2.480839-.52228.293783-1.24042 1.403633-.29378z"/><path d="m100.05244 123.61874-.130565 1.86063-1.827987-.39171.195855-1.66478z"/><path d="m98.289743 119.99541.163213 1.56684-1.566846.16322-.293783-1.69742z"/><path d="m81.420809 117.74585.393891 1.64718-2.005261.57293.03581-2.36335z"/><path d="m79.55878 118.89171.21485-1.68299-1.682988.0358-.358082 1.89784z"/><path d="m80.418179 121.36248 1.718797-.8594-.358082-1.07424-1.969455.60874z"/><path d="m81.420809 122.97385 1.503948-1.03843-.716167-1.36072-1.718794.93102z"/><path d="m83.963196 123.40355-.966822-1.3249-1.503947.93101 1.324906 1.39652z"/><path d="m84.53613 125.48043 1.002631-1.25329-1.396524-.8952-1.253289 1.14586z"/><path d="m87.364981 125.26558-.572932 1.36072-2.076878-1.14587.859398-1.03844z"/><path d="m85.681993 128.02282.823589-1.50395-2.076878-1.07425-.859399 1.43233z"/><path d="m81.564044 125.58786 1.862029 1.43233.895207-1.68299-1.718796-1.14586z"/><path d="m81.098536 122.7232-1.432332 1.11005 1.754605 1.68299 1.110057-1.43233z"/><path d="m78.520341 121.61314 1.64718-.64455 1.00263 1.68299-1.647179 1.03844z"/><path d="m79.55878 118.96333.501317 1.96945-1.503947.60874-.393891-2.36334z"/><path d="m75.906337 119.7153 1.862029-.4297.21485-2.14849-2.184302-.17904z"/><path d="m76.443463 122.04284 1.897837-.8594-.214849-2.00526-2.220114.57293z"/><path d="m77.267052 123.76164 1.754606-.64455-.716166-1.7188-1.718797.71617z"/><path d="m78.914232 125.73109 1.00263-1.2891-.895204-1.28909-1.289098 1.07424z"/><path d="m80.704646 127.27084 1.00263-1.43233-1.647179-1.36071-1.074248 1.2891z"/><path d="m83.426073 127.05599-.680357 1.14587-1.718797-.78778.82359-1.43233z"/><path d="m84.75098 127.66474-.859399 1.39652-1.038442-.82359.716166-1.21748z"/><path d="m86.505582 128.23767-.501314 1.53975-1.897837-.68035.644549-1.39653z"/><path d="m75.834722 119.96596-2.076881.32227-.250658-1.71879 2.041072-.39389z"/><path d="m74.044308 121.97122 2.184305-.57293-.393891-1.46814-2.363345.39389z"/><path d="m74.724666 123.6184 2.04107-.96682-.60874-1.11006-2.005264.4297z"/><path d="m72.898443 124.11972 1.647182-.53712-.644549-1.61138-1.754606.75198z"/><path d="m73.292333 119.93015-2.005261.82359.751972 1.96946 2.005264-.71617z"/><path d="m72.074853 118.13974.179041 2.1843-1.002631.4297-.787781-2.07688z"/><path d="m73.399759 118.64105.358082 1.68299-1.324903-.17904-.21485-1.2891z"/><path d="m75.297597 125.26558 1.897838-1.28909-.680358-1.14587-1.754603.93102z"/><path d="m78.586476 125.47595-1.2651-1.40187-1.914747 1.23091 1.572829 1.53864z"/><path d="m73.799608 126.02302 1.401869-.68384-.512879-1.6754-1.675403.71803z"/><path d="m76.432387 126.50171-1.538637 1.19671-1.094142-1.64121 1.572829-.58126z"/><path d="m76.603345 129.27125 1.43606-1.2651-1.333484-1.33348-1.572829 1.02575z"/><path d="m81.595366 127.83519-.444495 1.74379-2.051516-1.02576.923182-1.70959z"/><path d="m78.723245 125.64691 1.2651 1.33348-1.230908 1.57283-1.641213-1.60702z"/><path d="m83.30496 128.72418-.547071 1.33349-1.401868-.54707.376113-1.67541z"/><path d="m85.04875 129.4764-.478687 1.26511-1.538637-.58127.376111-1.2651z"/><path d="m87.100263 130.12605-.170958 1.40187-2.154092-.82061.444494-1.16252z"/><path d="m84.501679 130.87827-1.777979-.78641-.410305 1.50444 1.914747.71803z"/><path d="m86.177081 132.89559.410303-1.40186-1.846363-.68384-.341919 1.47025z"/><path d="m82.108245 131.56211.512878-1.57283-1.60702-.44449-.478687 1.23091z"/><path d="m78.654861 128.72418-.547071 1.6754 2.290857.58127.341921-1.53864z"/><path d="m78.039405 128.10873.547071.61545-.581263 1.53864-1.230908-.8548z"/><path d="m87.388844 125.12431 1.813988.27671-.368948 1.47579-1.906225-.39969z"/><path d="m90.647873 125.67774-.153729 1.84473-1.629513-.43044.368946-1.59877z"/><path d="m91.908443 127.58396.553418-1.81399-1.752497-.0922-.122981 1.87548z"/><path d="m94.552562 127.6147.522673-1.93696-2.613374.0922-.368945 1.84473z"/><path d="m96.243569 127.92216 1.199076-2.52114-1.87548-.15372-.430438.64565-.430437 1.66027z"/><path d="m98.580232 127.76843.707149-2.30591-1.691008-.21522-.860875 1.99846z"/><path d="m88.034498 128.72155.737894-1.7525-2.244426-.49193-.737894 1.47579z"/><path d="m90.155943 129.27497.43044-1.72175-1.783244-.36895-.645657 1.53728z"/><path d="m92.12366 129.27497v-1.72175l-1.414296.0307-.461184 1.66026z"/><path d="m94.183613 129.45944.461185-1.81399-2.305918.0615-.09224 1.62952z"/><path d="m96.120586 129.3672.153728-1.44504-1.445043-.24596-.461182 1.691z"/><path d="m98.340352 129.44516.118222-1.62553-1.89153-.532-.325107 1.92109z"/><path d="m98.399463 131.45491v-2.0393l-2.216637-.0591-.29555 2.3053z"/><path d="m93.907079 131.18892 1.861976.20688.354661-2.09841-1.861974.17733z"/><path d="m92.311102 131.12981 1.389091.0591.502439-1.68465-1.684645-.0887z"/><path d="m90.271794 130.98203 1.861976.29555.354661-1.92108-1.89153-.0591z"/><path d="m88.055157 130.39093 2.216637.62065.265996-1.7733-1.89153-.35467z"/><path d="m86.074962 129.74071 1.802863.59111.768435-1.53687-2.127972-.44333z"/><path d="m89.287967 132.13502.369157-1.29205-2.543077-.65627-.06153 1.31255z"/><path d="m94.283351 133.31402.338346-2.03009-1.268804-.0634-.359494 1.75518z"/><path d="m91.365097 132.86994.148029-1.64945-1.819825-.3155-.269081 1.1874z"/><path d="m93.195829 131.28861-.164878 1.79306-1.607571-.16488.144269-1.6694z"/><path d="m88.867751 133.5763.391588-1.40147-2.452576-.68012-.4122 1.40147z"/><path d="m91.876796 133.12289-.824397 1.38086-1.99916-.94805.4122-1.31904z"/><path d="m93.937786 135.14266.2061-1.85489-2.20526-.24732-.329758 1.54574z"/><path d="m96.617074 135.76096.329758-1.58697-2.41136-.65951-.535855 1.71062z"/><path d="m97.029271 134.02972.556466-2.5144-2.905995-.18549-.267928 1.97855z"/><path d="m99.193308 133.7618.350369-2.22588-1.69001.0412-.432808 1.97856z"/><path d="m98.595622 136.31742.824397-2.26709-2.081601-.45341-.474028 2.16404z"/><path d="m108.7563 137.43036-.51525 1.48391-2.22587.0618.10305-1.69001z"/><path d="m105.43811 140.97526 1.4633.4122 1.21598-2.32892-2.18464-.0412z"/><path d="m105.6236 143.44845 1.13354-1.75185-1.29842-.55646-1.09233 1.09232z"/><path d="m104.20151 145.32395 1.29843-1.75184-1.19538-1.00989-1.73123 1.62818 1.05111 1.2366z"/><path d="m103.02675 145.79797.96867-.2061 1.69001 1.60758-2.06099.10305z"/><path d="m101.97565 147.9414 1.52513-.4328-.53586-1.54575-1.81367.53586z"/><path d="m98.904772 146.91091 2.514408.35037-1.17477 1.89611-1.463299-.72135z"/><path d="m96.699512 147.77652 1.854891.57708.350369-1.62818-1.586963-.2061z"/><path d="m100.98637 146.91091-1.772451-.26793.226709-2.01977 1.009882-.14427z"/><path d="m97.37964 144.62321 1.834279.0206-.06183 1.95794-1.69001-.26793z"/><path d="m97.194151 146.58115.04122-1.97855-2.699898-.10305z"/><path d="m102.49089 144.37589-1.89611.0824.39159 1.79306 2.32892-.65952z"/><path d="m100.98637 150.16727-1.236593-1.23659-.247319 1.93733.350369.47403z"/><path d="m98.430745 148.41543-.783178 1.21598 1.83428.26793.144269-1.00988z"/><path d="m96.658293 147.92079-.226708.68013 1.071713 1.19537.659516-1.44269z"/><path d="m101.58406 147.67347-1.2366 1.60758.72135.59768 1.83428-.76256z"/><path d="m104.77859 147.38493-2.34953.63891.74196 1.25721 1.4633-.6183z"/><path d="m106.2625 148.62153-.47402-1.33964-.8244.24731-.22671 1.07172.45342.65952z"/><path d="m105.87092 147.26128.70073 1.36025 1.15416-.63891-1.38087-.74195z"/><path d="m96.431585 148.74519 1.071713 1.2572-1.277813-.30915-.494639-.65951z"/><path d="m92.701193 105.38197 1.875501-.32976.247317 2.32892-1.79306.0412z"/><path d="m97.730006 105.11404-.741955 2.22587-2.040379-.0206-.226708-2.24648z"/><path d="m100.0177 105.32014-.226703 1.91672-2.535018-.0206.577077-1.93733z"/><path d="m100.14137 104.94916 1.48391.37098-.22671 1.85489-1.525134.0618z"/><path d="m103.50078 105.29953.0206 1.93733h-1.95794l.14427-2.14343z"/><path d="m105.99458 105.50563-.0824 1.81367-2.26708-.0824-.0206-1.79306z"/><path d="m107.60215 105.73234-.0206 2.01977-1.66941-.0206.22672-2.20526z"/><path d="m109.10667 105.79417-.0824 2.06099-1.36025-.0824.0824-1.97855z"/><path d="m111.78596 106.16514-.35037 2.10221-2.37014-.37097.2061-2.20526z"/><path d="m114.19731 106.63917-.78317 2.10221-1.79306-.49464.4122-2.10221z"/><path d="m115.94916 107.27808-.70074 1.93733-1.77245-.39159.86561-2.12282z"/><path d="m117.68039 107.71089-.59769 1.73123-1.52513-.2061.51524-1.95794z"/><path d="m119.65894 108.12308-.72135 1.79307-1.4633-.39159.35037-1.77245z"/><path d="m118.73149 109.99859-.28854 1.2572.0412.76256-2.20526-.35036-.0824-1.19538.18549-1.03049z"/><path d="m114.44463 109.21541 1.75184.32976-.0824 1.6694-2.04038.24732z"/><path d="m119.55589 107.99943.45341-2.26709-2.61745-.84501-.80379 2.39075z"/><path d="m114.89805 104.31025 2.20526.72135-.59769 2.16404-1.69001-.4122z"/><path d="m119.41162 105.34075.32976-1.56635-1.71063-.6183-.74195 1.60757z"/><path d="m122.02907 104.66062-.49463 1.54575-2.01977-.80379.37098-1.56635z"/><path d="m117.02087 104.88733.80379-1.77245-2.26709-.49464-.45342 1.54574z"/><path d="m114.95988 104.22781.32976-1.62818-1.93733-.30915-.22671 1.89611z"/><path d="m113.1256 104.37208-.0618 1.83429 1.64879.35036.10305-2.18465z"/><path d="m113.20804 102.08438-.18549 1.95795-1.73123-.28854.37098-1.91672z"/><path d="m112.96072 106.20637.0618-2.08161-1.64879-.26792-.49464 2.01976z"/><path d="m111.31193 101.96073-1.27781-.51525h-.43281l-.57708 1.73123 1.17476.53586.98928.12366z"/><path d="m110.69363 105.91783.47403-1.95794-1.77245-.4122-.59769 1.85489z"/><path d="m109.1685 101.61036-.28854 1.95794-1.75184-.22671.0824-1.71062z"/><path d="m109.06545 103.79501-.4122 1.89611-1.56635-.12366.16488-1.97855z"/><path d="m106.98385 103.44464.0618-1.83428-2.06099-.10305v1.75184z"/><path d="m106.86019 105.52624.32976-1.95794-1.85489-.2061-.26793 1.99916z"/><path d="m102.77943 102.84695 2.12282.55647.0206-1.91672-1.73123-.2061z"/><path d="m102.7176 105.07282 2.20526.32976.32976-1.73123-2.61746-.70074z"/><path d="m100.49173 104.74306 2.06099.37098v-2.20526l-1.95794-.16488z"/><path d="m103.00614 100.82718-2.06099-.22671-.0206 1.99916 1.79306.14427z"/><path d="m100.636 100.84779-1.854889.0618-.06183 1.75184 2.102209-.0824z"/><path d="m100.40929 102.84695-1.957937.10305-.247319 2.2877 1.690013-.0206.432803-.55647z"/><path d="m98.451353 101.0745-2.040379-.2061v1.85489l2.16404.0824z"/><path d="m98.265864 102.95-1.339643-.12366-1.566352.24732.556466 1.83428 2.20526.14427z"/><path d="m96.225485 100.84779-1.628182-.0618.350369 1.89611 1.401471.0412z"/><path d="m94.473644 100.8684-1.339643.22671.267927 1.8755 1.463302.0412z"/><path d="m92.86607 105.21709 1.772452-.24732 1.215985-.0206-.659516-2.01977-2.30831.37098z"/><path d="m138.04296 108.28796 2.61746-.88622.0824-.55647-2.51441-.12366-.78317.2061z"/><path d="m135.75526 109.15358 2.14343-.76257-.53585-1.40147-2.14343.6183z"/><path d="m135.59039 109.17419-.49464-1.54574-2.06099.92744 1.48391.90684z"/><path d="m151.96317 115.56914-.44071-1.23819-1.88877.37775.0839 1.15425z"/><path d="m147.59802 115.82098 1.97271.12591v-1.40608l-1.86777-.12591z"/><path d="m145.43644 115.27533 1.90975.25184.33578-1.32214-2.16159-.52465z"/><path d="m143.5057 114.93955 1.88877.25184.042-1.532-1.93074-.56663z"/><path d="m141.61694 114.83462 1.80482.12592v-1.23819l-.7765-.021z"/><path d="m143.92543 111.9595 1.17523-.18887-.10493 1.28016-.58762.25184-.44071-.29381z"/><path d="m140.81946 111.89654 1.17523.52466-.83945.96537-.96537-.48269z"/><path d="m141.84779 110.97315.96537.12592 1.53199-1.90976-.23085-.23084-2.20356.27282z"/><path d="m141.70088 109.46214.12592 1.55298-.90241.23085-.58761-.41973-.29381-1.65791z"/><path d="m138.19618 110.11271 1.09128 1.04931.86044-.25183-.31479-1.55298z"/><path d="m143.23288 111.51879-2.01468 1.88877.54564.98635 2.16159-1.72087z"/><path d="m134.43963 109.60904-.6086 1.532-1.93073-.96537.58761-1.8258z"/><path d="m135.84571 111.74964.88143-1.69989-1.97271-.65057-.77649 1.69989z"/><path d="m138.90971 111.03611-1.19452-.66769-.88121-.18552-.7189 1.64649 1.76245.81165z"/><path d="m134.35264 111.45835-.64932 1.06674.11595.6957 1.46097.62613 1.13631-1.53054z"/><path d="m139.09492 113.53437.96419-.61544.61544-1.12831-1.66169-.67698-.9847 1.47705z"/><path d="m129.61715 109.1032 2.17456 1.16933.51286-1.94889-1.8258-1.00521z"/><path d="m128.16061 106.37475-.51286 1.70272 1.8258.75904.88213-1.49757z"/><path d="m125.82194 107.23637.67699-1.55912 1.49757.63596-.4103 1.78477z"/><path d="m123.95511 106.70299 1.62066.77955.90264-1.94889-1.41551-.32823h-.6975z"/><path d="m122.21136 104.67204-.51286 1.57962 1.94889.6975.63595-1.62066z"/><path d="m136.69471 115.03194 2.29764-1.37449-1.29242-1.00521-.98471-.43081-1.31293 1.66169z"/><path d="m131.68913 110.43665-.49235.73853-.041.6975 1.29243.92316 1.16933.45132-.0821-1.04625.67699-.8411z"/><path d="m129.16583 109.00063-.61544 1.5386 2.01044 1.10779 1.04625-1.31294z"/><path d="m120.11887 105.7388-.41029 1.92837 2.29764 1.21037.0205-2.3797z"/><path d="m124.3654 109.32886.30772-2.13352-1.66168-.28721-.86162-.2872v2.05146z"/><path d="m126.90922 109.78018.22566-1.8258-2.27713-.6975-.34874 2.15404z"/><path d="m128.44782 110.43665.65647-1.66168-1.80529-.63596-.28721 1.66169z"/><path d="m136.8178 115.13451.8411 1.25139.55389-.61544 1.16934-.24617-.38978-1.80529z"/><path d="m139.56676 115.21657 1.00522 1.84632 1.72323-.22566-.47184-1.90787z"/><path d="m139.05389 113.76003.5539 1.37448 2.03095-.32824-.61544-1.39499-1.27191-.10257z"/><path d="m142.39778 116.9398 2.21558.41029.49236-2.09249-3.05669-.24618z"/><path d="m147.25975 117.12443.26669-1.51809-2.27712-.22566-.47184 1.84632z"/><path d="m147.44439 117.26803 2.54381-.10257-.1436-1.21037-2.29764.041z"/><path d="m151.99864 115.79098-2.01044.16411.12309 1.2514 1.92838-.12309z"/><path d="m139.58727 115.60634-1.43602.36927.32823 1.78477 1.70272-.041z"/><path d="m136.42802 117.86296 1.98992-.14361-.43081-1.57962z"/><path d="m133.00207 119.68876 2.33867.24618-.0205-1.84632z"/><path d="m138.13073 120.03751.28721-2.15404-2.91308.041-.0205 2.03095z"/><path d="m140.24374 120.03751-.10257-2.17455-1.70272.0615-.18463 2.0925z"/><path d="m140.3258 120.52986 2.17456.20515.38977-2.27713-2.56433.18463z"/><path d="m144.83903 120.81707.16411-1.92838h-2.05146l-.26669 1.72323z"/><path d="m142.008 118.45788.12309-1.55911-1.96941.30772.12309 1.35396z"/><path d="m143.85432 118.82715.26669-1.49757-1.86683-.30772-.12309 1.41551.8411-.0821-.0821.45132z"/><path d="m145.31086 118.78612.24618-1.14882-1.35397-.24618-.20515 1.41551z"/><path d="m147.11615 118.78612.26669-1.62066-1.60014.0821-.36926 1.51808z"/><path d="m149.1471 118.51943-.34875-1.16934-1.37448.0205-.10257 1.41551z"/><path d="m149.20865 118.45788 2.15404-.1436-.2667-1.04625-2.113.0821z"/><path d="m145.00314 120.94015 2.07198-.0821-.26669-1.92838h-1.70271z"/><path d="m149.1471 118.622-2.17455.43081.24618 1.62065 2.19506-.41029z"/><path d="m149.31122 118.72457.22566 1.29243 2.2361-.34875-.59493-1.33346z"/><path d="m119.95377 107.83991-.78252 1.9563 1.70478.4751.81046-1.53709z"/><path d="m122.60875 110.83025.81046-1.64888-1.34146-.50305-.92225 1.45325z"/><path d="m125.68293 109.71237-2.09603-.55895-.44715 1.76067 2.27671.52789z"/><path d="m127.82669 110.29653-1.64659-.64432-.69205 1.62273 1.45568.81136z"/><path d="m129.87896 111.39425-1.78977-1.05-.95455 1.71818 1.95682 1.09773z"/><path d="m131.38236 114.3772.71591-1.67045-1.98068-1.21704-.90681 1.7659z"/><path d="m133.10054 115.1647 1.45568-1.47954-2.17159-.85909-.88295 1.59886z"/><path d="m134.98577 116.59652 1.67045-1.36023-1.28864-1.28863-.57272-.19091-1.24091 1.40795.95454.73977z"/><path d="m137.5869 116.40561-.85909-1.07386-1.74204 1.43181.62045 1.09773.71591-.0239z"/><path d="m120.11875 112.0863.0954-1.98068-1.38409-.11932-.28636 2.24318z"/><path d="m121.88465 112.80221.31023-1.95682-1.76591.0239-.16704 1.8375z"/><path d="m124.15169 112.92152.50114-1.05-.16705-.52499-2.07613-.42955-.2625 1.93295z"/><path d="m127.06305 114.01925.45341-1.59886-2.5534-.90682-.38182 1.19318z"/><path d="m129.75964 113.63743-1.76591-.95454-.83522 1.2409 1.74204 1.00227z"/><path d="m130.80964 115.64197.7159-1.09772-1.52727-.7875-.78749 1.16931z"/><path d="m133.12441 115.40334-1.55114-.81137-.57272 1.47955 1.16931.71591z"/><path d="m133.67327 115.35561-1.36023 1.28863.73977 1.05 1.64659-1.16932z"/><path d="m134.91417 116.78743-1.59886.88295.42955 1.33636 1.59886-1.14545z"/><path d="m94.489244 109.62835.21477-2.1-2.33863.0477-.238636 2.00454z"/><path d="m96.85174 109.31812.14318-1.88523-2.171586.0955-.190908 2.1z"/><path d="m98.498327 109.36585-.07159-2.00455-1.193178-.0239-.167047 1.90909z"/><path d="m100.2881 109.69994-.0239-2.21932-1.646586-.16704v2.60113z"/><path d="m102.29264 109.7238-.2625-1.93295-1.50341-.47727-.0954 2.36249z"/><path d="m104.36877 109.60448-.0239-2.17159-2.00454-.11931-.16705.97841.16705.9784z"/><path d="m105.94377 109.67607.0954-1.88522-1.33636-.35796-.16704 2.07614z"/><path d="m93.486973 111.91925.02387-2.12386-1.503408-.0954-.167044 2.19545z"/><path d="m95.014244 109.7238-1.384091-.0477.07159 2.07614 1.360225-.21478.167045-.47727z"/><path d="m96.350604 111.60902.238635-2.17158-1.503407.4534.405683 2.05227z"/><path d="m97.830146 111.32266.453408-1.26477-.09545-.66818-1.431817-.0239-.214773 2.07614z"/><path d="m99.954006 110.05789-1.503407.11932-.429543 1.21704.548862.42955 1.073862-.0239.334089-.64431z"/><path d="m102.36423 111.94311-.2625-2.07613-1.93295.23864-.214774 1.71818z"/><path d="m104.39264 112.03857.19091-2.41022-1.98068-.0716-.35796.73978.33409 1.5034z"/><path d="m105.96763 109.81926-1.26477-.0955-.23863 2.33863 1.21704.2625z"/><path d="m93.367654 113.80448.501137-1.55114-.310229-.2625h-1.193178l-.262502 1.47954z"/><path d="m95.682422 113.97152.09545-1.93295-.381815.0239-.07159-.47728-1.145452.23864-.381818 2.1z"/><path d="m98.450599 113.99538-.09545-2.14772-2.12386-.11932-.405681 2.38636z"/><path d="m100.09719 113.70902v-1.71818h-1.479544l-.04773 1.93295z"/><path d="m102.36423 114.01925.2625-1.98068-2.33863-.0716-.0716 1.8375z"/><path d="m104.79832 114.16243-.0239-.54886-.73977-1.45568-1.19318-.21478-.28636 1.74205.33409.62045z"/><path d="m106.5165 114.1147.14318-1.90908-1.95682.16704.23864 1.81363z"/><path d="m93.654018 116.2147.07159-2.29091-1.288635-.28636-.119319 2.67272z"/><path d="m95.157423 116.78743.02387-2.55341-1.336362-.19091.238635 2.69659z"/><path d="m96.923329 116.23856.04773-1.93295-1.694315-.11932v2.02841z"/><path d="m99.094918 115.99993-.357955-1.74205-1.622724.0239.07159 2.00454 1.240906.0716z"/><path d="m100.14492 115.71356-.167051-1.74204-.978405.0239.21477 1.67045z"/><path d="m102.14946 115.37947-.2625-1.33636-1.69432-.0954.16705 1.59886z"/><path d="m104.24945 115.76129.0477-1.40795h-1.90909l-.0239 1.28863z"/><path d="m106.30172 115.73743.0955-1.50341-1.95682.0477-.14318 1.45568z"/><path d="m96.971057 117.71811-.787498-1.36023-1.503407.81136.906817 1.52727z"/><path d="m97.209693 117.7897 1.885225-.97841-.310227-.525-.429546.16704-1.288634-.11931-.525.14318z"/><path d="m101.00401 117.50333 2.52954-.64431-.40568-1.05-2.26705-.0477z"/><path d="m103.05628 119.34083.0239-2.24318-2.02841.50114-.0716 1.14545.35796 1.05z"/><path d="m100.64605 118.24311.62045 1.55113-1.813628.28636-.692046-1.14545z"/><path d="m98.140372 118.91128-.620453-1.14545-1.813631.90682.692044 1.43181z"/><path d="m99.83469 118.52947-.548865-1.62273-1.622724.81137.644319 1.16931z"/><path d="m100.66991 115.59424.38182 2.17159-1.264768.35796-.644319-2.00455z"/><path d="m99.214234 119.86583-.668179-.7875-.501136.0239-1.049999.78749z"/><path d="m105.89604 117.47947v-1.64659l-2.43408.0477.0954 1.55113z"/><path d="m105.4665 117.76583-2.17159-.2625-.0716 1.98068 2.21931-.0716z"/><path d="m100.83696 121.63173-.0716-1.45567-2.24318-.23864-.02387 1.5034z"/><path d="m102.8415 121.32151-.28636-1.78977-1.69432.45341.0239 1.36022z"/><path d="m105.32332 121.32151-.31023-1.8375-2.26704.38182.16704 1.43182z"/><path d="m107.70967 121.20219-.28636-1.69432-2.2909-.0239.31022 1.98068z"/><path d="m109.61876 121.58401.33409-2.21932-2.38636.0239.35796 2.00454z"/><path d="m112.17217 121.75105.14318-2.36249-2.19545-.21478-.33409 2.1z"/><path d="m107.66195 119.34083.33409-1.62272-2.24318-.21478-.21477 1.8375z"/><path d="m109.0699 115.97606-2.67272-.33409-.40568 1.69432 2.45795.33409.525-.50114z"/><path d="m109.23694 114.35334-2.45795-.45341-.35795 1.62272 2.69659.35796z"/><path d="m109.16535 116.97833 1.26478-.83522.88295-1.40795-1.09773-.59659-.85909.35795z"/><path d="m108.37786 113.99538-.23864-1.71817-1.33636.11931-.0716 1.40796z"/><path d="m110.1199 112.03857-1.74204.21477.11931 1.90909 1.05.0954.57273-.2625z"/><path d="m111.45626 114.75902.73977-2.14772-1.38409-.525-.59659 1.88522z"/><path d="m113.12671 115.23629 1.24091-1.81363-2.00454-.42955-.62046 1.64659z"/><path d="m107.56649 112.27721.19091-2.14773-1.59886-.23864-.23863 2.21932z"/><path d="m109.73808 110.34425-1.8375-.21477-.21477 1.98068 1.81364-.0716z"/><path d="m112.24376 110.39198-2.24318-.28636-.35795 1.86136 1.19318.0239 1.02613.38182z"/><path d="m112.79262 113.0647 1.24091-1.7659-1.26477-.83523-.57273.525-.2625 1.33636z"/><path d="m114.53466 113.3272 1.69432-1.59886-.40568-.40568-1.8375.21477-1.02613 1.52727z"/><path d="m108.5449 107.95789-2.38636-.11931-.11932 1.95681 2.24318.31023z"/><path d="m110.45399 108.22039-1.81363-.28636-.28637 2.1 1.71818.0239z"/><path d="m111.83808 108.43517-1.21704-.23864-.38182 1.86136 1.71818.23864z"/><path d="m114.08126 111.22721.28636-2.00454-2.43409-.7875.14318 1.71818.90682.26249z"/><path d="m110.09604 119.10219-1.02614-1.93295-.7875.83523-.45341 1.26477z"/><path d="m110.35853 118.55333 1.33637-1.78977-1.12159-.64432-1.38409.97841z"/><path d="m111.83808 116.66811 1.14545-1.43182-1.40795-.525-.95454 1.3125z"/><path d="m111.62331 119.12606 1.38408-1.95682-.83522-.66818-1.43182 1.78977z"/><path d="m114.70171 115.6897-1.09773-.90682-1.21704 1.40796.93068.95454z"/><path d="m116.3483 114.04311-1.00227-1.26477-1.62273 1.64659 1.14545 1.19318z"/><path d="m116.41989 113.8522.71591-.7875-.76364-1.33636-.85909.97841z"/><path d="m118.61534 112.27721-1.55113-.40569-.14319.525.38182.66818 1.3125-.525z"/><path d="m114.48694 121.44082-.0716-1.64658-1.98068-.16705-.11932 1.93295z"/><path d="m116.56307 120.89196.0477-1.59886-2.05227.33409.0477 1.67046z"/><path d="m118.83011 120.55787-.0477-.93068-.42954-.81136-1.64659.33409.0477 1.69432z"/><path d="m120.59602 119.60333-.42955-1.45568-1.62272.64432.40568.97841z"/><path d="m120.26193 121.01128v-1.21704l-1.33636.14318v.85909z"/><path d="m122.69601 121.34537.0477-1.74204-2.02841-.0239-.31022.42955.0239 1.14545z"/><path d="m124.74828 119.79424-1.98068.38182.35796 1.5034 1.7659-.0477z"/><path d="m124.98692 119.67492-.33409-1.28863-1.78977.76363v.90682z"/><path d="m122.77842 119.10993-.48112-1.75608-1.85231.72167.19245 1.32308z"/><path d="m125.06373 118.12364-.62545-1.51553-1.94853.64951.38489 1.82825z"/><path d="m113.13199 119.56699 1.01035-1.80419-.96224-.55329-1.44336 1.90042z"/><path d="m115.46541 116.43972-.8179-.64951-1.15468 1.27496.91412.55329z"/><path d="m116.81254 115.62182-.96223-1.01035-1.03441 1.13063.76979.76979z"/><path d="m118.54457 114.70769-.84195-1.68391-1.17875.91412-.60139.64951.91412 1.01035z"/><path d="m120.61338 114.10629-.50517-1.8523-1.27497.2165-.86601.45706.69762 1.75609z"/><path d="m122.2973 113.38461-.31273-.62545-1.51552.0241.26461 1.10658z"/><path d="m115.15269 119.35049-.19245-2.11692-1.01035.93818-.74574 1.49146.62546.0481z"/><path d="m116.98094 119.03776-.14434-.96224-.96224-1.39524-.89007.43301.31273 2.28531z"/><path d="m119.41059 118.36419-.6014-1.39524-2.16504.6014.36084.55329.0481.84195 1.37119-.26461z"/><path d="m121.6959 117.3779-.8179-1.17874-1.87636.89007.48111 1.25091z"/><path d="m122.80247 115.3572-1.56363.6014-.28867.2165.89007 1.27497 1.37119-.55329z"/><path d="m118.66485 116.87273-.57734-1.73203-2.06881 1.17874.48112 1.13063z"/><path d="m121.14261 115.93454-.67356-1.73202-2.2372.74573.62545 2.0207z"/><path d="m123.37982 115.1407-.55329-1.90042-2.11692.74573.57734 1.87637z"/><path d="m125.92974 113.86574-1.0344-.96224-1.92448.433.55329 1.87637z"/><path d="m125.30429 115.98266-.52923-1.44336-1.82825 1.03441.36084 1.27496z"/><path d="m128.31128 114.9242-1.78013-1.15469-1.44336.69762.38489 1.4193z"/><path d="m127.1566 117.32979-.64919-1.78927-2.07022.9109.69008 1.57337z"/><path d="m129.21251 114.90565-2.37386.69008.30363 1.43535 2.18064-.88329v-1.15933z"/><path d="m126.70063 119.0185-.13801-1.35255-1.8218.77289.27603 1.07651z"/><path d="m129.40573 117.30711-.96611-.74528-1.73899.99371.22083 1.21453z"/><path d="m131.42074 116.47902-1.38015-.9385-1.26973 1.04892.9661.9661z"/><path d="m126.97666 121.28194-.11041-1.35254-2.07022.0276.11041 1.46296z"/><path d="m129.01928 120.95071-.19322-1.51817-1.877.63487.13802 1.02131z"/><path d="m131.58636 120.15022-.60726-1.38015-2.01502.44165.13801 1.73899 1.10412-.41405z"/><path d="m133.54617 119.0737-.82808-1.62857-1.60098 1.07652.77288 1.71138z"/><path d="m127.41831 119.84659-.11041-1.13172-1.60097 1.07651z"/><path d="m129.95779 118.68726-.99371-.9661-1.57337.88329.82809.8833z"/><path d="m132.52486 117.33472-.9937-.74528-2.07023 1.26973.82809.99371z"/><path d="m99.042453 136.13234 1.987417.46925-.0276-1.40775-1.849396-.0828z"/><path d="m101.25069 136.6292 2.18064.13801.27603-1.57337-2.56708-.0276z"/><path d="m106.27443 137.12605-.11041-1.79419-2.20824-.16562-.38644 1.35254z"/><path d="m108.70349 137.20886-.27603-1.71139-2.04262-.27603v1.68379z"/><path d="m110.88413 135.66309-2.15303-.66247-.0276 1.79419 2.23584.38644z"/><path d="m113.28559 136.79481-.30364-1.65618-2.07022-.19322.33124 1.90461z"/><path d="m115.30061 134.53137-2.15304.22082.19323 1.87701 2.01501-.16562z"/><path d="m116.79117 133.95171-1.43536 1.02131 1.02131 1.54576 1.51817-1.07651z"/><path d="m120.10352 134.28294-1.21453-1.71138-1.71138 1.32494 1.13172 1.7942z"/><path d="m120.26914 133.97931.77289-.9661-1.26974-1.13173-.69008.69008z"/><path d="m101.69234 135.05583.16562-1.40775-2.263448-.0828-.138015 1.35254z"/><path d="m104.56305 133.48246-2.51187.0276-.13802 1.54577 2.59468.0552z"/><path d="m107.07492 133.39965-2.12543-.19322-.38644 1.40775 2.20824.52445z"/><path d="m108.86911 133.15122-1.60097.11041-.30363 1.95981 1.8494-.16561z"/><path d="m110.88413 134.91781.0552-1.8218-2.01501-.0276-.0276 1.54577z"/><path d="m113.09237 134.75219-.52446-1.60097-1.54577.0552-.0276 1.54576z"/><path d="m115.38341 134.31055-.19322-1.65618-2.20824.44164.19323 1.46296z"/><path d="m117.72967 131.9919-2.31865.44165.0828 1.877 2.29105-.8833z"/><path d="m118.22652 132.76478 1.24213-.85569-1.26973-1.73899-.8833.66247z"/><path d="m100.94706 131.66066-1.324944-.16562-.248428 1.95982 1.573372.0552z"/><path d="m102.68605 131.57785-1.57337.0828v1.90461l1.57337-.24843z"/><path d="m104.48024 133.26163-.13802-1.76659-1.46295.0552-.0276 1.8218z"/><path d="m106.49526 131.79867-1.76659-.41404-.11042 1.73899 1.8494.0552z"/><path d="m107.98582 133.01321-.19322-1.65618-1.15933.30363.13802 1.54577z"/><path d="m109.64199 131.35703-1.76658-.0552.19322 1.68378h1.73898z"/><path d="m111.38098 131.21901-1.49056-.0552v1.82179l1.43536.0828z"/><path d="m113.27182 131.20867h-1.74795l-.0254 1.84928 1.74795-.12666z"/><path d="m114.79177 131.31-1.44395-.0507.0507 1.59596 1.62129-.20266z"/><path d="m117.4517 132.01931-.25333-1.34262-2.02661.22799-.10133 1.41862z"/><path d="m101.61882 121.73427-1.798621-.10133-.445953 1.80398 2.144474.11698z"/><path d="m104.15058 123.35894-.27294-1.89104-2.14447.0585-.078 1.94953z"/><path d="m106.25606 123.39793-.0585-1.79356-2.0665-.19495.19495 1.89104z"/><path d="m108.63448 123.39793-.46789-1.91053-1.77406-.039.0195 1.85205z"/><path d="m110.31107 121.62387h-1.85205l.35091 1.71558 1.75457.27293z"/><path d="m112.12412 123.69036-.0585-1.89104-1.55962.0585.0975 1.77407z"/><path d="m102.88339 123.59288-2.67085.0585-.13647 1.75457 2.02751.13647.8188-1.13072z"/><path d="m104.98887 123.49541-1.98851.0975v.79931l-.25344.89678 2.06649-.0585z"/><path d="m106.47051 125.28897-.0585-1.87154-1.32567.039-.15596 1.69608z"/><path d="m107.99114 125.32796.19495-1.75457-1.71558-.0975.15596 1.77406z"/><path d="m110.21359 125.38644.38991-1.52062-2.22246-.46789-.25344 1.89104z"/><path d="m100.7779 127.78436.17546-2.18347-1.6376-.078-.584856 2.14448z"/><path d="m102.66894 127.49193-.078-1.89104-1.54012-.0195-.13647 2.14448z"/><path d="m104.4625 127.23849-.15596-1.87154h-1.59861l.0466 1.92286z"/><path d="m106.24276 127.12945.20453-1.79536-1.97716-.0682.11363 1.93172z"/><path d="m107.90176 127.37943.0227-1.97716-1.34084-.0682-.24999 1.84081z"/><path d="m109.87892 127.37943-.0227-1.95444-1.88627-.0227.0227 2.02261z"/><path d="m100.33399 131.37922.15908-1.84081-1.977164-.0909.02273 1.79535z"/><path d="m102.24298 131.56103v-1.81809l-1.63628-.18181-.0909 1.86354z"/><path d="m104.15196 131.37922-.20453-1.81809-1.52265.0682-.0227 1.84081z"/><path d="m102.76568 127.6067-1.81809.1818v1.65901l2.02262.0909z"/><path d="m100.78851 127.85668-2.136248-.11363-.227261 1.59082 2.318059.13636z"/><path d="m106.42457 127.24308h-1.93172l.0455 2.02262h1.72718z"/><path d="m104.3565 127.42489-1.5681-.0909.24458 2.12937 1.4387.0644z"/><path d="m108.07916 127.57372-1.52459-.34357-.0859 2.01847 1.73932.36504z"/><path d="m110.205 127.42341-2.01848.0644.17179 2.0829 1.46017-.30063z"/><path d="m109.75406 131.15972.23621-1.84668-1.63196.30062-1.37428-.12884.3221 1.82522z"/><path d="m106.7693 129.35599-2.64119.21473.15031 1.78226h2.8774z"/><path d="m115.46591 125.10431-.36504-1.82521-1.73933.68714-.0644 1.1166z"/><path d="m113.08239 123.92329-2.34056-.2362-.3221 1.65343 2.57677-.15032z"/><path d="m112.20199 127.31604.0644-2.08289-2.08289.2362-.27916 1.7608z"/><path d="m114.13457 125.25462-1.84149.006v1.92789l1.81835-.0657z"/><path d="m115.40399 125.21684-1.20493.0219.0438 1.84025 1.33637-.19717z"/><path d="m112.03019 127.38571-1.77453-.0876-.26289 1.88407 1.9717.13145z"/><path d="m112.03019 129.35741-1.81835-.0438-.30671 1.77453 1.92789.0876z"/><path d="m113.34466 129.3136-1.24875-.10954-.10953 1.86216 1.33637.0876z"/><path d="m115.03156 131.30721-.0876-2.21269-1.55545.2848.1171 1.84133z"/><path d="m116.35001 128.54835-.53076-1.59228-1.74393.27801.25274 1.8703z"/><path d="m113.9995 127.18353-1.8703.17693v1.7692l1.92085-.0506z"/><path d="m116.70385 130.67139-.37912-1.64283-1.28898-.0505.17691 1.7692z"/><path d="m117.99284 130.21645-.80878-2.09777-.93515.58131.75823 1.94613z"/><path d="m115.31376 121.29462-1.49118.27802-.15165 2.04722 1.84503-.58131z"/><path d="m112.25557 121.59792-.10109 2.12304h1.39008l.12637-2.14832z"/><path d="m117.15879 120.99133-1.74393.27802.15165 1.64283 1.69337.0505z"/><path d="m119.00381 121.06715-1.69338-.0758.15165 2.37579 1.49118-.55604z"/><path d="m120.3939 121.24408-1.23844-.35385-.0758 1.66811 1.21317.40439z"/><path d="m123.02242 121.64846-2.47688-.42966-.0758 1.74393 1.13734.27802.25275-.50549z"/><path d="m124.23559 124.04952-1.08679-2.19886-1.13735.8846-.20219.45494.9857 1.41536z"/><path d="m125.01909 125.99564-.70768-1.81975-1.31426.48021 1.39009 1.92085z"/><path d="m126.05534 128.54835-.96042-2.42633-.68241.5813-.12637 1.9714z"/><path d="m125.90369 128.72527-1.59228.0506-.32856 1.71865 1.54173.17692.35384-.96043z"/><path d="m117.20933 124.60556-.0758-1.54174-1.81975.0505.17692 1.61756z"/><path d="m117.71482 125.00995 1.06152-.53076.0758-1.44064-1.567.42966z"/><path d="m120.59609 123.92315.0253-.83405-1.54173-.42967-.17692 1.39009z"/><path d="m122.41274 131.87431-.99857-1.09028-1.49086 1.19853 1.19853 1.0816z"/><path d="m119.49927 128.63812-1.05516-1.61642-1.30212.96537.71841 1.59397z"/><path d="m121.09324 130.88315-.92046-1.27966-1.39192 1.16741.85311 1.23477z"/><path d="m119.52172 128.75038-1.61642.94291.78576.96536 1.39192-1.03272z"/><path d="m118.3094 127.0217-.6735-1.25721-1.93073.71841.85311 1.66132z"/><path d="m115.59292 124.77668.40411 1.52661 1.61642-.60615-.26941-1.03272z"/><path d="m124.16893 129.04223-1.21232-.0449-.78576.65105-.1796.51636 1.99808.2245z"/><path d="m124.16893 128.45852.0673-1.93072-.24695-.35921-1.16742.94291.42656.78576-.17961.98782z"/><path d="m122.50761 124.35012-.92047.96536 1.14497 1.63887 1.16741-.92046z"/><path d="m121.04834 123.16026-.33676.78576-.4939.11225.0224.449 1.36946.62861.80821-.98781-.65105-.83066z"/><path d="m122.0137 126.19104-.60616-1.03271-1.27966-.56126-.0449-.51635h-1.14497l-.0224.5388.33676.24696.33675.74085.0674.53881.76331 1.10007z"/><path d="m122.97906 128.88508.1347-1.01027-1.01026-1.66132-1.45927 1.03272.38166.83066.56125.47145.49391 1.03272z"/><path d="m119.70132 128.70547 1.12252-.6735-1.25722-1.79603-1.07761.74086z"/><path d="m118.37676 126.9319 1.12251-.78576-.47146-1.41436-.2694-.0898-1.12251.49391.11225.53881z"/><path d="m121.22794 130.79335.83066-1.07761-.62861-1.18987-.5388-.38165-1.07762.69596z"/><path d="m125.08939 132.52202.20205-1.84092-1.68377-.2245-.0674 1.63887z"/><path d="m121.81165 130.18719 1.68377.2245v1.57152l-.96536-.20205-.98782-1.05516z"/><path d="m123.36072 134.38539.74086-1.88582-1.41437-.62861-1.32457 1.57152z"/><path d="m122.1035 134.7895.65106 1.79602.74086-.33675.38165-1.97563z"/><path d="m125.20164 137.07943.29185-2.31238-1.52661-.2694-.31431 2.28992z"/><path d="m124.81998 138.92035.49391-1.72867-2.15522-.49391-.40411 1.45927z"/><path d="m122.48516 140.53677 1.77357.44901.4939-1.79603-1.97562-.2245z"/><path d="m123.69747 143.02875.3143-1.95317-1.63886-.42656-.38166 2.06543z"/><path d="m125.83025 135.46301 1.45927-.56126.1347-.80821-1.07762-.80821-1.25721 1.01026z"/><path d="m128.88348 132.00567-1.32456-.65106-.85311 1.05516-.2245.74086.96536.78576z"/><path d="m127.40177 130.38924-1.63887-.0898-.42656 1.03271-.0449.76331 1.52662-.0674z"/><path d="m126.70581 132.27507-1.43682.0225-.67351 2.11033 1.70622-1.34702z"/><path d="m123.56277 134.11599.92046.3143.56126-1.68377-.76331-.2694z"/><path d="m129.02107 131.81978.55638-1.90342-1.69844-.32212-.43925 1.66916z"/><path d="m129.40175 128.27649.11714 1.46417-1.69845-.26355-.0879-1.22991z"/><path d="m127.96686 124.3525-.67352-1.28847-1.5813.46853.5271 1.31776z"/><path d="m126.38556 121.42416-1.11278.26355.29284 1.61059 1.63987-.23427z"/><path d="m125.71204 123.91325.49781 1.40561-.76137 1.25919-.96635-2.37196z"/><path d="m125.03852 121.62914-1.49346.5271.8785 1.99128 1.11278-.38069z"/><path d="m127.32263 128.13007-.38069-1.05421-.46853-.99563h-.46854l-.46853.55638.55638 1.49346z"/><path d="m127.58618 130.29705v-2.1377l-1.34704.40997-.3514 1.63987z"/><path d="m129.37247 128.15935-1.78629-.0293-.20499-.76137 1.75701-.29284z"/><path d="m128.34755 124.49892-2.04984.38068.43925 1.52274 2.07912-.73208z"/><path d="m129.10892 127.0173-.32212-1.25919-1.90343.81994.43926.81993z"/><path d="m144.74629 122.88833 2.40124-.11714.11713-1.78629-2.34267.0293z"/><path d="m149.57806 122.30266-.29284-1.90343-1.93271.38069.1757 1.96199z"/><path d="m151.68647 119.78428-2.1377.40997.14642 1.99128 1.96199-1.87415z"/><path d="m148.31887 122.80048.3514 1.37632 1.63987-.5271-.29283-1.17134z"/><path d="m146.23974 123.03475.23427 1.46417 1.96199-.14642-.29283-1.61059z"/><path d="m143.95563 122.97618.40997 1.93271 1.96382-.28035-.25784-1.54706z"/><path d="m147.8806 125.53548-.36873-.9745-2.23872.34239.28972 1.71197z"/><path d="m142.13895 122.87536.18436 1.76464 1.86999.26337-.36873-1.84364z"/><path d="m140.18995 122.9017.18436 2.02801 1.84365-.079-.23704-1.949z"/><path d="m142.11261 120.76833.15803 1.97534 2.23872.15803-.13169-2.05435z"/><path d="m140.05826 120.61031-.15803 2.21238h2.15971l-.10536-2.02802z"/><path d="m143.06077 125.03506.10535 2.21238 2.31774-.50042-.39507-1.86998z"/><path d="m140.92741 127.66885 2.05435-.52676-.0527-2.18604-2.23871.0263z"/><path d="m136.00223 126.24661.42141 2.89716 1.13252-.15803.86915-.63211-.28971-1.36956-.65845-.9745z"/><path d="m135.76519 126.24661-1.97534.15802.079 1.13253 2.21238.2107z"/><path d="m134.05323 129.48616 1.05351-.10535 1.10619-.68478-.10535-.86915-2.13337-.15803z"/><path d="m134.84336 123.77085-1.60661-.15803-.68478 2.1597 1.34323.42141 1.29056-.0263z"/><path d="m135.4228 126.14125 2.23871-.28971.26338-1.10619-.76379-1.15887-1.55394.0527-.36873.39507z"/><path d="m140.34798 126.16759-2.23872.52676.44774 1.58027 1.07985.2107 1.15887-.65844z"/><path d="m140.00558 124.29761-1.86998.34239-.31606 1.55393.26338.44774 2.31773-.52675z"/><path d="m139.71587 122.32227-2.39675-.10536.10535 1.50126.57943.81648 1.97534-.31606z"/><path d="m139.98565 120.16702-.23128 2.0605-1.49281-.0421.25231-2.0605z"/><path d="m130.77136 125.72886-1.71704.38441.30753 1.71704 1.92206-.43567z"/><path d="m131.51456 127.70217-.10251 2.02457h-1.7683l-.15376-1.76829z"/><path d="m133.92354 129.57298-.10251-1.81955-2.22959.0513-.0513 1.87081z"/><path d="m133.66726 126.24141-2.30647-.71757.0769 2.0502 2.33209.20502z"/><path d="m132.38589 124.01182.2819 1.307-1.71704.4613-.43566-1.30701z"/><path d="m133.61601 122.03851 1.79392.0512-.0769 1.61453-1.66579-.17939z"/><path d="m133.33411 121.83349.20502 1.61453-1.58891.5638-.51254-1.64016z"/><path d="m128.90056 122.34604-1.46077.66631-.92258-1.61453 1.76829-.38441z"/><path d="m130.56634 120.47523.69194 1.84518 1.33263-.38441-.33315-1.76829z"/><path d="m134.20544 121.73098-1.46076.0769-.38442-1.74266 1.66579-.20503z"/><path d="m131.15577 122.42292-.69194-1.89643-1.84517.82008 1.1276 1.64015z"/><path d="m131.89897 124.06308-.64069-1.56328-1.46076.58943.69194 1.20449z"/><path d="m137.1526 122.14102-1.69142-.0769.0513 1.53764 1.74266-.10251z"/><path d="m127.49105 123.11486 1.64016-.87133.97384 1.66578-1.5889.66631z"/><path d="m129.00307 126.03639 1.79392-.46129-.64069-1.61453-1.53764.71756z"/><path d="m138.19153 122.18522.23314-2.07708h-1.22929l-.14836 1.94991z"/><path d="m135.58458 120.02336-.0636 1.90753 1.39885.16955.14836-2.03469z"/><path d="m135.37263 119.98097-1.25048-.0636.16956 2.0135h1.1657z"/><path d="m120.15275 151.76016 1.38353-.62888-1.72941-.94331z"/><path d="m121.72494 149.18176-1.57219-.78609-.44022 1.54074 1.66653.88044z"/><path d="m119.27232 146.1946.88043 2.10673 1.41497-1.10053-.94331-2.04385z"/><path d="m118.95788 143.96208.44022 1.63508 1.28919-.47165-.91187-1.41498z"/><path d="m121.75638 142.67289-1.47786 1.63508.72321 1.19486.62888-.59743.94332-1.94952z"/><path d="m123.83168 143.17599-1.10054-.25155-.53454 1.03764.47166.44022 1.0062-.0629z"/><path d="m122.9827 145.81727-.7861-1.19487-1.16342.91187.59743 1.5722z"/><path d="m124.80644 144.65385-2.04385-.12578.59743 1.72941 1.32064-.0314z"/><path d="m124.46056 146.38326-1.7923-.0629.18866 1.72942 1.69797-.59744z"/><path d="m120.71874 147.95545.47166.91187.40877.15722 1.35208-.81754-.62888-1.60363z"/><path d="m119.96231 148.41457-.41845 1.58415-1.94283.0299.11956-1.31513z"/><path d="m117.92982 146.50164 1.4347.20923.44834 1.46458-2.15205.20923-.0598-.8668z"/><path d="m117.24236 145.00716 1.58415-.50812.53801 1.58414-1.46459.53802z"/><path d="m115.06043 144.6186 1.88304-.32878.50812 1.58414-1.85315.50812z"/><path d="m115.86744 147.757-.0598 1.28525 1.76349-.0299-.0299-1.49448z"/><path d="m117.1228 146.02341.50812 1.34503-1.61403.32878-.53801-1.16569z"/><path d="m115.65822 148.95258-.0598-1.4347-.98636.23912.0897 1.07602z"/><path d="m124.77452 147.30866 1.70371-.53801-.0598-.47824-1.76348.11956z"/><path d="m129.31773 144.97727.0299.65757-2.15204.68746-.23912-1.64392z"/><path d="m124.95386 144.43926-.0299 1.88304 2.06238-.11956-.0897-1.58414z"/></g></svg>