<svg height="91.140396" viewBox="0 0 92.859124 91.140396" width="92.859123" xmlns="http://www.w3.org/2000/svg"><g fill="#fff" stroke="#aaa" stroke-width=".188976" transform="translate(-73.383227 -49.296555)"><path d="m132.10584 49.903571-.13862 4.435873 5.33691.138621-.13862-4.574494z"/><path d="m137.71999 54.408755 4.36657-.06931.20793-3.950699-4.5745-.415863z"/><path d="m147.28485 49.834261-4.64381.970347.48518 3.742768 4.99035-.346553z"/><path d="m153.38417 50.319434-4.85173-.06931v4.02001l3.46552.485173 1.3169-.554484z"/><path d="m158.51315 50.180813-4.43587-.06931-.41587 3.881389 4.85174.207931z"/><path d="m163.71144 50.388745-4.64381-.06931.34656 3.881389 4.57449.06931z"/><path d="m131.41274 49.834261.20793 4.227941-4.64381.138621-.0693-4.366562z"/><path d="m126.35307 50.111503v3.673457l-4.71311.138621-.0693-3.812078z"/><path d="m120.94685 50.319434.27724 3.673458-4.85173-.06931-.27725-3.604147z"/><path d="m115.81787 53.78496.20793-3.812078-4.78242-.138621-.0693 3.742768 2.21793.415863z"/><path d="m110.61958 49.834261-.20793 3.534836-4.99036-.901037.0693-2.70311z"/><path d="m100.36163 49.76495v1.663453l1.94069.346552 2.70311-.06931.0693-2.010005z"/><path d="m99.668522 49.69564.207931 1.802073-4.921046.415863-.415864-2.287247z"/><path d="m94.05437 49.557019v1.802073l.485173.901037-2.079315.693105-2.772421.415863-.173873-3.745353z"/><path d="m89.233004 49.421356-.187202 4.617652-2.184024-.0624-2.683231-.748809v-3.619241z"/><path d="m83.804143 53.914207.124802-4.492851-4.867255-.124801.187202 4.43045z"/><path d="m78.874488 53.914207v-4.368049l-3.244837.0624-1.996822 1.497617v2.745631z"/><path d="m76.877665 58.906263-.312003-4.492851-2.932833-.0624v3.993645l.499205.499205z"/><path d="m76.752864 54.475813.374404 4.368049 4.305649-.312003-.0624-4.305649z"/><path d="m84.740154 58.282256 1.310415-1.435216.374404-2.745631-4.742454.0624-.0624 4.305648z"/><path d="m89.794611 55.786228v-.998411h-3.244837l-.249603 1.934421.436805.312004z"/><path d="m81.183314 59.031064.0624 3.369638 3.619241-3.868843z"/><path d="m80.87131 63.08711v-3.868843l-3.120035-.0624.124801 3.993645z"/><path d="m73.632829 63.149511 3.993645-.499206-.0624-3.494439-4.180847-.0624z"/><path d="m73.944832 68.141567 3.244837.0624v-4.992057l-3.369638.0624z"/><path d="m77.751275 68.141567-.187202-4.680053 3.494439-.249603-2.745631 4.804855z"/><path d="m73.75763 73.071222h2.121624l1.74722-3.806442-.561607-.624007-3.057634-.187203z"/><path d="m79.06169 74.818442-2.371227-.312003-2.246425-1.123213-.748809.87361.436805 4.305648 4.804854-.0624z"/><path d="m78.476308 78.88023-4.039222-.115406-.173109 4.327737 3.866112.115406z"/><path d="m77.495354 88.228143-.0577-4.673957-3.231378-.288515.288516 4.962472z"/><path d="m76.860619 93.594538.519329-4.616254-3.173675-.346219v4.616254z"/><path d="m76.860619 98.845526-.230813-4.673957-2.423533-.230812v4.731659z"/><path d="m76.745213 103.69259-.17311-4.616251-3.058268.0577.461626 4.904771z"/><path d="m76.456697 104.44273-2.481236.17311.519328 4.03922h2.250424z"/><path d="m78.822527 114.02146-1.09636-4.67396h-3.519894l-.461625 3.28908.634735 1.90421z"/><path d="m74.494789 119.15704 1.557986-.63473 2.769752.34621-.288516-4.09692-1.557986-.46163-2.654345.46163z"/><path d="m78.476308 123.48478-.288516-4.38544-2.135017-.28852-1.788798.80785-.115407 3.98151z"/><path d="m78.70712 124.17722-3.808409.1154-.461625 2.76975.346219 2.19273 4.154628-.11541z"/><path d="m74.379383 134.44838 4.327737-.0577-.115406-4.90477h-4.154628z"/><path d="m74.263977 134.8523.173109 4.50085 5.250988-.28852-.346219-4.38544z"/><path d="m83.110018 134.76276-3.533867-.0417.465357 4.36272 3.548352.17451z"/><path d="m87.37089 135.01188-3.141163-.40719-.05817 4.71174 2.850315.23268z"/><path d="m92.489824 135.36089-4.479067-.58169-.407188 4.53723 5.235273.52353z"/><path d="m97.783267 135.36089h-4.595406l-.17451 4.30456 4.809774.0738z"/><path d="m103.4981 140.02023v-4.32646l-5.169284-.16857-.05619 4.27028z"/><path d="m83.774039 129.61889-4.749395-.32982-.131927 4.68343 5.409032.32982z"/><path d="m84.433677 129.88274.263855 4.41958 4.089756.39578v-4.94729z"/><path d="m89.710782 131.13605-.06596 3.62801 2.968371.46175.06596-2.77048z"/><path d="m93.206863 132.58726-.197891 2.50662h4.683431v-.7256z"/><path d="m88.457469 129.2231-4.287647-.066-.197892-3.8259z"/><path d="m83.576147 129.2231-4.353611-.39578-.131928-4.68343h3.562046l.989457.7256z"/><path d="m79.156572 118.53697.06596 5.21114 4.221684.19789z"/><path d="m103.893 135.88545.066 4.22168 4.88133-.26385-.19789-3.75994z"/><path d="m113.72161 136.28123-.066 3.89187-4.61746-.26386-.066-3.89186z"/><path d="m118.80082 136.01738-4.41957.13192.066 4.08976 4.41958.19789z"/><path d="m124.14389 136.21527-4.94729-.066.066 3.62801 5.14518.26386z"/><path d="m129.421 138.524-.26386-1.58313-4.88132-1.18735.52771 3.75994 2.70451.066z"/><path d="m134.63214 137.99629-4.88133-.65964-.26385 2.24277 4.15572.7256 1.12138-.65963z"/><path d="m140.43695 137.99629-5.01325.19789-.066 1.58313 5.07921.52771z"/><path d="m145.58213 136.87491-4.81536 1.12138.13193 2.44066 4.88132-.13193z"/><path d="m145.78175 136.42641.47114 3.90367h4.77862v-3.43253z"/><path d="m151.90647 140.26278 4.50941-.33653-.40383-3.83636-4.50941.80766z"/><path d="m161.46372 136.49372-4.5094.26922-.20192 3.0287 4.71132.47114z"/><path d="m165.97313 135.61876-3.97097-.0673-.40383 4.64402 3.83636.20192z"/><path d="m166.10774 130.3017-3.90367.13461-.20191 4.57671 3.70175-.0673z"/><path d="m161.46372 136.02259.26922-4.98054-4.64402-.0673-.0673 5.24976z"/><path d="m161.93486 129.96517 3.97097.0673.0673-4.71132-3.97097-.20192z"/><path d="m165.77122 124.78272-.33653-3.36523-3.49983-.26922.20191 3.56714z"/><path d="m165.77122 115.89851-3.76906-.13461-.13461 5.11515h3.43254z"/><path d="m162.27138 115.42738h3.36523l-.20192-4.98054-3.16331.20191z"/><path d="m166.04044 110.24493-.20192-5.11515-3.90366.20191.47113 5.04785z"/><path d="m166.04044 104.79325.20191-4.17288-4.4421-.0673-.20192 3.97097z"/><path d="m166.10774 100.28385-.26922-4.711325-4.71132.201914.33652 3.970971 1.4134.60574z"/><path d="m165.83852 95.168697-.13461-4.644017-2.69218.0673-1.81722.942264-.94227 3.769058z"/><path d="m165.5693 89.918939.0673-4.240189-2.42297-.0673-1.68261 2.894098v1.076873z"/><path d="m165.502 85.140313-.25422-5.307275-1.90953.146887-.95477 5.141042z"/><path d="m165.24731 74.118691.27886 4.796243-2.4539.334622-.33462-4.907784z"/><path d="m165.24731 73.672529-.0558-4.907784-2.56543.167311.11154 4.852013z"/><path d="m164.74538 68.262812.11154-3.569297-5.13086.167311.16731 3.290446z"/><path d="m165.02423 64.414664.11154-4.517392-5.74433.11154.22308 4.517392z"/><path d="m160.22799 54.933717-.11154 4.573163 4.46162.11154-.11154-4.796243z"/><path d="m104.6808 131.61784.39039 3.95969 4.57316-.0558-.27885-4.127z"/><path d="m109.92321 131.45053v4.35008l5.01932.0558.0558-3.06736-2.34235-1.39426z"/><path d="m115.27715 132.17554v3.62507l5.0751-.16731.39039-.61347z"/><path d="m104.06733 131.61784.61347 3.95969-4.51739-.61347.5577-3.90392z"/><path d="m96.928732 129.72165-1.561568 2.95583 4.517392 2.39812.613474-3.79238z"/><path d="m90.738232 130.55821 4.294311 2.11927 1.673108-3.17891-4.07123-2.34235z"/><path d="m89.183841 124.68657-2.623054 2.37905 3.721077 2.86706 1.95204-2.80606z"/><path d="m89.061839 124.25957-2.440051-2.37905-3.172065 1.70803 2.684055 2.80606z"/><path d="m86.072777 121.63651-2.44005-3.84308-1.403029 1.03702-2.074043.12201 2.684055 3.96508z"/><path d="m82.168696 113.58434.305007 4.5751-3.172066-.24401-.610012-3.53807z"/><path d="m82.272016 113.13151-.299606-3.53536-3.715124.17977.719056 3.95481z"/><path d="m81.55296 104.26315.599214 5.15324-2.21709-.29961v-4.91355z"/><path d="m79.995005 103.36433 2.037326.0599.359528-2.51669 1.31827-2.696464h-2.63654l-.838899 2.097244z"/><path d="m83.530365 97.791647 1.677798-2.936147-.119843-1.79764-4.43418-.05992.05992 4.613945z"/><path d="m80.893825 88.923287v3.415517l4.43418.539292.179764-4.074652z"/><path d="m81.193432 87.844702 4.43418.539292.599214-3.475438-4.43418-.838899z"/><path d="m81.672803 83.530365 4.973472.958741.659135-4.853629-4.254416 1.078584z"/><path d="m88.024466 80.833904-.838899 3.775045 4.314338 1.138506z"/><path d="m90.601084 86.466511-1.917483 4.673866-2.936146-1.018663.539292-5.153237z"/><path d="m91.080455 86.766118 2.097248 2.456775-3.775046 2.576618.479371-2.816303z"/><path d="m86.047062 90.960613 3.175831.89882-3.595281 3.295674z"/><path d="m78.197365 69.269083-1.857562 4.194495 3.055989 1.078584 1.557955-3.175832z"/><path d="m81.133511 70.767117 2.21709-3.834967-2.996068-2.396854-2.097247 4.074652z"/><path d="m83.230758 66.512701 2.097247-3.235753-2.21709-2.516697-2.396854 3.595281z"/><path d="m85.507769 62.677734 2.816304-2.456775-1.617876-2.696461-3.115911 2.816304z"/><path d="m90.061792 55.966543-3.175831 1.258348 1.737719 2.816304 2.576618-1.018663z"/><path d="m95.729889 57.615622-.444222-2.576489-4.442223.621911.621911 3.509356z"/><path d="m95.907578 55.1724.133266 2.3988 3.153978.133267 1.686228-.677492-.16674-1.95926z"/><path d="m101.50635 57.610585 5.25248 1.208905.29181-2.709615-3.00142-.958787-2.58456.291805z"/><path d="m107.75931 56.943603-.37518 1.95926 4.75225 1.95926 1.00047-3.293225-3.62672-.792041z"/><path d="m118.59777 60.236827-4.83562-2.251065-1.2506 2.501183 3.87684 3.293225z"/><path d="m119.01463 64.738957 3.91852-.917101.33349-1.042159-4.25201-2.167692-2.25106 3.543342z"/><path d="m126.80998 66.239667.50024-2.709616-1.45902-.583609-2.37613-.125059-.37517 4.877307z"/><path d="m119.22306 65.072448.79204 4.752248 1.16722.541923 1.70914-2.667929-.16674-3.293224z"/><path d="m122.09942 54.233988-.0417 3.543342-4.41876-1.750828.0834-1.792514z"/><path d="m117.2638 54.150615-.0417 1.625769-3.58503-1.417337z"/><path d="m127.35191 54.31736-4.919-.166745.37518 4.710561 4.71056-.08337z"/><path d="m127.81046 59.361413 4.00189-.291805-.16674-4.502129-3.96021-.12506z"/><path d="m136.98146 57.944076-.20843-3.293225-4.71056-.04169.0834 4.001893z"/><path d="m137.31495 54.650851.16675 3.45997 4.54382-.875414-.0417-2.792988z"/><path d="m146.06909 57.693958-.20843-3.043107h-3.12648l-.45855.917101-.13971 1.884097z"/><path d="m146.30259 57.834497 2.78093 1.955336 2.25949-2.302951-4.08448-2.607115z"/><path d="m152.60312 62.136236 2.08569-2.259499-3.21544-2.389855-1.65117 2.476759z"/><path d="m157.68699 63.005275-2.78092-2.824375-1.95533 2.085692 1.60772 2.04224z"/><path d="m157.64354 63.570149 1.73808 2.607115.21726.955942-2.99818.869039-1.34701-1.433914-.52143-1.781528z"/><path d="m151.51682 57.00891v-1.998788l-3.60651-.391067z"/><path d="m155.5144 54.619055-.21726 4.866615-3.08509-1.868433.39107-3.041634z"/><path d="m159.94649 54.749411-.1738 4.77971-4.08448-.217259.13035-4.866614z"/><path d="m155.77511 60.007093 3.47615.391067.17381 4.518999z"/><path d="m160.1203 72.21708-.56487-4.258287-2.95473.217259.69523 4.345192z"/><path d="m160.0334 72.868859-2.69402.782134.52142 3.38925 2.43331-.347616z"/><path d="m160.59827 77.865829-2.95473-.130356-.52142 3.780317 2.78092.521423z"/><path d="m156.86141 81.776501-1.56427 4.388643 3.3458.608327.91249-4.518999z"/><path d="m156.94831 91.770441 1.39046-4.432095-3.30234-.825586-1.60772 4.345191z"/><path d="m156.7745 92.291864-1.69462 4.562451-2.73747-1.303557.65178-4.345192z"/><path d="m153.168 90.249624-1.39047-.260711-1.69462 2.476759-1.21665.869038 2.30295.521423 1.21665-1.564269z"/><path d="m154.25429 96.941219-.65178 2.259499.0435 2.433312-3.64996-1.60773 1.95533-3.997571z"/><path d="m150.9085 97.20193 1.347-2.302951-1.43391-.825586-3.30234.0869-.91249.91249z"/><path d="m150.64778 97.853709-1.86843 2.867831-2.86782-1.347014 1.39046-3.128538z"/><path d="m148.43174 101.06915-.60833 3.3458-1.47737-1.26011-1.347-2.04224-.0435-1.04284z"/><path d="m149.04006 100.80844 2.82438.30416 1.95533 3.12854-5.34458.30416z"/><path d="m145.12939 99.722141 1.91189-3.693412-1.39047-1.260106-2.60711 1.042846 1.52082 3.606509z"/><path d="m161.03279 105.5447.73868 4.73626h-3.08508l-.69523-4.60591z"/><path d="m157.64354 105.41434 3.78032-.0869-.21726-4.77971-4.04103.0434z"/><path d="m161.1197 100.28702-.21726-4.649358-1.43392-.0869-1.91188 4.649348z"/><path d="m159.12091 110.67202 2.86782.0435.21726 4.56245h-2.73747z"/><path d="m159.90304 115.92971-2.04224 4.38864 3.73687.43452.0435-4.77971z"/><path d="m161.42386 125.70639.17381-4.47555h-4.519l.30416 4.30174z"/><path d="m161.55421 126.18436-4.25828-.26071-.0869 4.38864 4.34519.17381z"/><path d="m153.42871 135.61342 3.25889.21726.21726-2.08569-.78213-2.78092-2.60712.0435z"/><path d="m148.30138 136.2652 2.65057.30416 2.30295-.30416-.13036-3.78032z"/><path d="m148.99661 135.22235 3.38925-2.47675-.99939-1.21666-3.47616 1.65117z"/><path d="m152.51622 128.83492-.0869 1.91189 4.34519-.0869-.0869-1.82498z"/><path d="m152.1686 128.3135h4.73626l-.13036-4.73626-2.47676 2.65057-2.30295 1.47736z"/><path d="m147.77996 132.7456 3.95412-1.69463.13036-2.47676-.39107-.69523-4.82316 2.08569z"/><path d="m141.60979 130.61645 1.08629 3.2589 4.64936-1.04285-1.04285-2.99818z"/><path d="m137.26459 130.61645-.34761 3.56306 5.34458.0869-1.04284-3.60651z"/><path d="m131.26823 133.44083 1.39046.78213 3.69341.26071.65178-3.5196-4.6928-1.39046z"/><path d="m130.39919 133.74499 1.47737-4.08448-4.86662-1.69462-1.34701 4.12793z"/><path d="m126.57542 127.40101-4.30174-1.26011-1.78152 4.56246 2.65056.99939 2.60712-1.34701z"/><path d="m118.62372 124.27247-2.86782 3.78032 4.34519 2.56366 1.86843-4.25829z"/><path d="m124.45976 125.90403-3.14128-3.57456-1.73312 1.6248 3.28571 2.1664 1.11931.25275z"/><path d="m121.10184 122.07672-2.74411-4.22448-3.35792 2.02197 3.71899 3.86342z"/><path d="m113.80829 119.94643-2.05808 3.86341 1.01099.75824 3.50234-2.708z"/><path d="m116.5524 122.00451-3.7551 2.88853 2.56358 2.85243 3.03296-3.68288z"/><path d="m117.25522 77.945197-.56238-4.217814-3.93662 1.57465 1.40594 3.318014z"/><path d="m113.88097 79.238659-1.91208-3.318013-3.54296 2.474451 2.02455 3.036826z"/><path d="m107.97603 78.563809-2.30574 1.743363 2.13703 3.036826 2.36197-1.57465z"/><path d="m105.27663 80.925785-3.31801 3.318013 3.37425 2.361976 2.13702-3.036826z"/><path d="m103.64574 88.855275.84356-2.530689-3.26177-2.47445-1.237227 3.880388z"/><path d="m98.303177 82.050535-1.7996 4.555239 3.093063 1.237225 1.3497-4.217813z"/><path d="m102.07109 83.287761 2.02455-2.137026-2.75564-2.080788-2.811873 2.2495.731088.843563z"/><path d="m106.17643 75.358271-4.16158 2.02455 1.68713 2.868114.56237.731087 3.5992-2.643163z"/><path d="m108.14474 77.945197 3.93663-2.474451-1.40594-2.755638-3.09306.731087-1.40594 1.349701z"/><path d="m110.84414 71.702832 1.3497 3.149301 4.89267-1.462175-1.16813-2.890237z"/><path d="m103.17032 93.327637.29076 3.318316-3.649046.05366.05915-3.421233z"/><path d="m99.241633 93.358753.409244 3.120484-3.683194.153467-.613866-3.17164.818488-.460399z"/><path d="m100.3159 100.36705-3.427419.51156-.818487-3.990129h3.529728z"/><path d="m103.02714 96.990792 1.07426 2.250841-3.37626 1.841597-.76733-3.734349z"/><path d="m104.20372 100.21359 2.4043 3.37626-3.22279 1.8416-1.99507-3.27395z"/><path d="m98.269679 105.58491-1.483509-4.39937 3.47857-.51155 1.79044 3.37626z"/><path d="m106.45456 103.94794 2.81355 2.14853-1.73929 3.22279-3.58088-2.71124z"/><path d="m104.40834 108.04038-3.17164 2.45546-1.432356-1.17658-1.432354-2.66008 3.32511-2.302z"/><path d="m106.91496 109.83082-1.63698 3.52973-3.01817-1.8416 2.19968-3.17164z"/><path d="m113.00246 108.7054-1.22773 3.06933-3.6832-1.8416 1.27889-3.27395z"/><path d="m113.82095 109.42157 4.60399 1.94391-1.89275 3.06933-4.45053-2.25084z"/><path d="m107.06842 110.0866-1.58582 3.68319 3.12049 1.73929 1.84159-3.47858z"/><path d="m110.80277 111.92819 4.34822 2.14853-2.91586 2.7624-3.42742-.9208z"/><path d="m122.21044 109.67735 3.58089-.76733.76733 3.93897-3.88782 1.07427z"/><path d="m128.75835 107.7846 2.55777 3.52973-4.09244 1.89275-1.07426-4.45053z"/><path d="m134.94816 108.14269-3.06933-3.27395-2.71124 2.19968 2.55777 3.78551z"/><path d="m137.50593 104.25487-4.04128-2.35315-1.3812 2.81355 3.47858 2.7624z"/><path d="m134.99931 99.292789-.86964 2.557771 3.58089 1.8416 1.17657-3.17164z"/><path d="m138.78482 99.804344.56271-4.092439-1.58582-.255777-1.79044 1.074265-.81849 2.404308z"/><path d="m141.54722 104.97105.61386-.81849-1.48351-5.064393-1.43235 1.176573-.97195 2.81355z"/><path d="m139.65446 107.93807 2.09738-2.71125-3.42742-1.84159-1.53466 2.66008z"/><path d="m137.35247 111.00739 2.4043-2.71124-3.12048-2.09737-1.53466 2.19968z"/><path d="m136.78976 111.82588-3.78551 3.06933-2.14853-3.22279 3.6832-2.7624z"/><path d="m132.59501 115.2533-2.09738-3.37626-3.68319 1.99506 1.8416 3.2228z"/><path d="m127.78639 117.35067-1.27889-4.34821-3.88781 1.02311-.10231 2.25084 1.12542 2.40431z"/><path d="m135.10163 88.652449 1.02311 3.836661 4.65514-.511555-1.22773-4.348216z"/><path d="m143.18419 86.708541-3.42742 1.023109 1.53467 4.603993 3.73435-.971954z"/><path d="m142.92841 86.043519-2.35315-4.552838-3.22279 1.739287 2.25084 4.092438z"/><path d="m136.78976 82.97419 2.55777 4.297061-3.99013.869643-2.09737-3.069329z"/><path d="m136.07358 82.360325-3.17164-2.864707-2.40431 2.71124 2.66009 2.660085z"/><path d="m136.78976 82.564947 3.12048-2.250842-2.60893-3.376261-1.48351-.153467-2.45546 2.455463z"/><path d="m132.79963 78.932907 2.91586-2.967017-1.12542-.665022-3.7855-1.892753-1.33005 3.325107z"/><path d="m128.14448 76.988999-1.89275 2.557774 4.09244 2.455463 2.04622-2.915862z"/><path d="m128.8095 76.937844 1.48351-3.836661-4.39937-1.483509-.76733 3.580883z"/><path d="m126.04711 79.290996 1.79044-2.404308-2.96702-1.483509-2.50662.358089.51156 2.967017z"/><path d="m124.92168 74.94278.71618-3.273951-.97195.05116-1.99507 2.250841-.20462.665021z"/><path d="m121.28965 93.05182 2.8647.05116.0512 3.73435-2.81355-.102311z"/><path d="m124.30782 93.102976.20462 3.427417 3.37626.255777.56271-.869643-.10231-2.660085-1.3812-.818488z"/><path d="m123.94973 92.437954 4.09649-.466178-.20064-1.92611-1.12356-1.04331-2.6484.08025z"/><path d="m123.09991 92.679647-.0567-4.02955-4.54034.05675v3.689025z"/><path d="m117.65151 88.706851.17026 4.086304-4.02955-.510788-.0568-3.689024z"/><path d="m113.50845 88.706851.11351 3.121482h-2.55394l-.11351-1.645872 1.75938-1.645873z"/><path d="m121.22702 88.42308 2.83771.170263 2.21342-.567543-2.15666-1.702626-2.55394.05675z"/><path d="m120.82974 88.309572-.11351-2.213415-1.30534-.567542-1.30535.794559.0567 1.759381z"/><path d="m117.93528 87.969046-.0568-2.383677-1.58912.227017-2.7242 1.589118-.39728.681051z"/><path d="m117.08396 92.963418v3.575516h-3.63227v-3.802533z"/><path d="m113.22468 92.793155-2.49719-.227017-.0568 3.745779 2.55394.227017z"/><path d="m110.50047 97.049722 3.9728-.283771.28377 4.143059-1.02158-.0568-3.23499-3.348494z"/><path d="m118.95685 96.709197.39728 3.916043-4.19981.22701-.51079-3.348494 2.7242-.851314z"/><path d="m123.32693 100.7955-.22702-3.802532-3.80253-.170263.28377 3.689025z"/><path d="m127.697 97.56051-2.66745 3.68902-1.41885-.28377-.34053-4.029546z"/><path d="m118.95685 101.02252-4.76735.34052.51079.79456 2.38367.85132h2.15666z"/><path d="m123.21342 101.76032-.22702-.79456h-3.68902l.11351 1.9864 1.24859.22702z"/><path d="m121 93.076926.17027 3.518762-3.74578-.283771-.11351-3.291745 1.02158-.227017z"/><path d="m145.41215 90.905929 3.35998-2.239982-1.49332-3.546638-3.91997 1.213324z"/><path d="m147.09214 83.999319-2.33331-4.573297-3.73331 1.773319 2.51998 4.573296z"/><path d="m144.57216 78.959359-2.42665-3.919968-3.54663 2.333315 2.14664 3.453305z"/><path d="m141.02552 75.132724-3.91997-2.706645-2.23998 2.426647 3.63997 2.426647z"/><path d="m135.7989 71.492753-3.07998-1.399988-.46666 3.453305 2.14665.933326z"/><path d="m131.87893 73.266072.37333-3.079975-1.49332-.653328-3.82664 1.959984z"/><path d="m149.51879 88.479282 3.35997-4.479963-3.82664-1.399989-1.58665.466663.83999 3.359972z"/><path d="m150.82544 81.386006-2.42664-3.733303-2.23999 2.053317 1.30666 3.079975z"/><path d="m148.3988 77.279373-2.23999-3.359973-3.1733 2.053317 2.14665 3.359973z"/><path d="m145.69215 73.266072-3.17331-3.359972-2.89331 2.053316 3.63997 3.26664z"/><path d="m140.65219 74.666061.93333-.466663-2.33332-2.426647-.55999.653328z"/><path d="m137.10555 67.38612-2.33331 2.89331 3.17331 2.239982 3.35997-2.986643z"/><path d="m134.30558 69.999432 2.42664-2.89331-4.29329-2.146649-2.61332 3.63997z"/><path d="m148.49212 69.532767-2.61331 3.079975-4.0133-3.453305 2.61331-2.986643z"/><path d="m138.22554 67.292785 3.45331 1.866652 1.67998-2.51998-2.79998-2.986642z"/><path d="m137.57221 67.10612 1.49332-2.799977-4.47996-2.89331-1.39999 3.546638z"/><path d="m144.66549 65.146136 2.70664 3.079975 2.79998-3.079975-2.98664-2.799977z"/><path d="m133.65224 62.346159-4.10663.839993 2.98664 1.773319z"/><path d="m143.2655 66.266127 3.4533-3.826636-3.82663-1.679986-1.86665 2.706645z"/><path d="m136.17222 62.066161 3.35998 2.146649 2.51998-2.706644z"/><path d="m151.0121 71.586083 2.23998-1.959984-2.98664-3.826635-2.23998 2.426647z"/><path d="m151.66543 74.292728-3.07997 2.799977 2.14665 3.079975 3.26664-2.053316v-1.306656z"/><path d="m151.66543 82.319329 2.33332-.37333-.18667-2.986642-2.61331 1.306656z"/><path d="m148.77212 70.186095-2.61331 2.519979 1.67999 3.173308 2.98664-3.826636z"/><path d="m153.62542 70.279427-2.23999 1.773319 1.11999 2.239982 1.67999 2.146649v-5.133291z"/><path d="m148.86545 76.53271 2.98665-2.613312-.74666-1.399989-2.79998 3.359973z"/><path d="m123.38566 68.412776 2.23998 2.519979 3.73331-.839993-1.39999-3.173307z"/><path d="m129.54561 68.132778 2.51998-3.173307-2.89331-1.773319-1.86665 1.119991-.18667 2.239982z"/><path d="m124.78565 71.399418-1.95998-2.893309-1.30666 2.146649-1.30666.09333 2.33332 3.079975z"/><path d="m114.14574 67.666115 5.03996-1.399988 1.02665 5.319956z"/><path d="m119.1857 75.132721.65332-3.359972 2.51998 1.586653-.0933 2.053317z"/><path d="m118.81237 71.399418-1.86666-.653328.28 2.706645v1.679986l1.30666-.279997z"/><path d="m117.31904 75.319386 4.75997.186666-.37333 3.079974-4.10664.186666z"/><path d="m162.58534 73.172737-.18666-4.573296-2.61332-.186665.74667 5.133292z"/><path d="m162.67867 74.01273.28 5.133292-2.05331-.279998-.56-5.133291z"/><path d="m160.62536 79.519352-1.02666 4.013301 2.70664.933326.74667-4.386631z"/><path d="m161.09202 89.412605 1.21332-4.946626-2.51998-.559996-1.21332 3.919968z"/><path d="m159.78536 93.145908 1.02666-3.639971-2.33331-1.493321-1.21332 3.826636z"/><path d="m158.29204 97.812536 1.86666-4.293298-2.98665-1.399988-1.77332 4.759961z"/><path d="m157.07872 101.7325-.18666-1.39998 1.21332-2.053321-3.54664-1.399988-.74666 2.519979-.0933 2.05332z"/><path d="m157.26539 105.65247-.28-3.35997-3.63997-.65333.55999 3.63997z"/><path d="m155.39873 110.41243 3.17331.37333-.55999-3.4533-3.26664.37333z"/><path d="m150.82544 108.82578 3.63997-.37333-1.21333-3.91997-3.26664.18667z"/><path d="m157.73205 107.14579-.46666-1.58665-3.17331-.37333.46666 2.61331z"/><path d="m149.51878 109.10578.56-4.10664-2.89331-.27999-.93333 3.35997z"/><path d="m158.94537 110.5991-3.63997.28.37333 3.4533 3.35997-.28z"/><path d="m136.07889 96.225883 2.23998-1.493321-.93332-2.053317-1.77332.09333z"/><path d="m142.79884 92.49258-1.39999.186665-3.07998-.09333.46667 3.079975.74666-.09333 3.82663-.186665z"/><path d="m145.78548 91.465922-2.61331.559995.55999 3.079975 4.38663-1.306656z"/><path d="m149.05212 89.039275-3.26664 2.239981 2.42665 2.613312 2.98664-3.453305z"/><path d="m157.45205 76.999373-.55999 4.666628-2.61332.09333.18667-4.479964z"/><path d="m156.61206 82.039332-1.67999 4.106633-2.79998-.559996 2.51998-3.919968z"/><path d="m153.43875 89.59927 1.30666-3.26664-2.70665-.653328-2.05332 3.079975z"/><path d="m142.89217 96.039218h-3.17331l.65333 2.986642 2.70664-.186665z"/><path d="m144.01216 98.65253-2.89331 1.026658 1.49332 4.946622 2.98664-2.05331z"/><path d="m147.09214 104.25248-1.12-1.11999-3.35997 2.05332 2.70665 2.14665z"/><path d="m154.37208 76.439377 3.26664-.09333-.74666-4.759962-2.51998.279998z"/><path d="m154.83874 71.399418 1.77332-1.213323-.18667-1.866652-1.30665-1.399988-2.23999 1.679986z"/><path d="m150.26544 65.332801 2.33332 2.706645 2.05331-1.586654-.27999-1.679986-1.77332-2.14665z"/><path d="m148.86545 60.106177-1.77331 2.053317 2.8933 2.426647 2.05332-2.51998z"/><path d="m143.17217 60.57284 3.7333 1.586654.93333-1.399989-.0933-1.679986-1.77332-1.119991-3.26664-.279998z"/><path d="m138.03888 61.506166 4.29329-.373331.0933-3.453305-4.8533.653328z"/><path d="m133.18558 61.412833 4.38663-.559995-.28-2.799978-4.47996.559996z"/><path d="m128.70562 62.906154 4.38663-.653328-.65333-2.799977-4.5733.186665z"/><path d="m123.47899 59.079519h3.91997l.28 4.106633-2.14665-.839993-1.95998.186665z"/><path d="m122.82567 62.159494-.18667-3.733303-3.26664-1.399989-1.21332 2.51998z"/><path d="m114.70573 58.239526 2.98664 1.306656 1.39999-2.706645-3.1733-1.213324z"/><path d="m109.94577 56.559539 4.2933 1.119991.83999-2.333314-4.19996-1.586654z"/><path d="m105.27914 55.252883 3.82664 1.306656 1.39999-2.799977-4.66663-1.119991z"/><path d="m105.09248 51.986243h-4.8533v2.799977l4.47997.186665z"/><path d="m99.959186 51.799578-4.759962.279998.279998 2.799977 4.386631-.09333z"/><path d="m94.732562 52.452906-2.333315.746661-2.053316.186665.74666 1.959984 3.733303-.466663z"/><path d="m111.90576 65.146136 2.23998 1.866651 4.38663-1.866651-2.23998-.839993-2.70665-2.51998z"/><path d="m107.61246 63.092819 2.33331 1.399989 2.14665-.559996 1.11999-2.426646-4.0133-1.586654z"/><path d="m94.639229 58.426191.559995 3.546637-3.733302 1.493322-.746661-3.639971z"/><path d="m99.772521 57.959528h-4.199966l-.373331 2.706644 1.773319 1.213324 3.826637-.559996z"/><path d="m103.41249 61.132835-1.02666-3.173307-2.14665-.186665.74666 3.546637z"/><path d="m108.73245 59.732847-2.51998-.746661-2.79998-.74666.18667 2.986642 3.54663 1.866651z"/><path d="m89.039275 65.706131 1.866651-3.079975-.279998-1.586653-1.959984-.839993-2.519979 2.426646z"/><path d="m83.625985 67.199453 2.333315 1.306656 2.333314-3.173308-2.519979-2.239982z"/><path d="m84.185981 71.866081 2.239982-3.26664-3.079975-.933326-2.053317 3.546638z"/><path d="m81.292671 85.305972.37333-2.89331 1.026659-1.959984-4.106634-1.213324-.466662 5.506622z"/><path d="m94.919227 83.905983-3.639971 1.399989-2.239981-3.546638 4.666628-.933326z"/><path d="m85.679302 75.226054-2.613312-.186665-1.026658 1.773319.74666 3.733302 2.799977-1.11999z"/><path d="m88.945942 74.852724-2.986642 1.586653v3.079975l1.586653-.09333 3.826636-2.799978z"/><path d="m93.519238 79.519352-2.146649-2.519979-3.079975 3.359972.746661 1.306656z"/><path d="m82.319329 80.079348-.653328-4.106634-2.519979-1.213323.09333 3.919968z"/><path d="m84.465979 72.146079-2.14665 3.733303-2.333314-1.213324 1.306656-3.173307z"/><path d="m93.892568 89.412605 2.613312-2.986642-1.399988-2.053317-4.013301 1.866651z"/><path d="m98.185867 91.839252 2.239983-3.733303-4.106635-.933326-2.053316 2.51998z"/><path d="m103.31916 92.585912.18666-3.26664-2.98664-.74666-1.773318 3.173307z"/><path d="m96.50588 85.679302.933326-2.706645-2.706644-1.959984-.559996.466663z"/><path d="m97.532539 82.505995 2.333314-3.453306-3.079975-1.773319-1.866651 3.359973z"/><path d="m103.13249 75.879382-1.86665-2.333314-2.426645 1.213323-1.493321 2.146649 2.893306 2.053317z"/><path d="m106.11914 74.106063-1.39999-3.173308-3.07998 2.426647 1.67999 2.333315z"/><path d="m110.3191 71.772749-.74666-3.546638-4.5733 2.239982 1.49333 3.359972 1.58665-1.119991z"/><path d="m110.8791 71.399418 5.69328-1.493321-3.26664-2.986642-3.26664 1.493321z"/><path d="m107.79912 68.599441 5.31996-2.239982-4.10663-2.146649-2.89331 1.213324z"/><path d="m103.69249 70.559425 2.51998-1.586654.18666-2.613312-.65332-.839993-3.91997 1.866652z"/><path d="m103.13249 71.306086-1.77332-3.546638-2.799973 1.586654-1.306656 2.146649 2.146649 2.146649z"/><path d="m96.692546 76.999373 2.239981-3.26664-2.519979-2.426647-2.51998 2.519979.09333.933326z"/><path d="m96.319215 77.652701-2.799977-2.053317-1.493321 1.679986 2.426647 3.453306z"/><path d="m101.35917 67.386118-2.146645-3.453306-3.63997 1.959985 2.799977 3.453305z"/><path d="m100.98584 61.599498-4.386627.933326 1.213323 1.866651 4.106634-2.146649z"/><path d="m102.10583 66.826122 5.03996-2.426647-.83999-1.399988-3.17331-1.399989-2.89331 2.146649z"/><path d="m97.532539 64.586141-2.146649-2.51998-4.106634 2.706645 2.426647 2.986642z"/><path d="m94.452564 72.612742 3.546638-3.079975-2.51998-2.89331-3.733303 2.89331z"/><path d="m91.559254 76.15938 2.613312-3.26664-3.173307-2.613313-2.51998 3.079975z"/><path d="m87.545953 73.452735 3.266641-3.26664-4.013301-1.866652-2.146649 3.826636z"/><path d="m93.332573 68.039446-2.613312-3.079975-2.706645 1.493321-.933325 1.306656 4.106633 2.239982z"/><path d="m87.825951 74.199396-2.986642-1.586654-1.679986 2.426647 2.893309-.466663.186665.933326z"/><path d="m77.652701 85.212639v4.293298l3.079975.653329-.09333-1.586654.559995-2.799977z"/><path d="m80.17268 95.852552.466663-5.133291-3.079975-1.119991-.466663 4.666629z"/><path d="m79.986015 99.959186.746661-1.866652-.373331-2.053316-2.613312-1.119991-.653328 2.519979-.09333 1.399989z"/><path d="m79.706017 104.06582.373331-3.82664-3.453306-1.119987.373331 4.386627z"/><path d="m79.612685 109.38578.09333-4.2933-2.986642-1.02666.466663 4.75996z"/><path d="m93.892568 89.785935-2.333314 1.119991 2.333314 3.359973 3.453306-2.333315z"/><path d="m93.23924 94.265899-1.959984-3.173308-3.546637 2.51998 2.986642 2.986642z"/><path d="m84.279313 97.065876 2.613312 2.239982 3.733303-2.613312-3.26664-2.51998z"/><path d="m84.932641 103.22583 2.333315-2.79998-3.173308-2.613314-1.493321 3.453304.09333 1.21333z"/><path d="m82.039332 106.67913 2.893309.0933-.279997-3.1733h-2.89331z"/><path d="m82.132664 107.61246 2.986643-.84 1.026658 2.98665-1.026658 1.77331-2.706645-.0933z"/><path d="m82.879325 117.87904 3.079975-2.23998-.373331-3.7333-3.26664.18666z"/><path d="m91.465922 121.89234-2.706645-2.79998-2.146649 2.23998 2.893309 2.98665z"/><path d="m84.092648 117.69237 2.146649 3.63997 2.239982-2.51997-2.333314-2.51998z"/><path d="m96.785878 129.17228 1.773319-2.89331-4.293298-2.23998-1.586654 2.79998z"/><path d="m89.692603 124.41232 2.706644 2.51998 1.586654-2.79998-2.333314-2.14665z"/><path d="m100.51918 130.9456.56-3.54664-2.333318-1.11999-1.493321 2.98664z"/><path d="m107.14579 127.86562-5.59995-.55999-.56 3.54664 3.45331.46666 2.89331-.28z"/><path d="m112.74575 131.03893-3.63997-3.7333-1.67999.83999.46666 2.98665z"/><path d="m142.89217 134.11891 4.66663-1.11999 1.11999 2.42664-2.98664.74666-1.67999.56z"/><path d="m138.50554 137.75888 4.57329-.56-.74666-2.51998-4.38663-.18666z"/><path d="m129.35895 133.65224-.46667 2.98665-4.10663-1.11999 1.11999-3.17331z"/><path d="m130.85227 133.65224-.46667.56-.74666-.37333-.0933 2.89331 4.10663.74666-.18666-2.89331z"/><path d="m138.13221 137.75888-.37333-2.98664-3.91997-.37333.18666 3.07997z"/><path d="m125.43898 132.34559-2.33332-.28-2.05331-.83999-1.30666 2.89331 4.10663 1.95998z"/><path d="m116.75905 128.79895-1.58665 2.89331 4.10663 2.23998 1.30665-2.89331z"/><path d="m112.93241 125.62564-2.33331 2.79998 3.91997 2.98664 1.77332-2.51998-1.30666-.93332z"/><path d="m110.0391 127.67896 2.70665-2.42665-1.30666-1.39999v-.74666l-2.70664-1.21332.0933 3.35997z"/><path d="m113.39908 120.11902-2.61332-2.05332-1.86665 3.17331 2.79998 1.95999z"/><path d="m113.86574 115.73239-2.42665 1.95998 3.07998 2.33332 2.61331-1.95999z"/><path d="m120.02569 115.82572-2.51998-2.51998-.65333 1.39999-1.39999-.55999-1.30665 1.21332 3.4533 2.70664z"/><path d="m122.45234 114.42573-.74666-4.94662-3.26664.37333.18666 1.77332-.37333.65333.83999 2.51997z"/><path d="m92.11925 98.932527 3.733302-.653328-.279997-1.586653-.746661-2.799978-2.146649 1.026659-1.493321 1.586653z"/><path d="m91.652587 99.305858-.559996-2.51998-4.0133 2.613312.559995.93333z"/><path d="m93.425906 103.22583 3.079974-.74666-.933325-3.733308-3.26664.373331z"/><path d="m88.292614 104.99914 4.853294-1.21332-1.306656-3.7333-2.799977.28-2.053317.65332z"/><path d="m94.639229 106.67913 3.453305-.93332-1.493321-2.89331-2.706645 1.11999z"/><path d="m90.532596 109.38578 3.826635-2.05332-.933325-3.54664-4.573297 2.05332z"/><path d="m88.199281 105.74581-1.586653-3.35998-1.493321 1.30666.09333 2.70664z"/><path d="m89.039275 106.5858-3.359973.74666 1.959984 4.10663 2.706645-1.67998z"/><path d="m96.225883 110.0391 2.706644-1.95998-1.026658-1.86665-3.453305 1.11999z"/><path d="m99.959186 114.79906 2.426644-3.07997-3.639968-3.07998-2.613312 2.05332 1.959984 2.51998z"/><path d="m93.985901 108.07912-3.26664 2.05332 2.613312 3.1733 3.173307-2.05331z"/><path d="m102.66583 112.55908-1.77332 3.17331 3.35997 2.33331 1.21333-.0933 1.49332-2.89331z"/><path d="m109.19911 120.21235 1.77332-3.26664-3.82664-1.58665-1.30665 2.70664z"/><path d="m108.26578 121.79901.56-1.11999-4.19997-2.23998-1.30665 2.23998 1.67998.65332z"/><path d="m103.97249 118.6257-4.199969-2.89331-1.679987 2.42665 2.519976 1.58665 2.42665.93333z"/><path d="m99.212525 115.45239-2.986642-3.54663-3.359973 2.33331 2.51998 1.95998 2.239981 1.58666z"/><path d="m94.732562 122.07901-2.426647-3.26664-2.333315 1.39998 3.26664 3.07998z"/><path d="m98.932527 123.85232-1.493321 1.77332-3.546638-1.77332 1.399989-1.95998z"/><path d="m103.78582 125.15898-4.75996-.74666-1.213324 1.21332 3.453304 1.21333 1.67999.37333z"/><path d="m109.29351 127.01478-.44489-1.03807-2.15028-.66733-2.74345.1483-.22245 1.85369 3.63323.37074z"/><path d="m108.47789 122.49178-4.22641-.88977v2.07613l-.88978 1.03806 3.55909.1483 1.63124.51903z"/><path d="m102.69438 124.79035 1.18636-1.48295v-1.92784l-3.18835-.96392-2.150277 2.89176 1.557097.66733z"/><path d="m100.46995 120.11905-3.040051-2.00198-2.076131 1.4088-.07415 1.77955 2.965903 1.92783z"/><path d="m97.207457 117.89463-4.300559-3.2625-1.705394 2.59517.29659 1.85369 1.038066-.51903.889771 1.18636 1.112213-1.5571 1.038066.88977z"/><path d="m90.311733 110.10913-2.521017 1.63125.815623 2.9659 2.372722 2.07613 2.076132-3.26249z"/><path d="m89.421962 119.45173 1.186361-1.03807-1.112213-2.52102-1.482951-1.77954-1.705394 1.5571z"/><path d="m87.04924 110.85061-1.408803.0742.519033 3.63323 1.705394-.37074-.296591-2.52102z"/><path d="m132.79829 129.3875.96392-2.9659-3.2625-.22245-1.18636 2.29858z"/><path d="m128.12699 128.20114 2.07613-2.37272-3.18834-2.37273-2.59517 2.89176 2.22443.88977z"/><path d="m124.49376 125.45768 2.00198-1.92784-1.11221-1.03806-2.74346.66732z"/><path d="m124.04887 119.52587-2.9659 2.00199 1.48295 1.63124 2.59517-.81562z"/><path d="m122.19519 116.70827 1.48295 2.66931-2.59517 1.77954-2.44687-3.63323 3.48494-2.59517z"/><path d="m138.4335 126.64404-4.07811.0742-.74148 2.89175 4.6713.74148z"/><path d="m143.40139 126.94063-4.37471.29659.22245 2.9659 4.523-.29659z"/><path d="m150.00052 123.90058-2.74346 1.77954 1.40881 3.1142 3.85567-1.63125z"/><path d="m143.99457 126.19915.37074 3.55909 3.70738-.81563-1.33466-3.18834z"/><path d="m155.93233 123.82643-3.04005-2.07613-2.29858 2.07613 1.92784 3.1142 1.77954-1.11221z"/><path d="m155.70988 117.89463-2.59516 3.41079 3.04005 2.07613 2.15028-4.59715z"/><path d="m159.12067 114.63213h-2.8176l-1.03807 2.74346 3.33664.81563.88977-2.22443z"/><path d="m135.24516 118.26536 4.07811-3.04005-3.11419-2.44686-3.1142 2.66931z"/><path d="m142.80821 110.77646-3.33664 4.07812-2.89176-2.37273 2.89176-3.33664z"/><path d="m143.25309 110.47987 2.00199-3.1142-3.18835-2.15028-2.29857 3.70738z"/><path d="m134.80027 119.15514-2.07613-3.2625-4.15226 1.48295 1.77954 3.70738z"/><path d="m127.9787 117.52389-4.15227 1.33466 1.7054 3.70737 4.22641-1.18636z"/><path d="m146.36729 113.44577 2.9659-4.22641-3.26249-.96392-2.37272 2.81761z"/><path d="m143.1048 117.30145 3.26249-3.2625-2.89175-2.37272-3.04005 3.33664z"/><path d="m142.51162 117.67218-2.44687-2.29857-4.07812 3.26249 1.92784 2.74346z"/><path d="m135.69004 119.08099-4.00397 2.52102 2.29858 3.11419 3.92982-2.74346z"/><path d="m126.56989 122.78837 3.85568 3.04005 3.04005-1.40881-2.44687-3.18834z"/><path d="m154.15279 108.92277-1.03807 3.41079-1.48295 1.03807-3.63323-1.5571 1.92783-2.81761z"/><path d="m148.51757 117.00486 3.48494-3.18835-3.92982-1.48295-1.85369 2.66931z"/><path d="m144.43946 120.86053 2.74345-1.70539 1.26051-2.00199-2.44687-1.92784-3.18834 2.74346z"/><path d="m138.4335 121.45371 1.85369 2.81761 3.85567-3.1142-1.77954-2.66931z"/><path d="m155.1167 115.37361-2.15028-.51903.96392-4.22641 1.18636 1.11221.37074 2.52102z"/><path d="m139.69401 124.8645-1.5571-2.81761-3.41079 2.52102 1.18637 2.00198 1.92783-.22244z"/><path d="m131.53778 125.82842 2.00198-1.11222.81563.51904 1.33465 1.18636z"/><path d="m141.62185 123.67814-3.48494 2.8176 1.18636.44489 3.78153-.44489 1.33466-.74147z"/><path d="m145.40337 121.23127 4.15227 2.8176 3.18834-2.66931-3.63323-3.41079z"/><path d="m142.21503 123.60399 3.04005-2.15028 3.92982 2.74346-2.15028 1.26051-2.44687.37074z"/><path d="m152.81813 121.00882 2.44687-3.33664-4.59715-2.15027-1.85369 1.92783z"/><path d="m153.78205 116.55997.37074-1.18636-2.22443-1.18636-.96392 1.18636z"/><path d="m135.34792 96.074474.36364-3.200058h-3.20006l-.21819 2.981872z"/><path d="m135.63883 92.001672-.5091-2.763686-2.98187.872743.21818 2.836415z"/><path d="m135.20246 88.219786-2.25459-3.345516-2.76369 1.600029 1.89095 3.12733z"/><path d="m132.07513 83.928798-2.76369-2.472772-1.38184 2.690958 1.89094 2.327315z"/><path d="m124.65681 82.83787 2.47277 1.0182 1.5273-2.61823-3.85461-2.0364z"/><path d="m123.8568 82.474227.29091-3.418244-3.49097-.436372.14546 3.563701z"/><path d="m117.7476 82.037855h2.76368l-.29091-3.12733h-2.69096z"/><path d="m117.16577 78.255968-3.20006.800015 1.16366 3.200058 2.10912-.218186z"/><path d="m110.83838 81.456026 3.0546-1.963672.87274 2.763687-2.18186 1.818215z"/><path d="m110.11109 85.819742 2.25459-1.454572-1.96367-2.472772-1.89095 1.381843z"/><path d="m105.96556 86.401571 2.18186 1.963672 2.0364-2.036401-2.18186-2.909144z"/><path d="m135.5661 96.29266-3.27279-.07273-.94547 2.909144 3.34552.290914z"/><path d="m129.74781 101.52912 2.69096 2.0364 1.81822-3.49097-2.90915-.800018z"/><path d="m127.9296 103.71098 1.74548 2.47277 2.40005-2.0364-2.25459-2.32732z"/><path d="m127.12958 108.14742 2.5455-1.81821-1.96367-2.40005-1.89094 1.23639z"/><path d="m123.49315 109.09289 3.12733-.80001-1.30911-3.41825-2.83642 1.23639z"/><path d="m115.85665 105.96556-.14546 3.85462 3.20006-.0727-.14545-3.34552z"/><path d="m122.54768 106.47466-2.98187-.29091v3.5637l3.27279-.5091z"/><path d="m111.78385 103.71098-1.89094-2.0364-2.98188 1.96367 2.69096 2.18186z"/><path d="m115.78392 105.89283-.21818 2.76369-3.85462-.87274 1.60003-2.98187z"/><path d="m111.63839 103.71098-2.25458 2.69095 2.18185 1.23639 1.38185-2.90914z"/><path d="m109.45654 101.45639-1.5273-1.963672-2.69096 1.527302 1.30911 2.47277z"/><path d="m107.63832 96.29266-4.0728.290914-.14546-2.981872 3.41825.727286z"/><path d="m105.09282 100.58365 2.69096-1.236389-.65456-2.763687-3.70916.436372z"/><path d="m107.34741 90.692558-3.20006.945472-.29092-3.054601.43638-1.163658 2.32731-.436371 1.0182.872743z"/><path d="m103.42006 93.238059 1.96367.363643 1.67276-1.381843-.14546-1.236387-3.41824 1.018201z"/><path d="m128.58416 92.65623 3.49097-1.600029.0727 1.963672v3.418244l-3.49098-.945472z"/><path d="m130.54783 100.00182 1.45457-3.272789-3.27279-.945471-1.09093 2.254586z"/><path d="m128.22051 103.2746 2.10913-2.83641-2.90914-2.254587-2.0364 3.054597z"/><path d="m131.92967 90.910744-1.67276-3.563701-2.90914 1.672757.72729.945472.5091 2.109129z"/><path d="m129.89327 86.837943-2.47277-2.472773-1.74549-.945471-.94547 2.690958 1.74549 1.745486.58183.872743z"/><path d="m119.90108 103.44407-2.41454-.25416-.95311 2.79579 2.85933.50832z"/><path d="m123.5229 102.2368-3.24057 1.7156.76248 2.09684 1.33436.3177 2.9864-1.84268z"/><path d="m127.9072 103.25345-2.09684 1.46143-2.16038-2.60516 1.58851-.57187z"/><path d="m116.53343 103.31699-2.28746-1.20727-1.52497 2.0333 2.85932 1.58851z"/><path d="m114.05535 101.53785-2.28746-2.096835-2.16038 2.223925 2.6687 2.09684z"/><path d="m110.43354 97.534798-.57187-3.367651-2.41454.698946.57186 1.588515-.57186.254162.44478 1.906218z"/><path d="m111.64081 99.250394-1.27081-1.397893-2.54163 1.14373 1.84268 2.414539z"/><path d="m109.98875 93.722363.88957-2.414542-3.24057-1.207272-.0635.762487-.50832.127082.12708 2.732245z"/><path d="m111.57727 88.384954 2.351-1.588515-1.33435-2.414542-2.22392 1.715596z"/><path d="m110.24291 86.85998-2.6687 2.414542 2.6687 1.588514 1.65206-2.033298z"/><path d="m117.61362 85.207924-1.14373-2.986407-2.28746.762487-.95311 1.14373 1.33435 2.16038z"/><path d="m121.29898 85.716249 3.30411.127081.76248-2.541623-1.46143-.444784-2.22392-.508325z"/><path d="m117.93133 85.144384 1.52497.06354 1.84268.444785.0635-3.17703-4.00306-.254162z"/></g></svg>