<svg height="195.58644mm" viewBox="0 0 196.45921 195.58644" width="196.45921mm" xmlns="http://www.w3.org/2000/svg"><g transform="translate(42.866428 61.183666)"><path d="m67.411991-59.963959 2.43327-.162218.06083 1.581626-2.230498.22305z" fill="#363732"/><path d="m67.168665-60.146454.446098 1.743844-2.514378.06083.101386-1.804676z" fill="#3c3c34"/><path d="m66.82395-58.118728.141941 1.581625 2.331884-.08111-.04055-1.703289z" fill="#4e4a3a"/><path d="m65.161215-56.476271h1.64246l-.283882-1.865507-1.480241.101386z" fill="#3c372d"/><path d="m71.021342-60.24784-.06083 1.62218-.973309.02028-.02027-1.581626z" fill="#33322d"/><path d="m71.183561-60.207286 1.17608-.08111.202772 1.541072-1.500516.06083z" fill="#302e29"/><path d="m69.520826-56.55738 2.169666-.182495-.263605-1.784399-1.946616.162219z" fill="#35342e"/><path d="m71.649936-57.327916 1.541071.08111.486656-1.480239-2.048004.162218z" fill="#423f3a"/><path d="m74.934852-60.308672-1.500515.02028-.628598.973308.588042.36499 1.662734-.06083z" fill="#3f3e37"/><path d="m75.543169-58.503996-1.378852-.324436-.36499.14194-.344715 1.500517 2.027726.243327z" fill="#302b26"/><path d="m75.157901-60.126177.04055 1.236913 2.311607.141941v-1.48024l-1.176081-.121663z" fill="#3c3a2f"/><path d="m76.192041-58.686492-.608317 1.743844 2.757707.4461v-1.541071z" fill="#2a2924"/><path d="m80.146107-59.152869-.04056-1.561348-2.534655.324436.243327 1.48024z" fill="#45433e"/><path d="m80.916642-58.240392-2.453547-.344713-.04056 1.966893 2.311607.364991z" fill="#302d26"/><path d="m152.99465 30.632409.0248 1.587397-1.73621.148817-.22323-1.909834z" fill="#49453c"/><path d="m152.8889 32.54963.15083 2.16186-1.70938.167587-.23462-1.307171.67035-.938482z" fill="#332e2a"/><path d="m149.11822 32.41556.25138 1.575311 1.54179-.08379.0335-1.726136z" fill="#363226"/><path d="m151.11249 31.896043-.067-1.072549-1.64235-.854689-.38544 2.128343z" fill="#373631"/><path d="m151.06222 34.057906.11731 1.240136-.35193.418965-1.08931-.553034-.67035.08379-.0168-.972z" fill="#2b2825"/><path d="m153.03973 34.979629.0838 1.709378-.33518.469241-1.49151.167585-.11731-1.91048z" fill="#36312a"/><path d="m151.04546 35.901353.16758 1.592067-.30165.08379-1.62559-.184345.25138-2.04455z" fill="#2e2a28"/><path d="m151.26332 37.376109 1.6591.25138-.0168 2.362965h-1.6591z" fill="#342e28"/><path d="m149.15173 37.510179 2.0278.35193-.0335 2.329447-1.92724-.469241z" fill="#3b3633"/><path d="m153.09001 40.225073-.10055 2.078067-1.79318.201104-.10055-2.145101z" fill="#423c36"/><path d="m150.89463 40.225073.0838 1.692619-1.97751.184346.13406-2.16186z" fill="#2e2a25"/><path d="m153.02297 42.487486.21786 1.977517-.45248.318412-1.60882-.519517.2011-1.67586z" fill="#3b342d"/><path d="m150.92815 42.185832.2011 2.16186-.62007.284895-.98876-.08379-.35193-2.362962z" fill="#332f2c"/><path d="m153.15704 44.816933.13407 2.245654-2.1451.03352.11731-2.279171z" fill="#322c20"/><path d="m149.55394 44.615828-.2849 2.279171 1.72614.150829.15083-2.128343z" fill="#2c2924"/><path d="m153.54249 47.179898.0503 1.558549-2.34621.100552.11731-1.608828z" fill="#2b2725"/><path d="m150.97842 47.196656.13407 1.893721-1.75965.201105.0168-1.977517z" fill="#2b2724"/><path d="m50.372301 130.51301 1.842688-.33029.278141 1.12995-.05215 1.04303-2.016524-.0695z" fill="#292621"/><path d="m52.510513 134.12885-1.877455.0869.139071-1.86007 1.825305.0521z" fill="#1b1a16"/><path d="m54.440122 132.23401-1.581931.27814-.278141-1.2864.08692-.88658 1.286404.3303z" fill="#27261e"/><path d="m54.700879 132.39047.104304 1.68623-2.155597.13907.173836-1.56455z" fill="#2a281e"/><path d="m53.901221 130.33917 2.277284.27814.03477 1.68624-1.547164-.0348z" fill="#28281e"/><path d="m57.047699 132.49477.06954 1.66885-2.242516.0521.330293-1.70362z" fill="#26261e"/><path d="m58.438407 130.5304-.225991 1.94699-1.686232-.20861-.139073-1.96438z" fill="#32322c"/><path d="m59.342366 132.47739.08692 1.8253-1.999142-.0522-.156456-1.73839z" fill="#292822"/><path d="m58.647012 130.40871 1.946992.27814.03477 1.47763-1.129949.22599-1.060415-.29553z" fill="#2c2920"/><path d="m61.550116 132.47739.08692 1.66885-2.138212.0695.01738-1.66885z" fill="#2c2a1f"/><path d="m62.714833 130.33917-.13907 1.947-1.75577.0522.08692-2.06868z" fill="#2f2c22"/><path d="m64.018623 132.3557-.156456 1.84269-2.155598.0695.173839-1.84268z" fill="#2b2b23"/><path d="m63.114661 130.39133.139073 1.75576 1.981758.0522-.191223-1.91222z" fill="#313029"/><path d="m64.192459 134.23316 2.086063-.12169v-1.73839l-2.086063.10431z" fill="#28281e"/><path d="m67.651847 132.40785-.208606-1.96437-2.155597-.0521.156453 1.87745z" fill="#322f29"/><path d="m68.555806 132.40785.191223 1.70362-2.329434.26076-.05215-1.72101z" fill="#2f2d25"/><path d="m-38.605414 33.127866v2.846756l-1.703385-.116671-.210008-2.426743z" fill="#363631"/><path d="m-40.822149 33.524545.443347 2.310072-2.193401-.350012-.02334-2.333405z" fill="#2a2824"/><path d="m-38.535411 36.184627-.04667 1.493379-1.96006.140005.04667-1.843389z" fill="#26211c"/><path d="m-40.798815 38.21469-1.586714-.326676-.280009-2.286738 2.076731.303342z" fill="#494743"/><path d="m-38.302072 40.571429-2.123397-.303342-.140005-1.96006.956697-.466683 1.05003-.07z" fill="#494840"/><path d="m-40.682144 38.448031.04667 1.913393-1.843389-.09334-.186672-2.380073z" fill="#413c31"/><path d="m-42.373898 42.525147-.04676-2.080893h1.870461l.02339 1.145659-.514376.701424-.748186.444235z" fill="#2b2519"/><path d="m-42.350517 42.712191.257188 1.75356 1.706798-.09352.02339-2.221175-1.16904.654664-.537758.04676z" fill="#363432"/><path d="m-38.492686 46.032265-1.800322-.116906.04676-1.823702 1.80032.09352z" fill="#454137"/><path d="m-38.28226 42.501765-.09352 1.519751-1.847083.02339v-1.636657z" fill="#4f4e47"/><path d="m-38.375782 42.244577h-1.80032l-.116906-1.800323 1.940607.327332z" fill="#38332d"/><path d="m-40.433293 46.920733-1.893843-.04676.187048-2.361462 1.706795-.04676z" fill="#262119"/><path d="m-38.609592 46.149168-.04676 1.893843h-1.730179l.04676-2.034128z" fill="#352f29"/><path d="m-40.573578 49.282192h-1.613273l-.09352-.935231-.420854-.93523.561139-.444236 1.56651.233807z" fill="#2f2a1f"/><path d="m-38.703114 48.27682.187047 2.384841-1.613276-.02339-.09352-1.706798z" fill="#3e382d"/><path d="m-40.129343 51.807317-2.291315.163666-.09352-2.525125 2.197796.04676z" fill="#423e37"/><path d="m-40.035818 50.872086 1.449607-.07014.163666 1.683417-.374091.537758-1.402848-.09352z" fill="#363430"/><path d="m-40.573578 51.994364-.02339 2.151034-1.730179-.140285-.233807-2.03413z" fill="#262420"/><path d="m-38.796636 53.116642-1.660036-.09352.09352 1.706795 1.80032.116906z" fill="#322f29"/><path d="m82.202247-60.391317-1.781072.0212.08481 1.929494 1.993104-.04241z" fill="#393834"/><path d="m82.732327-56.383906-.25444-2.03551-1.378209.04241-.148423 1.993104z" fill="#33302a"/><path d="m84.449787-60.242894-1.71746-.339252-.12722 1.950698 1.781072.08481z" fill="#323028"/><path d="m84.979869-58.270994-2.141527-.296845-.08481 2.16273 2.374763.169626z" fill="#33342e"/><path d="m86.485298-60.306504-1.908291-.106016-.08481 1.802275 2.141527.06361z" fill="#34342f"/><path d="m86.760941-58.398213-1.632648.169626.08481 2.014307 1.293397.106016z" fill="#34332e"/><path d="m88.626825-58.398213-.02119-2.162729-1.887088.148422.06361 1.950698z" fill="#35322a"/><path d="m88.902468-58.143774-1.971902-.08481.08481 2.226339 1.653853-.169626z" fill="#2f302a"/><path d="m88.817653-58.334603 1.017757-.06361.657299-.911739-.06361-1.060161-1.738667.127219z" fill="#2f3029"/><path d="m91.298431-58.334603-2.247542.106016-.254437 1.993104 2.586794-.12722z" fill="#2a2c2a"/><path d="m90.619929-60.370113-.02119 1.908291 2.16273-.12722-.190828-1.738665z" fill="#3a362d"/><path d="m93.927633-56.659548v-1.675055l-2.162731-.106016v2.014307z" fill="#3d3d3c"/><path d="m94.076056-56.723158h.508876l1.526633-1.166177-.360453-.445268-1.675056-.06361z" fill="#32302c"/><path d="m96.323599-57.868132 1.526633-1.102568-.84813-.848129-1.314601 1.187381z" fill="#332f2d"/><path d="m93.121911-58.546635 1.908291.0212-.04241-1.865884h-2.141527z" fill="#262522"/><path d="m96.747663-60.264097-1.56904-.190829-.02119 1.950697h.402859z" fill="#2c2920"/><path d="m96.175176-55.175321 1.272193-1.208585-1.166177-1.420616-1.611445 1.25099z" fill="#2b2b26"/><path d="m97.723012-56.320296 1.781072-1.314601-1.399413-1.25099-1.505432 1.102568z" fill="#2d2c28"/><path d="m97.616996-53.839518 1.272194-1.250991-1.357009-1.166178-1.081362 1.060162z" fill="#2d2c27"/><path d="m99.504084-57.444067-1.484228 1.102568 1.229789 1.569039 1.441825-1.229788z" fill="#252621"/><path d="m97.765417-53.839518 2.056715 1.675055.593688-1.484226-1.611443-1.272194z" fill="#2d2926"/><path d="m100.79748-56.044654-1.378211 1.44182 1.759871 1.632648 1.10257-1.993103z" fill="#292824"/><path d="m100.73387-53.139811-.6361.508877-.190826.551284 1.272196 1.590243.84813-1.272194z" fill="#272721"/><path d="m101.39117-52.758153 1.56904 1.505429.84813-2.268746-1.37821-.869332-.6785 1.484226z" fill="#282826"/><path d="m102.59975-49.280823.6361-.78452-.72091-1.526633-.57249.148423-.6785 1.081365z" fill="#2d2a26"/><path d="m103.06622-51.23152 1.06017 1.229787 1.37821-1.611446-1.39941-.954145z" fill="#35332c"/><path d="m103.99917-47.626971 1.25099-1.37821-1.54784-1.293397-1.25099 1.37821z" fill="#2d2c28"/><path d="m105.46219-51.210317-1.01775 1.081365 1.25099 1.611445 1.46302-1.44182z" fill="#343331"/><path d="m104.04157-47.457345 1.65386 1.526633 1.3146-1.166178-1.69626-1.37821z" fill="#2f2f2a"/><path d="m107.32807-49.704888-1.61144 1.3146 1.63265 1.547836 1.16618-1.144974z" fill="#34362e"/><path d="m108.74869-48.114645-1.27219 1.505429 1.20858 1.250991 1.42062-1.50543z" fill="#34332f"/><path d="m106.96762-46.842452-1.12377.975349 1.44182 1.123771 1.01775-.826926z" fill="#32332d"/><path d="m110.1481-46.757639-1.3358 1.547836.42407.360455 2.26874-.339251z" fill="#292824"/><path d="m110.29653-43.980016.99655-.954145-1.82348.169626z" fill="#2c2c24"/><path d="m108.53666-45.294616-1.2934 1.123772 1.78107 1.420617 1.2934-1.166178z" fill="#494643"/><path d="m111.75955-45.188599-1.22979 1.314599 1.08137 1.484228 1.42062-1.420617z" fill="#2a2a25"/><path d="m110.31773-43.661966-1.25099 1.060162.89054 1.272193 1.54783-.954145z" fill="#373834"/><path d="m113.07415-43.534746-1.3146 1.144974 1.59024 1.272193 1.2934-1.314601z" fill="#282823"/><path d="m111.61113-42.30496-1.27219 1.357008 1.48422 1.166178 1.46302-1.208585z" fill="#2f2d2a"/><path d="m115.06726-42.262553-1.67506 1.293397 1.46302 1.908292 1.61145-1.484228z" fill="#2a2b26"/><path d="m114.57958-39.251695-1.3146-1.590241-1.27219 1.081363 1.3358 1.505431z" fill="#2e2d28"/><path d="m116.57269-40.311857-1.61145 1.335805.99655 1.272193 1.73867-1.505429z" fill="#2d2e29"/><path d="m114.45236-36.495274 1.56904-1.038958-1.39941-1.547836-1.08137.84813z" fill="#322c26"/><path d="m117.73886-39.082068 1.16618 1.505429-1.48422 1.017754-1.10257-1.378209z" fill="#373631"/><path d="m116.23343-37.470623-1.3358 1.060161.53008.869334 1.03896.530079 1.25099-1.017754z" fill="#302f2a"/><path d="m118.90504-37.555435-1.06016 1.229786 1.63265 1.653852 1.3146-1.569038z" fill="#2f2e2a"/><path d="m119.05346-34.777813-1.357-1.187381-1.18739 1.208585 1.22979 1.166177z" fill="#383733"/><path d="m120.51649-33.357196-1.65386-1.144974-1.01775 1.017754 1.52663 1.484228z" fill="#363530"/><path d="m122.42478-34.756609-1.63265-1.144974-1.54784 1.611445 1.78107 1.123772z" fill="#2e2d28"/><path d="m124.07863-32.721098-1.59024-1.738667-1.37821 1.378211 1.59024 1.696257z" fill="#36342f"/><path d="m120.6437-33.208773-1.14497 1.293397 1.18738 1.166177 1.42062-.975349z" fill="#36362e"/><path d="m122.14913-31.385297-1.25099 1.102569 1.44182 1.25099 1.08137-.975347z" fill="#39362f"/><path d="m124.22705-32.572678-1.48423 1.505432 1.52664 1.378209 1.46302-1.378209z" fill="#31302b"/><path d="m125.09638-28.798502-1.357 1.526632-1.39942-1.399413 1.2934-1.335802z" fill="#34312a"/><path d="m125.8597-31.003638-1.37821 1.484228 1.63265 1.420614 1.46302-1.314598z" fill="#383630"/><path d="m127.59836-29.349786 1.12378 1.123773-1.44182 1.272194-1.08137-.996554z" fill="#302e26"/><path d="m127.04708-26.996227-1.78107-1.696257-.93294 1.12377-.0212.699707 1.12378 1.250989z" fill="#2a2922"/><path d="m128.84936-27.759542-1.44182 1.060162 1.357 1.929492 1.59025-1.378209z" fill="#2b2b23"/><path d="m127.00467-26.656975-1.27219 1.208584 1.67506 1.441821 1.08136-.784522z" fill="#33312d"/><path d="m130.50321-26.10569-1.61145 1.420614.97535 1.314601 1.44182-1.569037z" fill="#2a2a21"/><path d="m128.53131-22.098279 1.16617-1.420616-.95414-1.166181-1.10257 1.378212z" fill="#2e2b25"/><path d="m131.37254-22.331514 1.75987-1.378212-1.61145-1.166178-1.14497 1.102569z" fill="#282723"/><path d="m130.31238-20.46563 1.2934-1.505432-1.88709-1.357005-.84813 1.081365z" fill="#2c2b26"/><path d="m134.53182-22.352718-1.357-1.187381-1.59025 1.335802 1.42062 1.335804z" fill="#36322e"/><path d="m133.13241-20.380818-1.67506-1.357008-.99655 1.378212 1.3146 1.229786z" fill="#2b2a26"/><path d="m135.97364-20.953305-1.44182-1.102569-1.44182 1.399413 1.39942 1.526633z" fill="#2b2a26"/><path d="m136.07966-20.762477-1.46302 1.675056 1.3358 1.017754 1.06016-1.653852z" fill="#232420"/><path d="m134.95589-18.281699-1.61145.826926-1.22979-1.420616 1.16618-1.37821z" fill="#282520"/><path d="m135.29514-18.048463-1.71746.678503 1.22978 1.738667 1.9507-1.060162z" fill="#302d28"/><path d="m137.09741-19.596299-1.20858 1.802275 1.357 1.44182 1.37822-1.675055z" fill="#262722"/><path d="m139.83263-17.030706-1.08137-.911741-1.46302 1.781072 1.48423 1.272193z" fill="#2c2d25"/><path d="m138.28479-15.122418-1.50543-1.357005-1.29339 1.208585 1.22979 1.420616z" fill="#302f2a"/><path d="m138.51803-14.931587-1.61145 1.12377 1.39942 1.717464 1.39941-1.293398z" fill="#2b2a25"/><path d="m139.95985-16.733862-1.08137 1.993103 1.44182 1.357008.97535-2.268746z" fill="#23211d"/><path d="m141.46528-15.292042-.95415 1.908291 1.48423 1.208583.99655-1.865884z" fill="#2a2823"/><path d="m141.55009-12.069152-1.35701-1.229786-1.69625 1.12377.59369.699706 1.48422.742114z" fill="#302e26"/><path d="m143.22515-13.489769-1.2722 1.463024 1.3146 1.44182.84813-.911738.25444-.975349z" fill="#47443f"/><path d="m141.69851-11.772306-1.3358 1.378209 1.50543 1.3782097 1.39941-1.4418177z" fill="#2a2925"/><path d="m144.92141-8.9522761 1.08136-1.6326489-1.3146-1.357008-1.3358 1.463024z" fill="#272622"/><path d="m141.71972-8.8250565 2.03551 1.759868 1.16618-1.7174633-1.61145-1.4206142z" fill="#292522"/><path d="m147.63542-9.3763397-1.59024 1.5054289-.55129-.3816588-.29684-.8905346 1.01775-1.3782118z" fill="#272622"/><path d="m145.11223-8.5706173-1.48422 1.7386643 1.73866 1.399413 1.2722-1.3146008z" fill="#26231f"/><path d="m146.10879-7.7648949 1.78107 1.6538521 1.56904-1.2721933-2.05672-1.5902437z" fill="#2c2924"/><path d="m146.78729-6.5775137-1.44182 1.3782092 1.08136 1.0601616 1.78108-1.6538522z" fill="#26241f"/><path d="m146.55405-4.0755318 1.42062 1.5054289 1.69626-1.6326485-1.3146-1.4418204z" fill="#2e2b27"/><path d="m151.19756-5.8566036-1.73866-1.3994129-1.3146 1.2297859 1.90829 1.8870877z" fill="#282620"/><path d="m151.30358-5.3053204 1.14497 1.2085849-1.80227.7421113-.48768-.6572991z" fill="#33342f"/><path d="m152.38494-3.9271111-1.75986.6997065.14842 1.4418204 2.07791-.042407z" fill="#2f2c24"/><path d="m148.54716-.72542261 2.14152-.46647099-.27564-1.8022755-1.84468.2332355-.38166.5088784z" fill="#252420"/><path d="m149.77695-4.1179392.76331 1.0177542-1.9719.2332355z" fill="#333029"/><path d="m152.70299-.2165442-.12722-1.4842278-1.88709-.042405.0636 2.0143073z" fill="#28251b"/><path d="m150.66748.80120997-.10602-1.84468027-2.05671.4876747.0424 1.7386644z" fill="#2a2925"/><path d="m152.57577.14391089.12722 1.88708771-1.95069-.084815.21203-1.63264843z" fill="#373330"/><path d="m152.7878 3.8968826.27565-1.6114448-1.86589-.2544392-.40286.042405.10602 1.378212z" fill="#2a2925"/><path d="m150.62508 2.7307051-.12722-1.75986811-1.84469.40285991-.38165.7845213.29684.8269261z" fill="#25211d"/><path d="m150.47665 5.338703.21203-2.2263391-1.80227-.1060186-.16963 2.1415269z" fill="#2f2c24"/><path d="m152.87262 5.4659226-.25444-1.5266353-1.69626-.1060159-.29684 1.1873812.12722.4240662z" fill="#34312b"/><path d="m152.95743 7.4802272-.16963-1.9506962-1.9931.1272196.10602 1.9506962z" fill="#37322c"/><path d="m148.88641 7.4378224 1.88709.1060159-.12722-1.9931036-1.82348.021193z" fill="#3c382f"/><path d="m151.00673 9.3249101 1.9295.2544392.0848-1.8658866-1.78107.021193z" fill="#2c2924"/><path d="m150.98553 9.5369419-.0636-1.8870877-2.16273-.021193.14842 1.8870877z" fill="#2a2927"/><path d="m152.91502 11.339217.16963-1.6538518-2.07792-.169627.16963 1.7386648z" fill="#2c2824"/><path d="m151.07034 11.614858-.25444-1.9719002-1.92949.084812.21203 1.9931042z" fill="#2d2824"/><path d="m153.02104 11.466437-1.88709-.06361.0636 1.378209 1.88709.360455z" fill="#33322e"/><path d="m150.87951 11.763281-2.12032.148423.31805 1.993104 1.80227.318048z" fill="#2b2823"/><path d="m151.17636 12.950662 1.92949.318048.0636 1.632648-2.03551.04241z" fill="#32302b"/><path d="m150.96433 14.328871-.27565 2.077919-1.71746.0424.40286-2.035509z" fill="#2b2823"/><path d="m150.98553 15.049782 2.12032-.08481.0424 1.335805-2.01431.127217z" fill="#312c28"/><path d="m153.06345 16.40679.10601 1.781072-2.12032-.04241.19083-1.526632z" fill="#2d2a25"/><path d="m150.90072 16.491602.16962 2.09912-2.03551.148423-.16962-2.205136z" fill="#312f27"/><path d="m153.19067 18.293878.16962 2.035508-2.05671.02119.0636-1.9719z" fill="#312e29"/><path d="m151.02794 18.823957-.0212 1.44182-1.80227.06361-.16963-1.526633z" fill="#31302c"/><path d="m153.23307 20.456605-.0424 1.441821-1.80228.233235v-1.759868z" fill="#2e2d29"/><path d="m151.13395 20.477809.19083 1.802276-2.14152-.233236-.12722-1.696259z" fill="#2a2622"/><path d="m151.34599 24.633643 2.0143.08481-.42406-2.650403-1.37821.148421z" fill="#2e2a27"/><path d="m151.28237 24.442813-1.82347.296846-.31805-2.586794 2.05671.233236z" fill="#2d2c2a"/><path d="m149.54371 25.036503 1.71746-.169624-.0636 1.696257-1.9719.339254.0424-.763318z" fill="#322e2b"/><path d="m153.27548 24.824471v1.441821l-1.84468.02119v-1.505429z" fill="#302d27"/><path d="m153.4239 26.266292-.23323 2.289947-1.9719-.106015.21203-2.035509z" fill="#2d2c29"/><path d="m151.13395 28.323004-1.90829.06361.0212-1.314601 1.92949-.381659z" fill="#34302c"/><path d="m153.21187 28.704663-.0848 1.632648-1.88709-.06361v-.699707l.99655-.996553z" fill="#403d37"/><path d="m151.13395 30.040467-.0424-1.335804-1.90829-.06361.25443 1.187381z" fill="#292a25"/><path d="m153.23307 48.911344.0424 2.395964-1.9507-.254437-.19083-1.929495z" fill="#32312d"/><path d="m151.26117 51.349715-.21203-2.247543-1.71746.275643.46647 2.183932z" fill="#2d2a27"/><path d="m153.48751 51.667763v2.077918l-1.73866-.04241-.0636-2.268747z" fill="#3e3a31"/><path d="m151.40959 51.434527.31805 2.162731-1.71746.254439-.46647-.954146.10602-1.293397z" fill="#302d2a"/><path d="m153.38149 53.788086.0424 2.714014-1.35701-.06361-.29684-.508878-.0212-2.014308z" fill="#34302d"/><path d="m151.53681 53.978917.14843 1.865884-2.01431-.296847.23324-1.632649z" fill="#292522"/><path d="m153.57233 57.032182-.12722 1.357005-1.75987-.212032.19083-1.738664z" fill="#2f2d29"/><path d="m151.53681 58.240764-1.88708-.318048-.23324-1.038958.16963-1.187381 2.16273.381659z" fill="#36322e"/><path d="m153.33909 58.452798.0212 2.226339-1.71746-.31805.10602-1.887088z" fill="#2e2a27"/><path d="m151.51561 60.551918-1.63265-.254439-.29684-.869334.27564-1.335802 1.73866.275641z" fill="#2d2a25"/><path d="m153.25427 60.806357.12722 2.311151-1.86588-.508878.0424-1.84468z" fill="#2d2a24"/><path d="m151.452 60.721542.0212 2.480779-1.9719-.275641.40286-2.353558z" fill="#21201e"/><path d="m153.52992 63.287135-.0636 1.738665-2.12032-.08481.29684-1.82348z" fill="#292621"/><path d="m151.4308 63.350744-.12722 1.484225-1.90829-.127217.0636-1.611447z" fill="#25201c"/><path d="m153.4239 65.153019.0424 1.759868-2.01431.02119v-1.887088z" fill="#2e2a26"/><path d="m149.39529 65.110612.0212 1.84468 1.9507.06361-.14842-2.035511z" fill="#373330"/><path d="m153.55112 67.061311-.0848 1.505429-1.59024.08481-.48768-1.208585z" fill="#322f2a"/><path d="m151.57922 69.16043-1.9507.233236-.21203-2.056715 1.86588-.169624z" fill="#26221f"/><path d="m153.44511 68.736364.0424 2.544389-2.09912-.08481.29685-2.480776z" fill="#23221e"/><path d="m151.452 69.330055-.19083 2.141526-1.65385.169627v-2.035511z" fill="#26211e"/><path d="m153.4239 71.386769.0848 2.09912-2.22634-.06361.14843-2.120323z" fill="#25211e"/><path d="m149.60732 71.768428-.0424 1.526633 1.61145-.148424.0848-1.611444z" fill="#231f1e"/><path d="m151.64283 73.591905 1.69626-.06361.14842 1.632649z" fill="#383427"/><path d="m153.10585 75.224553-.97535 1.293397-1.50542-1.378209 1.10256-1.208585z" fill="#272521"/><path d="m150.83711 74.652066.74211-.869331-.50888-.487674-1.27219.254439z" fill="#484137"/><path d="m150.7523 78.065786 1.27219-1.484225-1.35701-1.144976-1.27219 1.484228z" fill="#272523"/><path d="m150.66748 74.758082-1.10257 1.420617-1.29339-1.420617 1.37821-1.166177z" fill="#2c2825"/><path d="m149.35288 76.199903-1.69626 1.781071-1.08136-1.505429 1.63265-1.505431z" fill="#2a2623"/><path d="m147.80505 78.511054 1.20858 1.102569 1.75987-1.293397-1.63265-1.37821z" fill="#282820"/><path d="m148.844 79.634826-1.44182 2.014308-1.29339-1.314601 1.37821-1.823479z" fill="#25201d"/><path d="m144.70937 78.871509 1.2934 1.060161 1.59024-1.823476-.53008-.742114-.95414-.233235z" fill="#2a2926"/><path d="m145.93916 80.143705-1.50543 1.590241-1.27219-1.081365 1.52663-1.590241z" fill="#2a2926"/><path d="m147.19015 81.776353-1.3146 1.802273-.48767-.106016-.91174-1.526632 1.18738-1.293397.63609.02119z" fill="#282722"/><path d="m145.40908 83.939081-1.78107 1.081366-1.10257-1.505429 1.78107-1.56904z" fill="#26231e"/><path d="m144.11568 81.882369-1.67505 1.569038-.97535-1.441818 1.14497-1.526633z" fill="#272521"/><path d="m143.45838 85.105259-1.357 1.738667-1.35701-1.653852 1.69626-1.526633z" fill="#2f2a26"/><path d="m142.20739 83.387798-1.22978 1.420617-.99656-.402863-.40286-.890534 1.61145-1.25099z" fill="#27221e"/><path d="m141.88934 86.73791-.91173 1.632648-1.48423-1.357008.97535-1.357005.46647-.04241z" fill="#231e1a"/><path d="m140.65956 84.999243-.97535 1.484228-1.46303-1.250993 1.01776-1.166177z" fill="#2d2a23"/><path d="m140.82918 88.476574-1.54783 1.017754-1.22979-1.378209 1.48423-.975349z" fill="#302d28"/><path d="m139.57819 86.73791-1.63265 1.335802-1.3358-1.314601 1.73866-1.293397z" fill="#2a2420"/><path d="m139.17533 89.727564-1.63265 1.56904-.99655-1.420617 1.65385-1.3146z" fill="#312c27"/><path d="m138.00915 88.455371-1.46302 1.250989-1.37821-1.208582 1.16618-1.484228 1.16617.826926z" fill="#2d2822"/><path d="m136.41891 89.83358-1.18738 1.738667.86933.572487.93294-.360455.23324-.424067z" fill="#2e2b26"/><path d="m136.27049 89.663956-1.16618 1.632648-1.73867-1.293397 1.67506-1.081365z" fill="#302b26"/><path d="m136.39771 92.780829-.91174.763318-1.65386-1.060162 1.37822-.911738z" fill="#27251d"/><path d="m133.13241 92.696017 1.3358-1.399413-1.01775-1.017757-1.35701 1.314601z" fill="#2d2623"/><path d="m131.98743 91.784279-1.52663 1.335802 1.2934 1.102569 1.27219-1.272194z" fill="#2e2923"/><path d="m135.0407 94.307462-.74211.784521-1.37821-1.229789.42406-.932942.86933-.106015z" fill="#2c2620"/><path d="m133.32324 95.94011.82693-.826926-1.67506-1.441818-.91174 1.166178z" fill="#322e27"/><path d="m133.0688 95.94011-.72091 1.060162-.74211.424066-1.25099-1.123773.93294-1.357005.61489.233235z" fill="#2b2823"/><path d="m131.60578 94.349869-1.31461-1.166177-1.39941 1.526632 1.33581 1.25099z" fill="#2d2926"/><path d="m131.28773 97.699978-.97535.84813-1.46302-1.144974 1.03895-1.229788z" fill="#282421"/><path d="m130.03674 95.982518-1.33581-1.25099-1.29339 1.272193 1.01775 1.399413z" fill="#2f2a26"/><path d="m128.67973 97.487947 1.50543 1.123772-1.35701 1.759871-1.3146-1.632651z" fill="#272320"/><path d="m128.27687 97.50915-.99655-1.335804-1.18738 1.229788 1.27219 1.293397z" fill="#2e2925"/><path d="m128.55251 100.24437-1.18738-1.35701-1.06016 1.102569 1.42061 1.293401z" fill="#2c2723"/><path d="m127.21671 98.654124-1.44182-.932942-1.35701 1.632648 1.52663.84813z" fill="#29261f"/><path d="m127.70438 101.38934-1.56904 1.67506-1.46302-1.06016 1.59024-1.61145z" fill="#312a26"/><path d="m125.77489 100.58362-1.69626 1.9719-1.33581-1.65385 1.37822-1.54784z" fill="#302d27"/><path d="m124.5451 102.17386 1.59024 1.12377-1.22979 1.44182-1.20858-1.12377z" fill="#2c2823"/><path d="m123.8666 102.49191-1.54784 1.37821-1.16618-1.35701 1.54784-1.27219z" fill="#2c2723"/><path d="m123.2517 103.36124 1.3146 1.2722-1.69626 1.61144-1.06016-1.73866z" fill="#322e2c"/><path d="m122.12793 103.91253-1.14497-1.20859-1.25099 1.18738 1.12377 1.39942z" fill="#302c29"/><path d="m121.64026 105.0575 1.16618 1.42062-1.73867 1.3146-1.42062-1.03896z" fill="#2b2721"/><path d="m120.6013 105.35434-1.22979-1.16617-1.3358 1.14497 1.44182 1.54784z" fill="#34302d"/><path d="m119.64715 107.0294-1.44182 1.54784 1.25099 1.59024 1.54784-1.80227z" fill="#2f2b2b"/><path d="m119.39271 107.0082-1.3358-1.39942-1.16618 1.2934 1.20859 1.54784z" fill="#2f2b28"/><path d="m116.55148 106.58413-1.50543 1.82348 1.14498 1.12377 1.65385-1.10257z" fill="#393334"/><path d="m117.9933 108.66205 1.52663 1.67506-1.67505.78452-1.44182-1.52664z" fill="#332f2d"/><path d="m117.63285 111.10042-1.20859 1.78107-1.69626-1.22978 1.67506-1.48423z" fill="#2b2524"/><path d="m116.25463 109.78582-1.27219-1.20858-1.46302 1.61144 1.39941 1.25099z" fill="#2e2b27"/><path d="m116.27584 112.88149-.97535 1.46303-.69971.27564-1.14497-1.22979 1.44182-1.46302z" fill="#2e2926"/><path d="m113.30739 110.20989-1.42062 1.73866 1.3358 1.22979 1.50543-1.75987z" fill="#302b25"/><path d="m112.88332 113.13593 1.46303 1.35701-.72091 1.37821-1.71747-.69971-.16962-.6997z" fill="#2a2624"/><path d="m112.69249 112.98751-1.01775-.97535-1.59024 2.01431 1.03895 1.25099z" fill="#2a2722"/><path d="m109.38479 116.76169 1.46302-1.35701-.84813-1.3358-1.73866 1.67505z" fill="#35312e"/><path d="m110.40254 116.12559 1.69626 1.42061 1.01776-1.54783-1.67506-1.01776z" fill="#302c28"/><path d="m111.63233 117.31297-1.48423-1.06016-1.12377 1.16617 1.50543 1.39942z" fill="#26221e"/><path d="m109.21516 116.88891-1.10256-1.03897-1.33581 1.14498 1.08137 1.37821z" fill="#2e2828"/><path d="m110.44495 119.00923-1.42062-1.35701-1.357 1.44182 1.3358 1.50543z" fill="#2b2723"/><path d="m107.73094 118.54276-1.03896-1.35701-1.48423 1.59024 1.2722 1.33581z" fill="#2a2621"/><path d="m105.08053 118.88201 1.2722 1.39941-1.52664 1.25099-1.22978-1.12377z" fill="#332e28"/><path d="m107.45529 119.07284 1.37821 1.44182-1.46302 1.42061-1.44182-1.10256z" fill="#2e2823"/><path d="m107.28567 122.06249-1.01776 1.14498-.99655.57248-.93294-1.29339.69971-.93294.76331-.5937z" fill="#282421"/><path d="m102.11208 121.85046 1.67506-1.20858 1.01775 1.12377-1.50543 1.52663z" fill="#302b26"/><path d="m103.85075 125.34899 1.3358-1.48422-.89054-1.18738-1.03895 1.18738z" fill="#28241f"/><path d="m103.38428 123.58913-1.251-1.52664-1.16617.93295-.0424 1.03895.95415.80573z" fill="#34312c"/><path d="m101.07312 125.47621 1.35701 1.10257.72091-.33925.59369-.74211-.99655-1.12377z" fill="#302b27"/><path d="m100.22499 126.34554 1.14498-1.54783-1.08137-1.22979-1.272191 1.44182z" fill="#2d2827"/><path d="m101.20034 127.87218 1.16618-.93294-1.61145-1.03896-.911735.93294z" fill="#34302a"/><path d="m99.949351 126.28194-1.017754-1.12378-1.399416 1.52664 1.144977 1.20858z" fill="#2c2723"/><path d="m99.631304 127.00285 1.484226 1.44181-1.441822 1.08137-1.738664-.99655z" fill="#27231f"/><path d="m98.316703 127.93579-.932942-1.16618-1.844683 1.56904 1.081365 1.35701z" fill="#23231b"/><path d="m98.253092 131.01026 1.463024-1.20859-2.226339-.6573-.402863.38166z" fill="#3e372d"/><path d="m96.726459 130.18333-1.272193-1.63265-1.653853 1.3146 1.293398 1.44182z" fill="#322d2a"/><path d="m96.91729 130.22574 1.038958 1.3146-1.887088 1.48422-.466471-.6997.954146-1.73867z" fill="#2e2b26"/><path d="m94.987795 131.45552 1.187381 1.9507-1.738665.78452-.296846-.36045z" fill="#2b2825"/><path d="m94.62734 131.58274-.572487 2.20514-.402863-1.56904z" fill="#272218"/><path d="m93.24913 130.05611.487675-.10601.763315 1.03895-.805722.86933z" fill="#2b2622"/><path d="m92.104154 129.9501 1.060161.0636.296847 1.99311-1.399413.0212z" fill="#221e1a"/><path d="m91.786106 132.11282h1.717463l.254437 1.75987-1.865884.21204z" fill="#332f25"/><path d="m91.849717 131.9644.12722-2.22634-2.311154.0848.12722 2.28994z" fill="#2a2825"/><path d="m90.11105 132.19764 1.463024.0636.08481 1.78107-1.844681.0212z" fill="#24201d"/><path d="m89.793003 133.97871-2.141527.31805-.169625-2.12032 2.268744.0424z" fill="#282521"/><path d="m89.474955 132.04922-1.802276.0636-.06361-2.26874 1.865884.16962z" fill="#28231f"/><path d="m87.397036 129.9925-.08481 1.82348-2.141527.14842-.08481-1.88708z" fill="#342e29"/><path d="m85.043478 132.13403v2.07792l2.353558-.10602-.190828-2.16273z" fill="#292521"/><path d="m84.661822 130.03491.254439 2.03551-2.099122.0636-.02119-1.92949z" fill="#32302b"/><path d="m84.873853 132.24004.02119 1.9295-2.22634-.21203v-1.78107z" fill="#2a2722"/><path d="m82.371871 132.38847.08481 1.75986-2.205136.0212-.08481-1.99311z" fill="#26221f"/><path d="m82.689919 132.07042-.127219-1.88709-2.035509.0424.466471 1.82348z" fill="#35312c"/><path d="m80.33636 130.18333.296847 1.99311-1.993103-.19084.06361-1.82347z" fill="#2a2927"/><path d="m80.081924 134.02112-2.332358.14842.08481-1.9719 2.09912.12722z" fill="#28241e"/><path d="m78.597696 130.16213-.08481 1.9719-1.653852-.10602.190828-2.01431z" fill="#403c36"/><path d="m76.710608 130.16213.106016 1.63265-1.781071.31804-.890535-1.9719z" fill="#2d2825"/><path d="m77.685958 132.24004-.04241 1.80228-1.993103-.23324-.27564-1.67505z" fill="#26251d"/><path d="m73.3817 134.16954 1.781072-.0424.08481-1.92949-1.971903.0424z" fill="#282924"/><path d="m72.724401 132.21884 2.120323-.27564-.890534-1.84468-1.463024.0848z" fill="#2a2623"/><path d="m70.243623 130.11972.381659 2.14153 2.035511-.0848-.381659-2.05672z" fill="#2b2825"/><path d="m70.964533 134.25435 2.09912-.0424-.233236-1.9083-1.908291.0424z" fill="#2a2722"/><path d="m68.950226 134.40277 1.823479-.36045-.148423-1.61145h-1.887088z" fill="#23211b"/><path d="m70.328435 132.02801-.424063-1.88709-2.374763.21204.318048 1.88708z" fill="#36332e"/><path d="m50.27018 132.19764-2.311154-.0424.212032-1.80227 1.738667.0424z" fill="#21201c"/><path d="m48.043841 134.16954h2.459574l.04241-1.82348-2.395963.14842z" fill="#242520"/><path d="m47.959026 134.27555-.169625-2.0143-2.014307-.0212.0424 1.97191z" fill="#2b251d"/><path d="m47.831806 132.13403.212035-1.75987-1.929495.0212.02119 1.80228z" fill="#27221f"/><path d="m43.548755 130.56499 2.353559-.0848.06361 1.65385-2.035511-.27565z" fill="#2b2823"/><path d="m43.569959 132.21884-.08481 2.01431 2.205138.0212-.08482-1.78107z" fill="#2b2b23"/><path d="m43.31552 134.08473-2.247543-.0212.04241-1.65385 2.099122-.16963z" fill="#312f26"/><path d="m43.612364 132.00681-.169625-1.39941-2.077918-.12722v1.69626z" fill="#343027"/><path d="m41.173993 130.67101.127219 1.67505-2.523185-.0848.106016-1.86589z" fill="#27251c"/><path d="m38.735622 132.38847 2.099119.10601.190828 1.50543-2.268746.10602z" fill="#24241d"/><path d="m38.693214 130.39536-.02119 1.9507-2.268746-.14842-.02119-1.61145z" fill="#272621"/><path d="m36.000404 132.38847 2.586795.12722.0424 1.63264h-2.69281z" fill="#2d271b"/><path d="m35.767169 132.6005-.148423 1.63265-2.183932-.0212.212032-1.92949z" fill="#2c2c20"/><path d="m36.318452 132.21884-.233235-1.90829-1.781072.16963-.02119 1.61144z" fill="#3d3b2e"/><path d="m32.077806 132.02801 1.9719.16963.08481-1.69626-1.887087-.14842z" fill="#343226"/><path d="m31.187271 132.15523.169624 2.12032 2.035511-.21203.04241-1.80227z" fill="#2d2a21"/><path d="m31.970927 132.03106-.106227-1.59343-2.27329-.14872v1.78464z" fill="#2c2921"/><path d="m31.269818 134.09189-.276193-1.76339-2.145816.0213.14872 1.78463z" fill="#353229"/><path d="m29.357706 132.0948-.127473-1.74215-2.145816.2337.191212 1.74215z" fill="#27251b"/><path d="m26.829467 132.47722 1.720903-.0212.297439 1.67841-2.103323.21246z" fill="#363634"/><path d="m26.850713 132.22227.127477-1.74214-1.933361-.2762.04249 1.93336z" fill="#23231b"/><path d="m24.641162 132.26476-.212458 1.93336 2.188308-.0212.04249-1.78464z" fill="#2e2922"/><path d="m24.619916 132.17978.106228-1.78464-2.252044.0637.04249 1.89087z" fill="#2d2a26"/><path d="m24.279985 132.47722-.04249 1.78464-2.230798-.0213.573633-1.76339z" fill="#2f2d24"/><path d="m22.091677 132.54096.148719-2.18831-2.209551-.0213.02125 1.97585z" fill="#1c1915"/><path d="m21.900465 134.24061-.04249-1.57218-2.060835-.25495.08498 1.69966z" fill="#221f1a"/><path d="m19.797141 134.34684-.297439-1.99709-1.805884.0425.08498 1.7209z" fill="#433d35"/><path d="m19.860879 130.3314-2.464501.0425.169966 1.89087 2.12457.0213z" fill="#1f1c17"/><path d="m17.247659 130.48013-.764847-.29745-1.168514.14872-.339931 1.35973 1.97585.99855z" fill="#25221d"/><path d="m15.059351 131.96732-.78609 1.23225 1.317233.89232 1.168514-1.40221z" fill="#393732"/><path d="m15.845441 134.24061 1.742149-.085-.04249-1.69965-.658617.2337z" fill="#252213"/><path d="m14.846893 131.79736-.722352 1.4872-1.933361-1.12603 1.019794-1.59342z" fill="#3f382f"/><path d="m14.868139 131.45743.552389-1.86963-.488651-.36117-1.126021 1.4447z" fill="#363126"/><path d="m14.783158 128.78047-1.59343-1.12602-1.338479 1.4447 1.720903 1.57218z" fill="#28251d"/><path d="m12.127445 131.86109 1.041037-1.4447-1.657162-1.46596-.871074 1.42346z" fill="#2e2a1f"/><path d="m13.083501 127.54822-1.635919-1.7634-1.232252 1.4872 1.508445 1.63592z" fill="#363429"/><path d="m11.55381 128.90794-1.317234 1.33848-1.5934265-1.78464 1.4871995-1.211z" fill="#342f23"/><path d="m11.383844 125.65735-1.5509347-1.65716-1.5721832 1.35972 1.8271309 1.65717z" fill="#272318"/><path d="m10.06661 127.10206-2.0395851-1.80589-1.2110058 1.46596 1.6571647 1.61467z" fill="#25221b"/><path d="m9.6416976 123.9152-1.6784108-1.38097-1.3597255 1.4872 1.5084451 1.23225z" fill="#26231c"/><path d="m7.8783052 125.18995-1.784641-1.35973-1.2959873 1.04104 1.6784108 1.63592z" fill="#332f26"/><path d="m6.5185798 123.89396 1.4234609-1.55094-1.6359187-1.4872-1.1047756 1.27474z" fill="#27241c"/><path d="m6.0299287 123.70275-1.2959873 1.10477-1.6359187-1.63592 1.7209002-1.25349z" fill="#36332d"/><path d="m5.1588543 121.7269.8073363-.91357-.7648442-1.46595-.5523892-.14872-1.1047756 1.18976z" fill="#29251b"/><path d="m3.0555306 123.04413 1.933358-1.42346-1.5296912-1.12603-1.2110032 1.35973z" fill="#2a261d"/><path d="m3.6291631 120.15471 1.1047783-1.31723-1.6784108-1.52969-1.4871991 1.46595z" fill="#353126"/><path d="m3.4804435 120.26094-1.7421463-1.23225-1.10477565 1.35973 1.55093455 1.33848z" fill="#312d22"/><path d="m1.3771198 118.64627 1.5509372-1.35972-1.5084452-1.33848-1.29598731 1.14726z" fill="#262417"/><path d="m.39981774 117.75395-1.46595304 1.31723 1.5509372 1.42346 1.0410375-1.42346z" fill="#2c2c23"/><path d="m1.185908 115.7781-1.3384794-1.4872-1.1685138 1.35973 1.31723344 1.38097z" fill="#302c23"/><path d="m-1.0873813 116.33049-1.3172334 1.25349 1.2747413 1.27475 1.38097149-1.29599z" fill="#29261d"/><path d="m-.25879896 114.0572-1.04104014-1.14727-1.5509346.9773 1.3597255 1.78464z" fill="#28271f"/><path d="m-2.5745804 114.5246-1.0622836 1.59343 1.1047756 1.35973 1.3597255-1.2535z" fill="#22221a"/><path d="m-3.0419854 113.8235 1.5934266-1.06229-1.8483765-1.65717-1.4022149 1.21101z" fill="#28251f"/><path d="m-3.7218481 115.88433.998548-1.63592-1.5509372-1.27474-1.0622835 1.55093z" fill="#2c291e"/><path d="m-4.8053777 112.20882 1.3172334-1.16851-1.4234636-1.55094-.9985481 1.46596z" fill="#26231c"/><path d="m-5.9526455 111.25276-1.465953 1.31724 1.9758501 1.93336 1.1260217-1.59343z" fill="#24241e"/><path d="m-5.1665552 109.3619-1.5084451-1.4872-1.1260217 1.40221 1.7846384 1.67842z" fill="#24231b"/><path d="m-7.6735483 109.57436-1.4871991 1.25349 1.5084451 1.61467 1.7209002-1.33848z" fill="#1f1e19"/><path d="m-6.8237199 107.72598-1.1260217-1.06229-1.1897598 1.4872 1.1897598 1.10478z" fill="#48433c"/><path d="m-9.1395014 107.95968 1.1685138-1.33848-1.3384795-1.35972-1.3172329 1.27474z" fill="#3a382d"/><path d="m-10.92414 103.45559 1.5934269 1.67842-1.3809689 1.29598-1.572183-1.7209z" fill="#292620"/><path d="m-10.966632 106.36625 1.5084453 1.46596-1.7846383 1.18976-1.019794-1.18976z" fill="#21201b"/><path d="m-9.3732052 110.80661 1.5934293-1.27475-1.6996569-1.59342-1.5721802 1.12602z" fill="#312c24"/><path d="m-13.856046 106.30252 1.593427 1.33848 1.253495-1.38097-1.189757-1.29599z" fill="#2c2921"/><path d="m-15.505046 104.62225 1.512843 1.57587 1.596887-1.17665-1.554866-1.70195z" fill="#34322e"/><path d="m-12.584421 101.86972-1.365761 1.36576 1.449806 1.51284 1.428795-1.36576z" fill="#2f2b1e"/><path d="m-12.899598 101.86972-1.554864-1.65992-1.449805 1.30272 1.722958 1.76498z" fill="#282722"/><path d="m-15.694149 104.5382 1.449806-1.28171-1.554864-1.40778-1.36576 1.13463z" fill="#272520"/><path d="m-16.051349 101.32342 1.470818-1.13463-1.701945-1.743973-1.134631 1.218677z" fill="#2e2b24"/><path d="m-17.291036 102.83626 1.365758-1.15564-1.407782-1.44981-1.302723 1.34475z" fill="#272420"/><path d="m-17.606213 99.62147 1.281713-1.407782-1.386771-1.407782-1.428792 1.470819z" fill="#25221b"/><path d="m-17.312049 100.0417-1.323734 1.34475-1.281713-1.17665.273153-.819457.77743-.651362z" fill="#262520"/><path d="m-21.934616 98.36077 1.596887 1.449805 1.2607-1.02957-.378211-.861481-.819455-.840465-.966536.02101z" fill="#25241f"/><path d="m-17.753295 96.679838-1.407782 1.365758-1.113618-1.176655 1.197666-1.470816z" fill="#27241c"/><path d="m-22.039674 98.213688 1.02957-1.617898-1.344747-1.071594-.987547 1.302723z" fill="#2a261e"/><path d="m-20.505824 96.805906 1.197666-1.554863-1.554864-1.617898-1.491829 1.701945z" fill="#262420"/><path d="m-21.178196 93.612131-1.302724-1.344747-1.155642 1.407784 1.281711 1.365758z" fill="#262521"/><path d="m-23.426446 96.616801 1.029574-1.449806-1.092608-1.00856-1.029573 1.344748z" fill="#201e18"/><path d="m-26.326057 93.96933 1.365758 1.449805 1.428795-1.344745-1.617898-1.638911z" fill="#201f1b"/><path d="m-23.825667 93.528087.840467-1.092608-.210116-1.092607-1.197666-.924513-1.281713 1.113618z" fill="#1d1c17"/><path d="m-25.296484 92.309408-1.344747-1.386769-1.218679 1.596888.756423.966536.672372.420232z" fill="#24231f"/><path d="m-25.821777 91.384895 1.176655-.966536-1.281713-1.197665-1.134631 1.197665z" fill="#27241c"/><path d="m-27.208548 90.292288 1.029573-1.050584.02101-1.029573-1.659922-1.2607-.630348 2.269263z" fill="#26241d"/><path d="m-26.830337 90.922639-1.029573 1.470816-.651362.147082-1.260699-1.407782.945525-1.470818.630351-.04202z" fill="#21201b"/><path d="m-29.519831 85.585673 1.344747.840468.147082 1.155642-.273151.546303-1.134631.273151-1.134631-1.134629z" fill="#2c2924"/><path d="m-28.490258 89.346762-1.386772 1.302724-1.071594-1.218676.861478-1.554864z" fill="#221f1a"/><path d="m-31.221777 89.199681 1.071597-1.470817-1.912062-1.554863-1.155644 1.071594z" fill="#23201b"/><path d="m-30.759518 87.098513 1.218676-1.638911-1.596887-1.701945-1.344748 1.155641.75642 1.344748z" fill="#2e2a1f"/><path d="m-32.020221 86.068943-1.512839 1.176652-.924513-.924512-.378211-.945526 1.554863-1.11362z" fill="#282520"/><path d="m-32.566524 84.682172 1.218678-1.134632-1.575876-1.659921-1.2607 1.386771z" fill="#25221a"/><path d="m-33.53306 84.156878-1.617898 1.260703-1.365761-1.386771 1.491829-1.407782z" fill="#25231e"/><path d="m-34.331504 82.959213 1.134631-1.197663-1.544627-1.361414-1.445091 1.212549z" fill="#2f2c23"/><path d="m-35.306248 82.576078-1.328817 1.362038-1.544753-1.57797 1.36204-.963396z" fill="#2a261c"/><path d="m-36.402522 81.562853 1.561362-1.312206-1.544752-1.42848-1.611193 1.179324z" fill="#2a2925"/><path d="m-37.05032 81.23065-1.278988.996614-1.34543-1.611193 1.10907-1.153721z" fill="#24231f"/><path d="m-36.502395 78.605447-1.43334 1.223118-1.242229-1.452454 1.43334-1.242227z" fill="#292822"/><path d="m-38.604628 79.293451-1.165783 1.223118-1.356897-1.471565 1.356897-1.204005z" fill="#272320"/><path d="m-40.152636 77.172106.840893.955561 1.395119-1.10845-.267557-.248447z" fill="#2c2923"/><path d="m-39.90419 77.783664-1.471565.917339-.66889-.76445 2.025787-.324889z" fill="#25231b"/><path d="m-38.088625 75.987212-.401335.802669-1.509787.267557-.172-.860004z" fill="#343027"/><path d="m-40.229082 76.292991.07645 1.204005-1.968455.229335v-1.376008z" fill="#2a2720"/><path d="m-38.069514 75.83432-.05734-1.548006-2.236009.229333.03822 1.605344z" fill="#2f3025"/><path d="m-40.401083 76.159212-.09555-2.216901-1.872901.09556.172003 2.140455z" fill="#2a2a22"/><path d="m-40.401083 74.400979 2.159569-.305779-.191114-1.681787-2.064009.286669z" fill="#2b2821"/><path d="m-42.369538 71.228519.133779 2.694681 1.739122-.09556-.133779-2.656456z" fill="#23231e"/><path d="m-40.343748 72.604527 2.044899-.401336-.516004-1.892011-1.605341.133778z" fill="#24251e"/><path d="m-38.547296 70.177401.03823-1.777341-1.949344.07644.210222 1.85379z" fill="#29251c"/><path d="m-40.496637 70.960962-1.758233.07645-.05733-2.006679 1.777342-.344001z" fill="#2c2b27"/><path d="m-38.260627 66.106715-1.987566-.382225-.07644 1.528898v1.070226l1.662676.0191z" fill="#34312c"/><path d="m-40.420194 68.342727-.172-1.8729-1.700898-.05733.03822 1.968455 1.012894.363112z" fill="#37342f"/><path d="m-38.222403 65.87738-.248447-2.446235-1.853787.210222.09556 1.739123z" fill="#2b2821"/><path d="m-40.343748 65.934712-.03822-1.91112-1.777341.114668.09556 1.681787.535112.516001z" fill="#27241d"/><path d="m-38.298849 63.163588.03822-1.949344-1.892009.114668-.03822 1.796454z" fill="#29241f"/><path d="m-40.362858 63.450256.152889-1.376008-2.216901-.191111.114667 2.044899 1.700898-.0191z" fill="#2f2a23"/><path d="m-40.095304 61.156911 1.739122-.248446-.0191-1.853787-1.739122.401336z" fill="#2c2920"/><path d="m-40.286415 61.94047.07645-1.892009-2.006679.286668.172003 1.509786z" fill="#292721"/><path d="m-38.509071 58.672453-.133779-1.700898-1.720008.114668.401333 1.91112z" fill="#2a2520"/><path d="m-40.248193 59.933793.114667-1.567119-2.255123-.09556.210225 2.044901z" fill="#292520"/><path d="m-38.547296 56.856887.0191-1.93023-1.892011-.133779-.133779 1.433341.229336.745336z" fill="#35312c"/><path d="m-42.235759 58.118227 2.006677.09556-.363112-1.739119-1.911122-.09556z" fill="#2b2a28"/><path d="m-40.649527 56.302662.133776-1.872898-2.006676-.363112.0191 2.178677z" fill="#2a251e"/><path d="m-38.547296 32.91054-.09555-2.140455-1.987566-.191114-.09556 2.044901.172001.535115z" fill="#212117"/><path d="m-40.783305 33.369209.03822-2.427124-1.777344.0191v1.949344z" fill="#45423a"/><path d="m-40.439305 30.21586 1.58623.210222.344004-2.465346-2.00668.15289z" fill="#433e34"/><path d="m-40.745083 30.674528.172-2.025788-2.293345-.267557.03822 2.216902z" fill="#322b23"/><path d="m-40.324637 27.88429 1.872898-.152889-.114667-2.293345-1.796452.363114z" fill="#413a30"/><path d="m-40.725973 28.47674.03822-1.930233-1.968455-.0191.0191 1.700898z" fill="#2e281a"/><path d="m-38.432628 25.246945-.09555-2.083123-1.739122.229336-.03822 2.236009z" fill="#33302c"/><path d="m-42.541538 26.336282 2.044901.114668.07644-2.293345-2.083122-.210222z" fill="#30302a"/><path d="m-40.362858 23.909159-.07645-2.23601-1.796454.0191-.172001 2.08312z" fill="#312e2b"/><path d="m-38.604628 22.858043.133778-2.19779-1.796454-.05733-.05733 1.949344z" fill="#342f28"/><path d="m-38.585517 20.469141-.114668-2.293344-1.452451.09555.267557 2.293347z" fill="#2e2d29"/><path d="m-40.611305 21.501146.439558-1.204005.03822-.688004-2.331566-.286668.172 2.006677z" fill="#38342e"/><path d="m-40.343748 19.34158-.05734-2.121345-2.159566-.09556.458668 1.796454 1.146673.477779z" fill="#33302d"/><path d="m-40.209969 18.118461 1.739119-.152889-.133778-1.834676-1.643565.191113z" fill="#3f3c37"/><path d="m-38.222403 15.978006-.03822-1.930231-2.312456-.03822.114668 2.17868z" fill="#2f2b28"/><path d="m-40.343748 17.048235-.363114-2.02579-1.700898-.15289.133779 2.083123z" fill="#2a2821"/><path d="m-40.305526 13.64644 1.796455.133778.07644-2.159569-1.720008.229336z" fill="#2c2723"/><path d="m-40.725973 14.678444.267558-2.178677-1.624455-.03822-.248443 2.19779z" fill="#30302e"/><path d="m-38.451739 11.448649-.03822-2.1595661-1.433341-.019103-.305781 2.1595661z" fill="#2d2927"/><path d="m-40.305526 12.327764.07644-2.4271232-2.216899.1146682.248446 2.36979z" fill="#2e2e29"/><path d="m-38.48996 9.1553043-.09556-2.0448985-1.758231.019103.401336 2.0448984z" fill="#33312b"/><path d="m-42.08287 9.8815299 1.930234-.038222.09556-.7262256-.439557-1.6435652-1.949344-.1337787z" fill="#2b2822"/><path d="m-38.47085 6.9575137.133779-2.1595662-2.044901.1720004.15289 2.0066793z" fill="#2f2b27"/><path d="m-42.273981 7.2441845 1.853787.1528894-.09556-2.1977905h-1.796452z" fill="#25201d"/><path d="m-40.362858 4.7597258 2.044898-.038222v-2.3889014l-2.121345.1146678z" fill="#2f2e2c"/><path d="m-42.503316 2.7148248.229335 2.4271261 1.892009-.2102247-.267555-2.3889018z" fill="#242321"/><path d="m-37.99307 1.9121557-.09555-2.2169014-1.662676-.0573326-.496892.63066877-.03822 1.91112243z" fill="#2e2924"/><path d="m-42.216648 2.5046027 1.796454-.1337786-.114667-1.91111977-1.892009-.17200298z" fill="#2a2922"/><path d="m-40.305526-.17096708-.172-1.87289812-1.624455.1911112-.324889 1.98756587z" fill="#312e28"/><path d="m-40.286415-.5531921 2.408013.11466777-.07644-1.87289807-2.35068.1528895z" fill="#383834"/><path d="m-42.235759-1.9674217 1.739122-.1146652.133779-.8408934-1.24223-.7453392-.802672.5351145z" fill="#2f2e28"/><path d="m-37.744624-2.9612047-1.662676-.898226-.821782 1.0893399.840893.4013358 1.490676-.095557z" fill="#383530"/><path d="m-37.285955-2.9420938.898228-1.2422267-1.681787-1.2231185-1.223118 1.4715623z" fill="#3e3d39"/><path d="m-40.324637-5.5794393-.879115 1.1848941-.248446.6497823 1.280451.7835582.917337-1.4142296-.191112-.5924471z" fill="#363837"/><path d="m-38.795739-7.280337-1.433343 1.5480082 1.395118 1.0702264 1.223119-1.3377836z" fill="#332e28"/><path d="m-36.88462-8.8092345-1.777341 1.4142297 1.242227 1.3760079 1.490676-1.2995618z" fill="#393631"/><path d="m-33.559267-6.7261117-1.490676-1.5480083-.764448 1.0128938-.516003.5160037 1.356897 1.3377835z" fill="#34332e"/><path d="m-36.521505-6.5541114-1.318676 1.0511155 1.796455 1.2231185.955561-1.070229z" fill="#403d36"/><path d="m-35.275236-10.586965-1.319752 1.1152827.11153.8364643.762111.9294019 1.747276-1.6357494z" fill="#343332"/><path d="m-32.040911-8.7095712-.743524 1.5799858-1.598573-1.5056326 1.301165-1.2825783z" fill="#34312e"/><path d="m-31.743504-8.6909842 1.468456-1.6729238-1.245399-1.245401-1.356928 1.505632z" fill="#32302c"/><path d="m-32.208204-11.107432-1.394106-1.226812-1.579986 1.579986 1.375519 1.3197523z" fill="#2d2c28"/><path d="m-32.059501-11.330489 1.115285-1.040929-1.171048-1.635749-1.394106 1.672923z" fill="#37342f"/><path d="m-30.237871-10.512614 1.375516-1.431279-1.338339-.836462-1.189636 1.115282z" fill="#272016"/><path d="m-29.401407-13.70976-1.282578-1.617162-1.319752 1.133872 1.133872 1.765866z" fill="#28231f"/><path d="m-28.750825-12.055423 1.338339-1.505633-1.282576-.892225-1.282575 1.672926z" fill="#2c2822"/><path d="m-25.64662-14.992335-1.505632 1.468456-1.33834-1.133872 1.319753-1.282576z" fill="#393832"/><path d="m-27.022136-16.126207-1.598572-.780698-1.84022 1.226812 1.394106 1.431279z" fill="#332d28"/><path d="m-25.34921-15.141039 1.133872-1.171048-1.282578-1.263989-1.189636 1.635749z" fill="#57524f"/><path d="m-25.460739-17.83631-1.171046-1.449869-1.84022 2.286334 1.561396.836461z" fill="#312e2a"/><path d="m-25.386386-17.706193 1.003755.929405.892228-.353174 1.115282-1.040932-1.022342-1.301165z" fill="#2e2b25"/><path d="m-23.378876-19.806643-1.487046-1.189636-1.487043 1.63575 1.096695 1.319752z" fill="#3a3427"/><path d="m-20.144554-19.73229-1.487043-1.040932-1.691516 1.208223 1.152462 1.412692z" fill="#2e2d29"/><path d="m-21.854654-20.977692-1.617162-1.505632-1.263989 1.152459.18588.48329 1.394106 1.022345z" fill="#24231e"/><path d="m-21.873244-21.256512 1.765867-1.598573-1.282576-1.338342-1.877393 1.765866z" fill="#27241f"/><path d="m-18.676095-21.684037-1.301166-1.059521-1.710102 1.617163 1.319752 1.022342.799288-.427525z" fill="#2d2b26"/><path d="m-18.620332-21.795566 1.394103-1.226812-1.022342-1.040932-1.505633 1.375518z" fill="#33302b"/><path d="m-21.389953-24.323541 1.579986 1.505633 1.505632-1.449869-1.561398-1.375516z" fill="#302f2b"/><path d="m-17.114699-23.245435 1.82163-1.895981-1.449869-.836464-1.505633 1.654339z" fill="#2e2d28"/><path d="m-16.891642-26.107997-1.505633-1.133872-1.338342 1.561399 1.468459 1.263989z" fill="#282521"/><path d="m-14.958485-25.085652 1.245401-1.895983-1.282578-.799285-1.412692 1.654336z" fill="#383530"/><path d="m-18.062691-27.167515 1.375516 1.022344 1.524222-1.635749-1.691513-1.078108z" fill="#323028"/><path d="m-13.490027-26.851518 1.672924-1.54281-1.096695-1.133871-1.765867 1.524222z" fill="#262218"/><path d="m-14.902719-27.966803 1.394103-1.412693-1.52422-1.263986-1.672926 1.579984z" fill="#4c4b48"/><path d="m-11.55687-28.450091 1.5613966-1.747279-1.3755156-1.115283-1.505633 1.579986z" fill="#242019"/><path d="m-13.26697-29.41667 1.226812-1.505635-1.338341-1.059518-1.319753 1.468456z" fill="#2b2623"/><path d="m-11.278049-31.461356 1.5428091 1.189635 1.1524615-1.654339-1.6357496-1.171046z" fill="#26231e"/><path d="m-11.891454-31.071009 1.43128-1.91457-1.282576-.539054-1.375516 1.63575z" fill="#4f4f51"/><path d="m-10.032647-33.264399 1.672923 1.040932 1.7101026-1.654339-1.5242196-1.208223z" fill="#302d27"/><path d="m-10.311468-33.152872 1.933157-1.970333-1.691513-.650582-.892228.223057-.966578 1.654337z" fill="#474948"/><path d="m-6.6682084-34.230978 1.3197522-1.263988-1.3941054-1.040932-1.2453991 1.375516z" fill="#34312a"/><path d="m-6.7611486-36.554485-1.5056326-1.171048-1.5613989 1.579985 1.8030428.892226z" fill="#2e2f2a"/><path d="m-5.1997524-35.718023 1.7286896-1.524222-1.4312794-1.245399-1.6915157 1.914569z" fill="#34312d"/><path d="m-5.3484562-38.15306-1.1710485-1.059519-1.672926 1.412692 1.468456 1.078109z" fill="#40413d"/><path d="m-4.6421113-38.487644 1.449869 1.152458 1.3755158-1.524219-1.1524588-.966579z" fill="#383326"/><path d="m-4.9766954-38.413291 1.5428092-1.263989-1.5428092-1.487046-1.3941055 1.710103z" fill="#332f27"/><path d="m-1.5379033-38.803642 1.46845604-1.431279-1.33834184-1.487046-1.4312794 1.7101z" fill="#636163"/><path d="m-3.2851825-39.621516 1.3383419-1.579986-1.2082251-1.189636-.8178747.446114-.7621111.817875z" fill="#40403e"/><path d="m-3.1550657-42.614195 1.3011653 1.394106 1.46845598-1.598573-1.61716238-1.003755z" fill="#454440"/><path d="m1.6220657-41.70338-1.39410542-1.524219-1.31975228 1.356929 1.0966953 1.431279z" fill="#312618"/><path d="m1.7707695-41.833496 1.3197522-1.059519-1.4126924-1.338339-1.24539902.966578z" fill="#39352f"/><path d="m-.27391725-42.930192 1.67292595-1.226812-1.91456991-1.189635-1.33833919 1.301165z" fill="#353531"/><path d="m1.8079461-44.342884 1.3197522 1.338342 1.0595187-.966581-.9294019-.985167-.5948177.07435z" fill="#2d322e"/><path d="m1.2874816-44.398648 1.6543364-.76211-1.5242196-1.505633-1.43128207.947991.14870376.631994z" fill="#34332e"/><path d="m1.4547723-46.87086 1.4498691 1.394105 1.5242222-1.784454-1.4870456-1.189636z" fill="#35332e"/><path d="m3.0347581-45.365227 1.2825757 1.412693 2.0260997-1.747278-1.8588063-1.356929z" fill="#3e3f3a"/><path d="m7.4958924-47.372738-1.3383392-1.487044-1.4870457 1.635749 1.672926 1.431281z" fill="#262721"/><path d="m5.7672028-48.580961-1.3383392-1.226812-1.2825756 1.412692 1.3941027 1.189636z" fill="#252420"/><path d="m4.6519206-49.956478 1.2082224 1.2454 1.5428092-1.2454-1.3569288-1.654337z" fill="#323231"/><path d="m7.4029522-47.688735 1.7658662-1.356928-1.3755158-1.412693-.2788206.594818-1.1338719 1.003756z" fill="#454443"/><path d="m9.4104623-49.212955 1.8588067-1.72869-1.3755161-1.338341-1.7101026 1.858807z" fill="#2d2b26"/><path d="m7.4773054-50.123771 1.4312794-1.356928-1.487043-1.375517-1.2082251 1.189636z" fill="#2d2b25"/><path d="m8.8899978-51.685168 1.4498692-1.226812-1.338342-1.412692-1.4312794 1.263988z" fill="#535553"/><path d="m11.325035-51.09035 1.487043-1.579985-1.431279-1.226812-1.356929 1.524221z" fill="#2d2c27"/><path d="m10.432807-53.079272 1.654336-1.840218-1.617159-1.263988-1.3383422 1.728689z" fill="#414141"/><path d="m10.674451-56.239243 1.598573 1.133872 1.133872-1.263988-1.152459-1.524221z" fill="#454139"/><path d="m11.492326-53.971499 1.394105 1.282576 1.115282-1.226812-1.579983-1.226812z" fill="#3f3b36"/><path d="m14.113243-53.952911 1.338339-1.449869-1.487043-1.394104-1.412695 1.561397z" fill="#2d2a24"/><path d="m15.544523-55.458544 1.245401-1.022343-1.561399-1.431281-1.152458 1.040931z" fill="#363431"/><path d="m13.537012-56.536652 1.72869-1.579985-1.226812-1.078107-1.561396 1.301164z" fill="#37352f"/><path d="m17.663563-56.592416-.501878-1.598573-1.82163.167292 1.468456 1.375517z" fill="#3a3732"/><path d="m14.169007-59.269097 1.319752 1.189636.501878-.09294-.539055-1.970334-.762108.09294z" fill="#393936"/><path d="m17.737916-58.246753-.130117-2.323508-1.970336.446114.464703 1.988922z" fill="#1a1814"/><path d="m17.886619-60.38438 2.379271-.03718.0186 2.137627-.724935.03718-.130117-.315997-.780698.130116-.07435.315997h-.70635z" fill="#181713"/><path d="m18.816021-57.335938h.687758l-.130114-1.05952-.650584.05577z" fill="#3a3b39"/><path d="m17.812266-56.499475 1.765866.09294-.09294-.799287-.762111.03718-.18588-.873639-.929402-.01859z" fill="#3a3934"/><path d="m19.726836-56.406535 2.081864-.260233-.148704-1.579985-2.063277.260233z" fill="#363736"/><path d="m22.477871-60.458732-2.137627.334585.05576 1.895982 2.286331-.167293z" fill="#383631"/><path d="m21.938816-56.499475 1.988924-.130117.483287-1.728689-2.620914.148704z" fill="#323431"/><path d="m24.39244-58.46981.09294-2.081863-1.91457.111529.241644 2.044686z" fill="#2b2b21"/><path d="m26.41854-60.681789-1.821632.130116-.03717 2.081863 1.7101-.111528z" fill="#2e2b1e"/><path d="m24.132207-56.666768h2.453624l-.0186-1.803042-1.988923.185881z" fill="#302e28"/><path d="m26.455714-58.655691 1.93316-.09294.01857-1.933158-1.877394.09294z" fill="#2a2b25"/><path d="m26.790301-56.778296 1.579983.260233-.09294-2.156216-1.61716.167293z" fill="#2f2e2a"/><path d="m28.518991-58.804395 1.858806.05576.278821-1.933158-2.044687.167292z" fill="#242219"/><path d="m28.407461-58.544162.11153 1.970334 1.672926.03718.111527-1.970334z" fill="#363530"/><path d="m32.998712-60.588849-2.286331.148705-.167293 1.672925 2.342097.03718z" fill="#252621"/><path d="m30.433561-58.581338-.11153 2.026098 1.895983-.01859.148703-1.91457z" fill="#26231b"/><path d="m32.366717-56.592416 2.583741.07435-.05576-2.044687-2.397861.07435z" fill="#37332c"/><path d="m33.073065-58.692867 1.617162.05576.762109-.539053-.07435-1.468457-2.286333.07435z" fill="#272724"/><path d="m35.043399-58.451222.315997 2.063275 1.970336-.390349v-1.617162z" fill="#232321"/><path d="m35.266456-58.674279 2.360683.204469.11153-1.91457-2.249157-.223057.03718 1.487045z" fill="#38352e"/><path d="m37.478436-56.834061 1.970333.315998.0186-2.11904-1.691515-.07435z" fill="#2a2622"/><path d="m37.850196-58.915923 2.044687.167292-.130117-1.858806-1.877393.09294z" fill="#242623"/><path d="m39.950647-60.774729v1.933158l1.765866.07435.39035-2.026099z" fill="#1d1f1e"/><path d="m39.597473-58.655691v1.988923l1.858806-.07435.09294-1.914571z" fill="#2f2f2d"/><path d="m41.716513-58.655691.03718 2.007511 2.174803-.03718.353171-1.747278z" fill="#272622"/><path d="m41.902393-58.860159 2.453624.371761-.223057-2.230567-1.89598.01859z" fill="#252624"/><path d="m44.467547-58.432634 1.747277-.539053-.446114-1.895983-1.487046.204469z" fill="#232321"/><path d="m44.504721-56.815472 2.453624.111528-.334584-2.119039-2.249154.539054z" fill="#232320"/><path d="m47.088462-56.759708 1.691513.18588.706348-2.137627-2.174804-.278821z" fill="#282722"/><path d="m46.475057-58.971687 1.7101-.09294-.241644-2.119039-1.840216.353173z" fill="#282726"/><path d="m48.278097-59.064628 2.007513.334585.167291-1.654337-.947991-.501878-1.375516.07435z" fill="#23231f"/><path d="m49.746556-58.618514-.687758 1.91457 2.435035.334585.07435-2.156215z" fill="#2c2c2b"/><path d="m52.404648-61.016374-1.72869.03718-.148704 2.119039 2.063274-.07435z" fill="#1e1f1f"/><path d="m51.772653-58.785807-.18588 2.249155 2.453624-.111528.05576-2.156215z" fill="#2d2f2f"/><path d="m54.839685-60.793318-2.267744-.167292.315997 2.119039 1.951747-.130116z" fill="#2d2d28"/><path d="m54.282041-58.860159-.18588 2.156215 1.914572.204469.278821-2.044687z" fill="#2b2823"/><path d="m54.895448-58.878747 2.063274.260233.11153-1.970335-2.044687-.111528z" fill="#34312b"/><path d="m58.018243-56.536652-.167293-2.119039-1.412693.09294-.241643 1.91457z" fill="#2f2a23"/><path d="m59.988577-58.804395-.148704-1.394105-2.435037.03718.09294 1.412692z" fill="#24231c"/><path d="m57.999654-58.599926.223057 1.970334h2.10045l-.130114-1.895982z" fill="#2c2c27"/><path d="m60.118694-60.142735.01857 1.505632h2.156217l-.130117-1.449868z" fill="#35332e"/><path d="m60.323161-58.488398.148706 1.82163 2.565152.204469-.390348-2.100451z" fill="#2d2c25"/><path d="m62.442201-58.599926 2.509388.09294-.09294-1.505633-2.174803-.185881z" fill="#2c2921"/><path d="m64.747121-58.135225-2.0261-.371761.353174 1.765866 1.91457.371761z" fill="#2d2b24"/><path d="m-35.650873 79.219034 1.461564-1.2323-1.662168-1.49022-1.146326 1.289613z" fill="#d8c397"/><path d="m-37.198407 77.470889 1.404244-1.547537-.114631-.257924-2.149358.802429z" fill="#ccb891"/><path d="m-36.052084 75.579455-.401214-1.604852-1.432904.372555-.08597 1.834118z" fill="#c7b486"/><path d="m-36.173592 73.639339-.25827-1.398968h-1.807895l.25827 1.67876z" fill="#d5be91"/><path d="m-35.893797 74.887646 1.93703-.322837-.968515-1.829419-1.09765.624155z" fill="#d1bb8c"/><path d="m-33.870677 74.629376 2.044645-.6672-1.033084-1.76485-1.614192.34436z" fill="#ccb087"/><path d="m-33.268043 76.09291 1.678757-.150659-.02151-1.033081-1.097651-.49502-.731769.32284z" fill="#c6b088"/><path d="m-33.698497 76.114434-.150656-1.355923-2.001599.215225.387405 1.528104z" fill="#baa67b"/><path d="m-33.827632 78.00842.710245-.430454.451975-1.054605-1.872465-.129135-.538064.34436z" fill="#c4b391"/><path d="m-34.236561 80.677216 1.226788-1.226786-1.140695-1.291354-1.24831 1.162219z" fill="#bfaa7d"/><path d="m-33.138908 79.01998 1.463532-1.398969-.796335-.495017-1.291352 1.119172z" fill="#c0b193"/><path d="m-31.460148 77.68558.473496-.279794-.451975-1.42049-1.205264.150659.215228.860904z" fill="#d6c7a3"/><path d="m-30.900562 77.384265.408929.129135 1.248307-.408929-.516541-1.377445-1.398966.301315z" fill="#b6a07a"/><path d="m-29.221802 76.630975.710245.387405 1.312875-.667199-1.18374-1.67876-.83938.215225z" fill="#c6ac7e"/><path d="m-29.307892 75.08135-.774814-1.721805-1.67876.774811.75329 1.635715z" fill="#baa47a"/><path d="m-31.739942 73.940655 1.355921-.731769-.731766-1.700281-1.50658.581109z" fill="#cfbe99"/><path d="m-26.983456 76.458795 1.312875-.990039-.903946-1.743327-1.59267.92547z" fill="#cab797"/><path d="m-25.218606 75.361144 1.377445-1.743329-1.67876-1.119174-.925471 1.183743z" fill="#d6bf90"/><path d="m-23.647457 73.48868.667199-1.463535-1.528103-.92547-.92547 1.054606z" fill="#caaf80"/><path d="m-22.485241 72.111235.688724-1.463534-2.216825-.731766-.451974 1.033081z" fill="#d1bc90"/><path d="m-23.475277 68.62458-.387406 1.205265 2.109211.731766.129135-1.3344z" fill="#cebb94"/><path d="m-28.511557 71.960579-1.097651-1.67876-1.420489 1.119172.990036 1.721805z" fill="#d3c3a0"/><path d="m-28.339377 74.672421 1.119174-.710245-1.205264-1.807895-1.291355.990039z" fill="#bea56f"/><path d="m-27.004977 73.919131 1.549624-1.700282-1.549624-1.657238-1.312879 1.485058z" fill="#ba9f6b"/><path d="m-25.304696 71.63774 1.054605-1.485056-2.001597-.796335-.581109 1.054605z" fill="#c2ae87"/><path d="m-24.508361 69.743754.731768-.559588.06457-.817856-2.044645-.602631-.387405 1.291352z" fill="#bda66e"/><path d="m-27.822836 71.293379.83938-1.140695-1.59267-.860904-.645676 1.054605z" fill="#bfa374"/><path d="m-26.682141 69.87289.387408-1.119175-2.044644-.473495-.150659.624154.602633.624155z" fill="#cebd9b"/><path d="m-28.339377 68.151084 2.216825.451975.17218-1.248309-2.066166-.279795z" fill="#cfb681"/><path d="m-19.256856 71.400991.430451-2.302915-1.872462-.645676-.645678 2.410526z" fill="#d8c5a3"/><path d="m-19.063152 71.508605 1.183741.34436.946994-.645676-.387408-1.59267-1.291352.04304z" fill="#c2ac7b"/><path d="m-17.44896 71.831444.581109.107611.06457-.408929-.408929-.107612z" fill="#baaa92"/><path d="m-15.189091 72.003624-.04305-2.130734-1.76485.107611.322839 1.872464z" fill="#cabda2"/><path d="m-15.038432 72.003624.731766-.02154 1.91551-.495019-.06457-1.485056-.58111-.150659-1.76485.365884z" fill="#cbbd9f"/><path d="m-12.9077 69.743754-.322836-1.76485-1.850941.193702.150657 1.893985z" fill="#bfb39a"/><path d="m-15.167567 67.763679-.06457 1.85094-1.291354.236747-.774811-.387406-.06457-1.67876z" fill="#c9b592"/><path d="m-17.405915 69.55005-1.549625-.688721.193704-.495019 1.248309-.17218z" fill="#b4a687"/><path d="m-19.730351 68.603059 1.807895-.710245-.710245-1.42049-1.42049.882426z" fill="#c1b8a5"/><path d="m-23.604412 68.4524 1.463534.17218.624153-1.549625-1.915507-.365881z" fill="#c3ae83"/><path d="m-25.627535 67.656065 1.743329.301315.02151-1.743326-1.614194-.129135z" fill="#dbd0b3"/><path d="m-23.712026 66.558415 2.152255.322839-1.054605-1.3344z" fill="#cfc1a1"/><path d="m-21.409111 67.074955-.451975 1.24831.344361.75329.602633-.344361.473496-.882425z" fill="#d2c3a2"/><path d="m-14.75864 67.935859 1.829419-.365884-.301315-1.721805-1.678761.365884z" fill="#d3c6b0"/><path d="m-15.124522 67.634544.17218-2.216825-1.67876 1.355921z" fill="#c3b494"/><path d="m-15.038432 65.245539-1.442013-1.205265-.92547 1.205265.860903 1.312876z" fill="#d4c5a6"/><path d="m-17.94398 67.569975 1.269833-1.01156-.860904-1.16222-1.119171.968515z" fill="#b09c7a"/><path d="m-19.945577 67.074955 1.355921-.990036-1.312876-1.721805-.75329.860901-.753289 1.657239z" fill="#baa788"/><path d="m-17.922456 65.482285 1.119174-1.635715-1.549625-.710245-.990039 1.549625z" fill="#ccc0a9"/><path d="m-27.973493 66.881254 2.023121.129135-.236749-1.76485-1.915507.473496z" fill="#d8c29e"/><path d="m-25.670581 65.224015 1.183744-1.291355 1.614191 1.549625-.903947.624155-.882425-.02151z" fill="#bdae94"/><path d="m-24.314657 63.889615.92547-1.226785 1.485056 1.26983-1.033081 1.183744z" fill="#c4b398"/><path d="m-23.130917 62.598264 1.377445 1.248306 1.269831-1.59267-1.269831-1.549622z" fill="#c3b093"/><path d="m-21.667382 63.954184 1.033082 1.07613 1.205264-1.205265-1.076129-1.50658z" fill="#d1c7b6"/><path d="m-22.808077 65.245539 1.334397 1.463535.688723-1.528104-1.140695-1.183741z" fill="#c6b99e"/><path d="m-19.687306 61.586703.624154-1.485058-1.721805-.860902-.774814 1.442011.731769.6672z" fill="#c7b398"/><path d="m-19.127721 63.93266 1.377445-1.700281-1.76485-.75329-.92547.731766z" fill="#c7b9a1"/><path d="m-17.750276 62.103244 1.076129-1.980075-1.67876-.688724-1.09765 1.915509z" fill="#baab99"/><path d="m-16.458921 60.0586.322839-1.42049-1.893988-.731766-.344361 1.334399z" fill="#b5a889"/><path d="m-16.329786 58.336794.710245-1.721805-1.59267-1.18374-.344361.538064-.473498 1.850941z" fill="#e0d1bc"/><path d="m-18.675746 59.82185.516541-2.10921-1.743327-.688721-.581109 2.195301z" fill="#af9b73"/><path d="m-19.88101 56.658034 1.786374.882426.473495-1.786372-1.85094-.602633z" fill="#e2ded2"/><path d="m-19.149242 53.429649 2.281391.451975-.473495 1.549625-1.549625-.236749-.559586-.731766z" fill="#cab89b"/><path d="m-19.299901 53.214424 2.238346.49502.04305-2.17378-1.980078-.538064z" fill="#c6b196"/><path d="m-18.697267 50.868464 1.915506.516544-.107611-2.582709-2.023123-.06457z" fill="#ceba9f"/><path d="m-19.106197 46.628519 2.17378-.193701.150656 2.259867-2.173779-.129135z" fill="#c4b085"/><path d="m-28.25329 66.881249-.495019-2.733366-1.937031.365882.172181 2.152258z" fill="#caaf78"/><path d="m-30.792951 66.90277.08609-1.829417-1.076129-.538064-.710245.408929.02151 1.980076z" fill="#d7c297"/><path d="m-28.619174 68.49544.236749-1.291355-2.10921-.34436.25827 1.269833z" fill="#c9b384"/><path d="m-30.706861 68.237169 1.76485.365885-.408929 1.35592-1.269831-1.312875z" fill="#c0ac83"/><path d="m-31.632331 68.861324 1.076127-1.205264-1.442011-.6672-.92547.817859z" fill="#baa67b"/><path d="m-33.741544 69.76527 1.269833-1.09765-.860904-1.269831-1.59267.83938z" fill="#d7c3a0"/><path d="m-31.137314 70.970535 1.42049-.796335-1.183741-1.657236-1.442011.796335z" fill="#c5af7c"/><path d="m-31.61081 71.142715-.83938-1.807895-1.657236.774813.602631 2.087687z" fill="#d1bd9a"/><path d="m-36.109025 72.713864 2.410526-.451975-.710242-2.130734-2.044645.51654z" fill="#c3a96f"/><path d="m-36.625566 71.982095.08609-1.67876-1.829419.02154.129135 1.614191z" fill="#dec495"/><path d="m-38.347371 70.08811 2.130734.17218-.279794-2.195301-1.872464-.279794z" fill="#cfb074"/><path d="m-36.109025 70.367904 1.893985-.473496-.92547-1.657239-1.312876-.17218z" fill="#cfba92"/><path d="m-36.06598 66.127959 1.786374.387405.08609-1.93703-1.893985.02151z" fill="#d9c096"/><path d="m-36.324251 67.806719 1.485056.236746v-1.140695l-1.420489-.6672z" fill="#ceb48d"/><path d="m-34.602445 67.806719 1.248309-.538065-.02151-.731766-1.35592.107611z" fill="#b7a076"/><path d="m-38.23976 67.397789 1.76485.344361-.02151-2.109211-1.571149.04305z" fill="#c6ae89"/><path d="m-32.945209 64.901173-1.097651-.08609v1.226786l.688724.387405.538062-.430451z" fill="#a38854"/><path d="m-36.453386 63.566773-1.549625-.02151-.215225 1.76485 1.226786.258273z" fill="#ccb48c"/><path d="m-27.995019 65.353145 1.786374-.75329-.796335-1.678757-1.721805.946991z" fill="#b09f85"/><path d="m-25.842763 65.051829 1.312878-1.59267-1.355923-1.119171-.774812.75329z" fill="#d0c7b7"/><path d="m-10.841534 71.400985.451972 1.721805-1.334397.279795-.624155-1.463535z" fill="#c4ba9d"/><path d="m-8.6677573 72.886044.064569 1.807895-1.8724647.06457-.17218-1.463534.387406-.193702z" fill="#cdbd9e"/><path d="m-8.7323235 76.609446-.2582704-1.786372-1.8939881.107612.301318 1.59267z" fill="#a49d85"/><path d="m-12.240503 76.88924 1.571149-.559586-.365884-1.226788-1.721805.58111z" fill="#c3b599"/><path d="m-11.142852 75.102866-.344361-1.657236-1.26983-.02151.60263 1.937031z" fill="#b6a68c"/><path d="m-14.392758 73.919125.774811 1.226789 1.205264-.279795-.430451-1.248309z" fill="#c2b195"/><path d="m-14.285144 72.175799.150656 1.635715 1.205264-.25827.860902-.860904-.473496-.817856z" fill="#c5b89b"/><path d="m-14.263623 77.793189 1.872464-.559589-.796335-1.980075-1.528104.602631z" fill="#c4b38c"/><path d="m-16.265223 74.736984 1.011561 1.269831 1.549625-.774811-1.183741-1.571149z" fill="#c5b087"/><path d="m-14.457327 72.154275.150659 1.50658-.774811-.25827-.882426-1.140696z" fill="#bfb594"/><path d="m-16.415879 74.758505 1.226786-1.377442-1.07613-1.183743-1.01156 1.24831z" fill="#d2c2aa"/><path d="m-16.415879 78.30973 1.786371-.624155-1.01156-1.93703-1.786371.946991z" fill="#c7b285"/><path d="m-15.985428 75.55484-.602631-.60263-.83938.667199-.6672-.02151.473496.990039z" fill="#a6926e"/><path d="m-16.609583 74.844596-.817856-1.355921-.301316.301315-.129135.516544-.408929.215225.624154 1.033081z" fill="#cabc9b"/><path d="m-17.083079 72.154275-.903949 2.109214-1.248307-.365885-.796334-.731768 1.076126-1.377442z" fill="#c5b08a"/><path d="m-19.472084 76.092905.990039-1.614191-1.67876-1.183743-.968515 1.528103.581107.731766z" fill="#d4bb97"/><path d="m-20.160805 73.187359.92547-1.291354-1.205264-.559586-1.09765-.279794-.6672 1.205264z" fill="#b9ab8e"/><path d="m-21.990224 75.533319.946994-1.033084.710245-1.248309-2.389005-1.011561-1.226785 1.980076z" fill="#cdb184"/><path d="m-23.690505 76.824671 1.528101-1.248307-1.872464-1.26983-.774811.990036z" fill="#b29a6e"/><path d="m-25.842763 78.159071 1.59267-.860902.451974-.430453-1.183741-1.549622-1.635715 1.033081z" fill="#c5b28c"/><path d="m-27.973495 79.041496 2.087687-.731766-.882426-1.850941-2.001596.75329z" fill="#c5ab7d"/><path d="m-30.319455 79.66565 1.614191-.51654-.322837-1.937031-2.238348.624155z" fill="#c5b790"/><path d="m-31.503196 80.784825 1.097651-1.097651-1.24831-1.85094-1.528101 1.291352z" fill="#c2ad7e"/><path d="m-32.428666 82.119222.946992-1.226786-1.485056-1.312876-1.226786 1.183741z" fill="#c3a573"/><path d="m-31.244925 83.453621.946991-1.420489-1.01156-.925471-.882425.990039z" fill="#d0b588"/><path d="m-28.726785 81.215275-.516541-1.76485-1.528104.645676.387406 1.614194z" fill="#cbb187"/><path d="m-27.284774 80.806346-.107612-1.807895-1.721805.451974.387406 1.571146z" fill="#a48e5e"/><path d="m-25.390789 80.461985-.34436-1.893985-1.635715.344361.279794 1.786374z" fill="#bba161"/><path d="m-23.47528 79.192155-.796335-1.786374-1.59267.860904.83938 1.420489z" fill="#c7ad7d"/><path d="m-23.260054 79.192155 1.35592-.882425.258271-.92547-1.140696-1.16222-1.334399 1.269831z" fill="#d2b789"/><path d="m-21.258455 75.016776-1.291355 1.140698 1.226786 1.614191 1.162219-1.09765z" fill="#b09b79"/><path d="m-19.020109 78.137549 1.291354-.903949-.451974-1.657236-1.937031 1.033082z" fill="#ccb899"/><path d="m-22.033269 78.524955.602631.710245 1.119174-.04305 1.16222-.968515-1.054606-1.312876z" fill="#b7a68a"/><path d="m-16.351313 79.019975-.882425-1.82942-1.571146 1.140696.688721 1.269833 1.205264-.08609z" fill="#bead8e"/><path d="m-18.955543 80.957005.602634-.602634-.06457-1.076126-.710245-.968515-1.614191 1.248309-.129136 1.312876z" fill="#cfb27c"/><path d="m-22.89417 80.677211 1.93703-.02151-.602633-1.377445-.602631-.645675-.946991.559585z" fill="#c8b89c"/><path d="m-23.001784 81.107661-.322839-1.635715-2.109211.32284.25827 1.506579z" fill="#beac89"/><path d="m-30.01814 84.551272 1.097651-1.506578-.817857-1.076129-1.398968 1.59267z" fill="#d2ba89"/><path d="m-28.188721 83.023171.774811-.516541.215226-1.140696-.258271-.258273-1.312875.215228-.774814.645676.602633.968515z" fill="#cdbd9b"/><path d="m-25.778195 83.109261.710245-.645676.215226-.817859-.882425-1.033082-1.721806.301316 1.140696 1.657236z" fill="#c3a97e"/><path d="m-27.198684 84.960201-1.829417-1.614191-.92547 1.42049 1.442011 1.226785z" fill="#d6c09a"/><path d="m-26.8328 84.981725.903946-.946994.23675-.75329-1.183741-1.205264-.451974.581109-1.3344.774814z" fill="#c6b185"/><path d="m-27.048025 87.349206 1.334399-1.162219-1.291354-1.226786-1.377445 1.119174z" fill="#c8b084"/><path d="m-25.562969 86.100896 1.355921-1.334396-1.420487-1.183744-.23675.602634-.860904.903946z" fill="#ccbb9b"/><path d="m-24.14248 84.615841.968516-1.721806-1.743329-.667199-.624152 1.26983z" fill="#b9a171"/><path d="m-22.937215 82.829466.17218-.990036-.236749-.6672-1.743326.172181-.129138.796334z" fill="#b9aa89"/><path d="m-21.000185 82.85099.473496-1.893985-2.152256-.17218-.107614 1.915506z" fill="#c1ae8b"/><path d="m-23.978374 63.147782.960112-.929137-1.533081-1.223367-1.068509 1.409194.991082.805254z" fill="#bca680"/><path d="m-23.033748 61.816018 1.269822-1.362737-1.393708-1.099481-1.238851 1.440164z" fill="#af9c73"/><path d="m-21.593584 60.375851 1.006567-1.858277-1.734391-.650396-.418113 1.037537.01548.71234z" fill="#bfa88a"/><path d="m-20.602503 58.114947.449083-1.378223-1.796333-.480055-.09291 1.502109z" fill="#7d6a48"/><path d="m-21.175471 54.413878-.1084-1.471136 2.044105.402627-.294228 1.56405z" fill="#9b8562"/><path d="m-20.014048 56.64381.480054-1.625991-2.05959-.526513-.278741.774282.170341.913654z" fill="#baa07a"/><path d="m-19.410108 53.175028.340683-1.873764-1.997646-.03097-.185828 1.610508z" fill="#d1c4b2"/><path d="m-20.803816 50.71281 1.951191.07743-.1084-1.238851-.387141.263255-1.502106.201314z" fill="#c7b8a4"/><path d="m-18.945539 49.412015-.356169-1.67245-1.79887.429321.261522 1.706121z" fill="#ae996e"/><path d="m-19.830327 47.733017.79702-1.407237-1.506865-.946462-.871741 1.382331z" fill="#c4b797"/><path d="m-18.771785 46.226151.909101-1.656305-1.830655-.896646-.747207 1.656305z" fill="#ae9e7e"/><path d="m-17.501536 44.657019.697392-1.880468-2.14199-.647578-.684938 1.494411z" fill="#b5a180"/><path d="m-16.256192 40.933445-1.905376-.635124-.460777 1.768385 1.830654.647578z" fill="#a69675"/><path d="m-15.869022 39.134625-2.240706-.339135-.06056 1.417095 1.999271.658871z" fill="#d5cebf"/><path d="m-15.804324 37.067173-2.177864.02775.05549 1.234585.277437.416153 1.775582.277434z" fill="#d1c19d"/><path d="m-18.009933 36.970071 2.233351-.02774-.416153-1.664607-1.900428.540996z" fill="#d6cab6"/><path d="m-18.578673 33.876672.110974 1.234585.346792.513255 1.761712-.679715-.416152-2.15012z" fill="#ddd3c3"/><path d="m-18.426085 33.599237 1.678482-.97102.305178-.443897-.735203-.762947-1.650738 1.262329z" fill="#cbbb9a"/><path d="m-13.085463 33.266315-1.692351-1.012637-1.26233.749075 1.470406 2.06689z" fill="#b4a480"/><path d="m-14.722329 34.972541-1.303943.624229-.679717-2.594017h.610356z" fill="#cbc1aa"/><path d="m-15.984658 32.83629 1.068125-.665842-1.373304-1.83107-.832305.88779z" fill="#d5c3a4"/><path d="m-13.043846 33.183085 1.095867-1.220714-1.803326-1.276201-1.109742 1.151355 1.886558 1.387176" fill="#d1c1aa"/><path d="m-12.1838 31.684937 1.151356-1.373304-2.150121-1.026509-.693587 1.290074z" fill="#d2c9b5"/><path d="m-14.777814 31.352015 1.109739-1.234586-.277437-.56874-1.331688-1.040382-1.040378 1.706224z" fill="#d7ccbc"/><path d="m-11.337623 30.075813.527127-.208076.457766-1.373302-1.636866-.693586-1.109739 1.442661z" fill="#c1b6a1"/><path d="m-13.917768 29.479328 1.151356-.818433.499382-.679714-1.9143-.915535-.915535 1.359432z" fill="#ccb99c"/><path d="m-9.5342968 26.677237-1.7062242-.430024-.776816 1.553636 1.83107.624229z" fill="#d0c4a7"/><path d="m-12.169928 27.897951.790689-1.49815-1.886556-.846175-.873921 1.303943z" fill="#c3b196"/><path d="m-10.422088 24.776807-1.317815-.596485-.998765.346795-.430025.887791 1.456534.721331 1.123611.221948z" fill="#c2ac85"/><path d="m-9.7285009 24.762935-.3884081 1.622994 2.108504.610359.2080763-1.34556z" fill="#cabea9"/><path d="m-7.6893546 26.843697 1.290074-.180332.9710208-.554871-.3745362-1.303943-1.9420443.360664z" fill="#baa576"/><path d="m-1.33283 22.150074-1.4461067-1.062448-.7525676 1.328058 1.1214735 1.047691z" fill="#bfbcae"/><path d="m-2.5871058 23.581425-1.0624476-1.04769-1.2100084 1.224765 1.3858981.646935z" fill="#e0e1dc"/><path d="m-5.9501451 24.609804.9016312 1.118024.6611963-.793435-.6732164-1.238242z" fill="#d6ceb9"/><path d="m-1.7919615 21.739618.7319513-.289732.74720184-1.189424-1.49440104-1.174173-1.3114152 1.250418z" fill="#d8cab0"/><path d="m.9528604 20.794179.5337148 1.723136-1.06742965.731954-1.60114715-.518467-.1982365-1.036933z" fill="#a2916c"/><path d="m-.60253769 19.681001 1.38765755 1.067429 1.02168324-1.768885-1.50965163-.792948z" fill="#d1c2a9"/><path d="m-.77027823 19.635254 1.0064353-1.524902-1.34191377-1.143675-.8691932 1.753637z" fill="#c4b79e"/><path d="m3.0572239 19.650502-1.1894238-.625208-.86919325 1.69264 1.28091665.853943z" fill="#e3ded1"/><path d="m4.2313971 22.212335.3049799-2.150109-1.4029081-.396473-.6862075 1.951871z" fill="#ae9662"/><path d="m6.7779799 22.761301-.1829885-2.241606-1.9518709-.365974-.274484 2.089113z" fill="#d9cfb3"/><path d="m8.0588966 21.861609-1.2351702-.04575.076245.960686 1.3266658.30498z" fill="#4b6e77"/><path d="m7.9216572 21.587128-.030499-1.418159-1.1284267-.04575.030499 1.509651z" fill="#3f6a7a"/><path d="m7.9216572 20.077476.1677379-1.372412-.4269713-.121992-.7014554.686205-.076245.503217z" fill="#45646b"/><path d="m12.359117 21.785364-1.06743.13724-.061 1.25042 1.113179.259231z" fill="#373f43"/><path d="m11.200191 23.112027-.335475-.808196-1.1589258-.04575v1.601147z" fill="#84998c"/><path d="m9.5685482 23.813483.030499-1.585897-1.3876601-.274484.2744813 1.326663z" fill="#2a2b3e"/><path d="m12.31337 23.569497.04575 1.479153-.960687.167741-.259233-1.84513z" fill="#2f3233"/><path d="m11.901647 25.50612 1.311415-.655706-.01524.869193-.670954.792948z" fill="#40554e"/><path d="m12.481108 21.800612 1.23517.106744-.289732 1.311415-.838695-.213487-.182988-.365977z" fill="#1e4347"/><path d="m13.945013 21.800612.808199.869193.04575.655709-.426974.350727-.884441-.289732.167738-.884442z" fill="#21232e"/><path d="m12.374367 23.005284 1.158923.442222-.28973 1.219919-.792948.350727z" fill="#1d2b33"/><path d="m14.021258 24.804667.670957-1.006435-.945438-.198236-.45747 1.08268z" fill="#425557"/><path d="m11.047701 23.417007.289732 1.784133-.62521.0915-.9759342-1.250418z" fill="#6b6e5e"/><path d="m10.574984 25.323134-.472721.274482-.7167033-1.113179.518467-.106741z" fill="#403b26"/><path d="m9.5228018 23.859229-.9149398-.381225.7167034.91494.5032163-.0915z" fill="#887c65"/><path d="m15.027693 25.933094.853943-1.38766-1.265666-.381225-.594712.884441z" fill="#e2d2c2"/><path d="m15.759645 24.423443.579464-.579464.243983-.884442-1.585897-.15249-.320228 1.250419z" fill="#cdbb99"/><path d="m13.457045 27.80872 1.006435.960689.777698-1.128427-1.387658-.655706z" fill="#cfc6b5"/><path d="m13.807771 26.832786 1.448657.716703.411724-1.189424-.960689-.564213z" fill="#e5d9ca"/><path d="m13.441797 27.625734.396473-.670957-.60996-1.067429-.625208.762449z" fill="#a99976"/><path d="m14.646469 25.689109-.869194-.838695-.533715.747202.533715 1.067429z" fill="#d9c8ab"/><path d="m16.369605 28.083204.426974-.792948-1.113179-.670957-.320228.945438z" fill="#e1c9a4"/><path d="m18.016498 27.930714-1.189421-.686207-.350729.853945 1.158925.838695z" fill="#bcaf94"/><path d="m18.748449 29.50136.716704-.838695-.15249-.457469-1.006433-.518467-.289732.335478-.243983.945438z" fill="#dfd6c5"/><path d="m19.84638 30.218063.60996-.945438-.975937-.442219-.640458.747199z" fill="#ded8cb"/><path d="m21.889747 30.11132-1.326663-.716703-.579464.853945 1.265668.792948z" fill="#e3d6c1"/><path d="m22.423462 31.971701.792948-.975937-1.21992-.792948-.655709.914939z" fill="#d8c8a9"/><path d="m20.380095 32.352926.838695-1.189424-1.250418-.76245-.426974.91494.365977.716703z" fill="#d7cbb8"/><path d="m21.737257 33.206868.808196-1.006432-1.21992-1.006436-.716703 1.113179z" fill="#cfc3a7"/><path d="m23.3689 33.603344.823447-.991185-1.143678-1.23517-.548962.655706z" fill="#d5cebc"/><path d="m25.320773 33.664341.89969-1.052182-.975935-.869193-1.113178 1.067429z" fill="#dedacd"/><path d="m27.150653 34.167557.548965-.884441-.061-.503219-1.021683-.60996-.655706.945438z" fill="#dfd1b5"/><path d="m29.453253 33.237367-1.036931-1.082678-.701456.686205.09149.747202.350729.381225.670957-.137242z" fill="#d8c8a5"/><path d="m30.185207 35.433223.182986-1.250418-.808197-.884441-.747202.823447.884444 1.143674z" fill="#d1c3a4"/><path d="m27.882604 35.417975.564214-.350726.365976-1.097928-.716703.07625-.426971-.45747-.655709.91494z" fill="#b2a689"/><path d="m33.326501 35.783952.121992-1.311415-1.158925-.213487-.243983 1.296167z" fill="#ded0b5"/><path d="m30.261452 35.356978 1.707888.259234.198236-.975937-1.723138-.30498z" fill="#e4e2d3"/><path d="m33.722974 36.287169 1.372413-.228735-.167741-1.021684-1.463905.106744.0305.60996z" fill="#ddd1bc"/><path d="m36.72703 35.905944-.106744-1.479153-1.54015.0305.106743 1.433407z" fill="#dcccb5"/><path d="m38.175684 35.585716-.213484-1.204672-1.311415.213484.228735 1.311416z" fill="#191829"/><path d="m39.334609 34.41154.15249 1.265669-1.250418-.167738-.137242-1.311415z" fill="#2e463f"/><path d="m39.487099 35.006252.09149 1.143675 1.494404-.01524-.30498-1.311416z" fill="#262537"/><path d="m41.759201 36.653145.853945-1.814631-1.418159-.518467-.198236.991185.137242.899692z" fill="#2c4847"/><path d="m42.918126 37.522339.747202-1.143675-1.311415-.655709-.548966 1.006435z" fill="#272b37"/><path d="m42.399659 35.585716 1.341914.76245.442219-.899692-1.204669-.579462z" fill="#1d2338"/><path d="m44.26004 37.827319.686205-.716704.04575-.487968-.975937-.60996-.731951 1.204672z" fill="#2d595f"/><path d="m45.647697 35.387477-.930187-.686205-.655709 1.23517 1.052181.579461.472721-.365976z" fill="#1e4e53"/><path d="m44.351533 37.827319.747202 2.241603.777697-.381225-.01524-1.052182-.365977-1.097928-.487968-.320228z" fill="#3b7787"/><path d="m46.013674 41.395587-.899692-1.219922.960689-.487968.686205.884444z" fill="#2c5259"/><path d="m45.983176 43.286464 1.067429-.7777.061-.777701-.472717-.472718-1.204672.975937z" fill="#2c2e41"/><path d="m48.651753 41.273593-.91494-.960686-1.128427.777698.76245.853945z" fill="#2e3e5a"/><path d="m46.776124 44.262398-.853943-.396473.731952-1.021683.411723.15249.503216.640458z" fill="#2e5557"/><path d="m47.553824 45.101095-1.021683-.518466h-.548965l-.396473.686204 1.723136.76245z" fill="#1b213a"/><path d="m47.599571 43.698187-1.052182.808197.869193.487968.838695-.975937z" fill="#4c7584"/><path d="m46.242409 47.540935.655706-.350727.457473-1.097928-1.738389-.76245-.930188 1.509652z" fill="#c8b69b"/><path d="m43.253604 50.834722 1.692641-.365977.381224-.503216-.0915-.762453-1.265666-.487968-.869193.869196z" fill="#b8a57f"/><path d="m45.708694 49.294572.716704-1.357162-1.829882-.808199-.472718 1.433407z" fill="#c0ac89"/><path d="m44.748006 53.045826-.884442-2.241603-2.241603 1.387661 1.921375 1.479153z" fill="#b0a07c"/><path d="m46.181412 54.799464-.777698-1.890877-1.860378.869193.89969 1.646891z" fill="#b5a382"/><path d="m46.97436 51.978397-1.067429-1.814632-1.799384.975937 1.341914 1.768885z" fill="#beae93"/><path d="m45.449461 57.77302 1.54015-1.494403-1.189424-1.326664-1.738386 1.265667z" fill="#d4c5ac"/><path d="m48.209531 57.895012-1.21992-1.463905-1.372412 1.311415 1.372412 1.646891z" fill="#c7b696"/><path d="m48.71275 60.273857.945438-.975937-1.280917-1.463905-1.158925 1.402908.884441 1.08268z" fill="#bcac91"/><path d="m51.335577 61.493776-.853945-1.616395-.731951-.640458-1.174173 1.265669 1.021683 1.738386z" fill="#c9bfae"/><path d="m50.329142 64.086108 1.479156-.991185-.564213-1.372412-1.906128.640459z" fill="#ddd4c2"/><path d="m51.457569 65.504264 1.753637-.15249-.137242-1.890876-1.402908-.15249-.716703.60996z" fill="#ccbfa3"/><path d="m51.594811 67.74587 2.211104-.228735-.503216-2.165361-1.860378.259234z" fill="#d4c8b0"/><path d="m53.714422 68.020351-.686204 2.256854-1.235171-.564214-.365977-1.860378 1.113179-.121994z" fill="#e2decd"/><path d="m50.893356 71.771606 1.265668-1.036931.01524-.716704-.518467-.30498-.503216-.594712-1.296165 1.113179z" fill="#c0b399"/><path d="m49.200715 69.758738 1.936626-.960686-.686205-1.296168-1.99762.365977z" fill="#b6aa90"/><path d="m52.494503 70.566937-1.738387 1.433406.853943 1.082678.945438-1.326663z" fill="#d4c9b0"/><path d="m53.821166 74.226698.579461-1.646893-1.829879-.503217-.518467 1.418156z" fill="#d7ceb2"/><path d="m50.710367 76.026079 1.494404.365977.381225-2.333098-1.463906-.533715z" fill="#d5c6ab"/><path d="m53.394195 75.873589.152489-1.509651-.899691-.259234-.106744 1.753637z" fill="#cbc0ac"/><path d="m51.976036 78.313431.01524-1.936623-1.097928-.243985-.426972 2.028118z" fill="#c6b48e"/><path d="m53.180708 78.34393.182988-1.967122-1.021683-.182988-.198239 1.799381z" fill="#c8ba97"/><path d="m51.335577 80.158561.487969-1.69264-1.585897-.32023-.289732 1.509651z" fill="#d4c7b2"/><path d="m53.089212 80.143311.061-1.67739-1.06743-.243985-.32023 1.372412.381225.472718z" fill="#d6caac"/><path d="m52.967221 81.835951.213487-1.5249-1.860378.13724.121991 1.341913z" fill="#e4d7b7"/><path d="m51.137341 80.372046-1.402908-.60996-1.052182 2.01287 1.174173.731952.899692-.945439z" fill="#d5c5ab"/><path d="m49.764929 83.055873 1.326666.01524.09149-1.814631-1.433406 1.448654z" fill="#cec19c"/><path d="m53.043465 83.833571-.07624-1.906125h-1.723136l-.07625 1.707888z" fill="#daca9f"/><path d="m49.444701 83.177865-.579461-1.250419-1.69264.869194.487968 1.158922z" fill="#d0c6b0"/><path d="m45.815438 85.876937 1.265666-1.509651-1.433407-.243983-1.265666.365977 1.204672 1.326663z" fill="#c8b791"/><path d="m49.337957 84.94675-.061-1.372413-2.134859.60996.289732 1.113179z" fill="#dcccaf"/><path d="m45.312219 85.892188-1.463903-1.341914-.426974.121992.640459 1.479155z" fill="#c9bba6"/><path d="m41.865944 86.79188 1.875629-.640459-.686205-1.70789-.503219.487968z" fill="#c0ae87"/><path d="m41.820198 86.136171.579461-.960686-.289729-.533715-.731954.335475z" fill="#bfb799"/><path d="m41.530466 86.883373-.213485-1.921375-1.799383.442221.167738 1.646891z" fill="#d4c4a1"/><path d="m37.946949 87.24935 1.616395-.243986-.167738-1.570646-1.570648.487968z" fill="#c5b086"/><path d="m36.589788 87.310344 1.280916-.121992-.09149-1.143674-1.54015.09149z" fill="#ccc1a6"/><path d="m36.528793 88.606511v-1.463905l-1.174173-.0305.213484 1.707888z" fill="#e9ece5"/><path d="m36.467796 87.035863-.289732-.792949-.960686.640459.07625.15249z" fill="#d4d0bd"/><path d="m32.823282 90.070414-.884441-1.646891-.442222.396473-.228735 1.402908.411724.243985z" fill="#cab793"/><path d="m34.546421 89.734938-.350726-1.555401-1.768885.991188.579461.853942z" fill="#c7b297"/><path d="m35.735845 89.628194-.335479-1.38766-1.052181.259234.30498 1.296164z" fill="#c1ad8b"/><path d="m34.317686 88.423523 1.097928-.243986-.121991-1.006432-1.097928.137239z" fill="#c6b198"/><path d="m33.524738 88.515016.701455-.426972-.137242-.93019-1.036934.503219z" fill="#8a5f3d"/><path d="m32.396311 89.124975 1.036934-.609959-.426974-.869194-1.097928.548966z" fill="#a38863"/><path d="m31.100146 90.421143.350727-1.677392-1.189421 1.296167.442219.350726z" fill="#dcd3ba"/><path d="m30.261452 91.717307.838694-1.143674-.442221-.0305-1.052182-.853945-.670957.945438z" fill="#c1b18f"/><path d="m28.797547 92.937227 1.189421-.975934-1.265666-1.296167-1.036934.960688z" fill="#cdb88f"/><path d="m26.372953 93.272705 1.158925 1.250419 1.357161-1.174174-.991184-1.113176z" fill="#bba677"/><path d="m26.311958 93.226959 1.601145-1.113176-1.021684-1.250421-1.616395.991187z" fill="#d1bd9a"/><path d="m24.085603 94.294389.777698-.121992 1.341914-.838695-.960687-1.296164-1.601147.335476z" fill="#c3ac7d"/><path d="m24.039857 94.340138-.518467-1.967124-1.936623.564213.167738 1.402911.670957.30498z" fill="#c8b58c"/><path d="m20.197107 94.751859 1.463905-.06099-.15249-1.967121-1.326666.320228z" fill="#d6ccb5"/><path d="m20.029366 94.767109.04575-1.677392-1.067432-.04575.01524 1.524902z" fill="#d1c5a9"/><path d="m17.772515 93.943662-.259233 1.235171 1.174173.01524.259233-.60996-.0305-1.097928z" fill="#e7e8e2"/><path d="m16.628838 93.745426-.167738.975937 1.021683.167738.289732-1.402909-.869193-.07625z" fill="#e6dfce"/><path d="m14.646469 93.013472 2.089112.487968.533715-1.265666-2.134859-.594712z" fill="#bda37a"/><path d="m13.014823 92.556002 1.585899.381225.533715-1.5249-1.814632-.442221z" fill="#a3926e"/><path d="m10.544485 85.998931-.182988 1.967122-2.1501104-.747202.8081988-1.54015z" fill="#c9bb95"/><path d="m8.0741472 90.222904 1.8146315.0305.091493-.991185-.2897319-1.38766-1.5706461-.30498z" fill="#d9cdad"/><path d="m8.6536085 92.449259 1.9976205-.579462-.518467-1.311415-.4727182-.243983-1.4639052.0305z" fill="#d3c297"/><path d="m9.2483204 93.486192 1.7231356.625211.60996-1.84513-1.372409-.167741-.7776981.274482z" fill="#e3d4b6"/><path d="m12.404863 94.706112.487968-1.99762-1.326663-.01524-.564213 1.555398z" fill="#cdbfa2"/><path d="m10.895211 88.835246-.411723-.853945-.5642134.45747.1219944.716703.716703.07625z" fill="#4d483f"/><path d="m10.071765 89.277465-.1219919.853946.4879689.45747.503218-.0305.381225-.335478-.640458-.731952z" fill="#2f3c56"/><path d="m11.322185 90.466889-.899691.472718.304979.960689.548963.121991.396476-.289732-.365977-.625207z" fill="#2e323c"/><path d="m12.328618 90.939607-.640458.838697.121994.792949.930187.04575.426974-1.23517z" fill="#2e3950"/><path d="m12.252373 90.741371-.533715-.564214-.365977.121992.335479 1.067432.274484-.167741z" fill="#566b60"/><path d="m5.9850316 84.245294 1.2961673-.594712-.7929483-2.058614-1.2961673.625208z" fill="#d3be96"/><path d="m7.4031903 83.986061-1.1741732.274481.1829885 2.363597 1.357159-1.768885z" fill="#d3c39c"/><path d="m7.9674037 86.79188.8691933-1.097931-.8844439-1.113176-.1067435.411723-1.1131762 1.54015z" fill="#d5c6a4"/><path d="m7.9369052 86.852874-2.2416029-.182988-.2744841 2.333098 1.2961673.274481 1.2199197-.655706z" fill="#dcc9a2"/><path d="m8.3486286 91.259837-.6252104-1.875628-1.4029082-.076245-.7167033.91494.5947119 1.311415 1.1741732.121991z" fill="#d9c49a"/><path d="m6.3815071 93.669181 2.0891129-.198236-.137242-1.494404-1.0369312-.259234-1.1741732.182989z" fill="#dacca3"/><path d="m3.3012068 84.413032 2.3788449-.213484-.6404584-1.875629-1.6773895.259234z" fill="#ddccac"/><path d="m3.7434287 82.445911-.2592334-1.387658-1.2351703-1.204672-.6557063 1.707888.6099599.899692z" fill="#d0be97"/><path d="m1.3493332 82.003691.8081989-2.333098-1.98237207-.289732-.54896278 1.936623z" fill="#d8ccb1"/><path d="m-.09932136 79.731587.32022785-1.143674-.89968916-.686205-1.49440373.01524-.3964754.45747.4727204 1.204671.8386948.15249z" fill="#d3c6ac"/><path d="m-.46529831 81.256489.41172341-1.433406-1.5096516-.0305-.8081963-.289732-.3354784.869194z" fill="#e1d4b9"/><path d="m-3.1186246 80.234806.7014554-1.280916-.289732-.655709-1.0826803-.655707-.5337148.167741-.5947119 1.646891.9759368.686205z" fill="#ddccb1"/><path d="m-5.2839825 79.243622.4879657-.320231.4117234-1.296165-2.0090764-.526055-.4168828 1.07814.3737557.646883z" fill="#d7cbae"/><path d="m-8.7560461 76.917913v1.52546l.524891-.196834.9513623 1.016974.7545282-.442876-.426474-.754528.4100698-.93496-.6561111-.393666z" fill="#cbba9e"/><path d="m-14.267386 78.131721.06561 1.492654-2.099559.229638.03281-.902153.22964-.606904z" fill="#cab88b"/><path d="m-13.955733 79.985235 2.362004-.606904-.787336-1.951931-1.820709.606904z" fill="#d2c2a1"/><path d="m-10.560354 77.049136-1.656683.09842.688917 2.132364 1.181002-.45928z" fill="#cebfa2"/><path d="m-8.838059 76.901509-1.607476.06561.22964 1.853517 1.4106417-.164028z" fill="#9e9278"/><path d="m53.054147 83.951945-.171855 2.4305-1.595782-.270055.171853-2.381398z" fill="#e5dcc6"/><path d="m52.685889 88.739292.171852-2.283195-1.497578-.122753-.122754 2.307746z" fill="#e3d7b8"/><path d="m52.612237 91.169792.0982-2.307746-1.497582-.0982-.245504 2.135894z" fill="#e0d9c8"/><path d="m52.391283 92.741023.196403-1.42393-1.669433-.319156-.122754 1.669436z" fill="#d6c7a1"/><path d="m51.311061 84.958516-.294605-1.644883-1.595785-.07365.07365 1.91494z" fill="#c7b492"/><path d="m51.212858 86.775253-.07365-1.571233-1.816735.02455-.07365 1.301179.417359.589211z" fill="#d1c3a2"/><path d="m51.041006 88.812944.07365-1.865839-1.693985.319157.0982 1.816737z" fill="#d0c2a6"/><path d="m49.126066 85.13037-1.620332.294606.859269 2.062242 1.00657-.44191-.270058-.54011z" fill="#d4c8ac"/><path d="m49.420671 89.279402-.171852-2.11134-.810167.441907.711965 1.669433z" fill="#e0d8ce"/><path d="m50.82005 90.629682.220956-1.669436-1.47303.294608.245504 1.252075z" fill="#cdba98"/><path d="m50.697299 92.765573.07365-1.988589-1.129321-.07365.834715 2.135894z" fill="#dcd0bf"/><path d="m52.096678 92.839225-1.595784.07365.785616 1.669434.54011.02455z" fill="#cfba98"/><path d="m50.108085 96.276295.761066 1.202973.319157-.220953.294605-1.44848z" fill="#cfba99"/><path d="m51.556565 95.53978-.785616-1.595782-1.423927.736516.98202 1.325726z" fill="#cbb89a"/><path d="m50.648198 93.772144-.662863-1.42393-1.473031.932921.883819 1.178422z" fill="#cebc9a"/><path d="m50.746401 97.798424-.859269-1.473028-1.178423 1.129322.711962 1.055671z" fill="#d2bd99"/><path d="m48.684159 97.233764 1.301176-1.202973-.859269-1.473031-1.595782 1.178425z" fill="#d4c4a2"/><path d="m48.905112 94.01765-1.964039-.687414-.46646 1.350278.270055.392805 1.00657.220957.711965-.417359z" fill="#d7c8ae"/><path d="m47.947643 91.488948-1.644882.417359.441907 1.350277 1.620335-.07365z" fill="#ceb98f"/><path d="m48.635057 92.863776 1.227524-.589211-.392808-1.423929-1.423929.466457z" fill="#d5c6a8"/><path d="m46.057254 91.832655 1.767636-.417359-.662863-1.620332-1.816738.810167z" fill="#d9c9b2"/><path d="m49.543425 90.727882-.810167-1.54668-1.399376.613762.711962 1.374828z" fill="#cdbc9a"/><path d="m48.80691 88.935695-.908368-1.964039-1.693984.859269.883817 1.890387z" fill="#cec0a0"/><path d="m46.84287 89.598561-.711964-1.473031-1.399379.638313.466461 1.178425.859266.196403z" fill="#d2c2a6"/><path d="m47.898542 86.898004-.785617-1.718532-.736515.220953-.736513.785617.54011 1.522129z" fill="#cdbe9e"/><path d="m45.885402 88.076429-.515562-1.98859-1.693984.294606.93292 2.234094z" fill="#dacbae"/><path d="m54.379873 72.33956.883817-2.086792-2.037691-.0982-.613762 1.031121z" fill="#e2dac7"/><path d="m55.190041 70.031814.392805-1.669433-1.743085-.319157-.54011 1.914938z" fill="#e2d3b3"/><path d="m55.16549 68.092326-.122753-1.153875.343706-1.227523-1.841288-.07365.319156 2.307746z" fill="#ede7d7"/><path d="m53.471506 65.465421 1.399376.0982.662866-.294606-.343707-1.743086-1.865839-.07365z" fill="#e2dac7"/><path d="m53.766111 63.32953.220954-1.595785-2.086793-.12275-.02455 1.54668z" fill="#e2dfd2"/><path d="m54.183468 62.91217 1.104773.51556.662863.147304.613762-1.620332-1.644883-.687414z" fill="#e7e2ce"/><path d="m55.091838 61.095433 1.841286.638312.736515-1.595781-1.693984-.54011z" fill="#e8e5d8"/><path d="m57.767842 59.91701.613762-1.153874-1.767637-.687414-.417356 1.374828z" fill="#ddcfb0"/><path d="m52.587686 61.365488 1.080223.270057.883816-.0982.736516-1.44848-1.890387-.54011z" fill="#d7ceba"/><path d="m52.170327 61.365488 1.031121-1.865837-1.080219-.711964-1.276628 1.227524.343707.90837z" fill="#ddd7cb"/><path d="m55.509197 60.088863.957469-1.890387-1.718535-.908371-1.00657 2.184996z" fill="#ded4c3"/><path d="m56.393014 57.756566 1.252074-1.816738-1.964039-1.055671-.859266 2.184995z" fill="#d0bd94"/><path d="m56.613967 57.90387 1.939491.736513.392806-1.374828-1.767634-.491009z" fill="#dfcfad"/><path d="m59.069017 57.142804.613762-1.816738-1.816735-.122753-.147304.761066-.417359.711965z" fill="#dfd0b0"/><path d="m55.803803 54.835058 1.497578.638312.417359-.687413.270055-1.350278-1.497579-.417359z" fill="#d4c09a"/><path d="m57.767842 55.00691 1.964039.196403.270055-1.325727-1.914938-.56466z" fill="#ddceac"/><path d="m54.15892 58.149374-.711965 1.153872-.859269-.343707-.761066-.638313 1.669434-1.00657z" fill="#e4e2dd"/><path d="m54.208018 57.879319.834719-1.939491-.834719-.687414-1.080219 1.571234z" fill="#d7cab6"/><path d="m55.018186 55.743425.883817-1.767636-1.08022-.834715-1.153874 1.350277z" fill="#d2c7b0"/><path d="m55.460096 51.938098-.687414 1.104773 1.276625.56466.294605-.540109z" fill="#d2c2a4"/><path d="m54.72358 52.330906 1.202973-1.399378-1.202973-.810168-.589211.122754.02455 1.399378z" fill="#d5c7a9"/><path d="m53.569706 51.324336-1.473028.761066 1.301176 2.062242 1.399378-1.153874z" fill="#d5c39b"/><path d="m51.507464 55.227864 1.571233 1.44848.932919-1.52213-1.006571-1.129323z" fill="#d4cbb4"/><path d="m51.900272 58.100273 1.325727-.859266-1.448477-1.374828-1.104773.761063z" fill="#d1be9a"/><path d="m50.746401 59.966112 1.301175-1.227527-1.129323-1.44848-1.153875 1.816738z" fill="#dbd5cd"/><path d="m49.592526 58.787687 1.202973-1.693984-1.055669-1.252075-1.497581 1.571231z" fill="#d8cfb8"/><path d="m47.996745 57.339207 1.473028-1.52213-.957469-1.325726-1.00657-.147304-.810168.392808.02455 1.080222z" fill="#d8cab4"/><path d="m48.242249 53.803937-.957469-1.546683-1.693984.810168.711965 1.620332z" fill="#dad2be"/><path d="m50.525444 56.602692 1.252078-.908368-1.104773-1.620332-1.252078 1.00657z" fill="#d0c3ab"/><path d="m51.433815 54.761406 1.423926-.736515-.957469-1.816738-1.669433.810167z" fill="#dacdaf"/><path d="m49.322471 55.031461 1.031121-1.522132-.859268-1.325727-1.374828.90837z" fill="#ece7db"/><path d="m50.181737 52.920118.98202-.711965-.07365-1.055672-.564664-.932918-1.423929.908368z" fill="#ddd8cd"/><path d="m51.777522 51.962649 1.767633-.810168-1.055671-2.062242-1.865837 1.031121z" fill="#d4c5a7"/><path d="m47.996745 52.944668 1.374828-.883817-.687414-1.399378-1.595784.834715z" fill="#c6b89b"/><path d="m46.867421 51.397988 1.718535-.810167-.638313-1.374828-1.693984.761066z" fill="#d0c3a8"/><path d="m50.599097 49.949508-.761066-1.227524-1.767637.564661.834718 1.571231z" fill="#c7b9a4"/><path d="m50.869151 49.532149.88382-.171852.663234-.337926-.922931-1.692037-1.518986.615286z" fill="#ddceb4"/><path d="m49.858922 48.426313-1.134433-1.557444-1.84586 1.461307 1.134435.788334z" fill="#d6ccb4"/><path d="m45.801878 49.86839 1.941997-.730653-1.249799-.846018z" fill="#b9a781"/><path d="m46.340255 47.772572.538374.384553 1.249802-.9037.230732-.634516-.826791-.557601-.51915 1.211345z" fill="#cdc0a6"/><path d="m49.647417 48.003305 1.749721-.807564-.769109-1.576671-1.730492 1.057524z" fill="#d0c19b"/></g></svg>