<svg height="240.2mm" viewBox="0 0 240.2 240.2" width="240.2mm" xmlns="http://www.w3.org/2000/svg"><g stroke="#000" stroke-width=".2" transform="translate(-313.87223 -273.40357)"><path d="m313.97223 273.50357h20v20h-20z" fill="#fff"/><path d="m353.97223 273.50357v20h-20v-20z" fill="#fff"/><path d="m373.97223 273.50357v20h-20v-20z" fill="#961e96"/><path d="m393.97223 273.50357v20h-20v-20z" fill="#961e96"/><path d="m413.97223 273.50357v20h-20v-20z" fill="#961e96"/><path d="m433.97222 273.50357v20h-19.99999v-20z" fill="#961e96"/><path d="m453.97222 273.50357v20h-20v-20z" fill="#961e96"/><path d="m473.97222 273.50357v20h-20v-20z" fill="#961e96"/><path d="m313.97223 293.50357h20v20h-20z" fill="#fff"/><path d="m353.97223 293.50357v20h-20v-20z" fill="#961e96"/><path d="m373.97223 293.50357v20h-20v-20z" fill="#fff"/><path d="m393.97223 293.50357v20h-20v-20z" fill="#fff"/><path d="m413.97223 293.50357v20h-20v-20z" fill="#961e96"/><path d="m433.97222 293.50357v20h-19.99999v-20z" fill="#961e96"/><path d="m453.97222 293.50357v20h-20v-20z" fill="#961e96"/><path d="m473.97222 293.50357v20h-20v-20z" fill="#961e96"/><path d="m313.97224 313.50357h20v20h-20z" fill="#fff"/><path d="m353.97224 313.50357v20h-20v-20z" fill="#961e96"/><path d="m373.97224 313.50357v20h-20v-20z" fill="#fff"/><path d="m393.97224 313.50357v20h-20v-20z" fill="#fff"/><path d="m413.97224 313.50357v20h-20v-20z" fill="#fff"/><path d="m433.97223 313.50357v20h-19.99999v-20z" fill="#961e96"/><path d="m453.97223 313.50357v20h-20v-20z" fill="#961e96"/><path d="m473.97223 313.50357v20h-20v-20z" fill="#fff"/><path d="m313.97224 333.50357h20v20h-20z" fill="#fff"/><path d="m353.97224 333.50357v20h-20v-20z" fill="#961e96"/><path d="m373.97224 333.50357v20h-20v-20z" fill="#fff"/><path d="m393.97224 333.50357v20h-20v-20z" fill="#961e96"/><path d="m413.97224 333.50357v20h-20v-20z" fill="#fff"/><path d="m433.97223 333.50357v20h-19.99999v-20z" fill="#961e96"/><path d="m453.97223 333.50357v20h-20v-20z" fill="#961e96"/><path d="m473.97223 333.50357v20h-20v-20z" fill="#fff"/><path d="m313.97224 353.50357h20v20h-20z" fill="#fff"/><path d="m353.97224 353.50357v20h-20v-20z" fill="#961e96"/><path d="m373.97224 353.50357v20h-20v-20z" fill="#fff"/><path d="m393.97224 353.50357v20h-20v-20z" fill="#961e96"/><path d="m413.97224 353.50357v20h-20v-20z" fill="#fff"/><path d="m433.97223 353.50357v20h-19.99999v-20z" fill="#fff"/><path d="m453.97223 353.50357v20h-20v-20z" fill="#fff"/><path d="m473.97223 353.50357v20h-20v-20z" fill="#fff"/><path d="m313.97224 373.50357h20v20h-20z" fill="#fff"/><path d="m353.97224 373.50357v20h-20v-20z" fill="#961e96"/><path d="m373.97224 373.50357v20h-20v-20z" fill="#fff"/><path d="m393.97224 373.50357v20h-20v-20z" fill="#fff"/><path d="m413.97224 373.50357v20h-20v-20z" fill="#eb500a"/><path d="m433.97223 373.50357v20h-19.99999v-20z" fill="#eb500a"/><path d="m453.97223 373.50357v20h-20v-20z" fill="#eb500a"/><path d="m473.97223 373.50357v20h-20v-20z" fill="#eb500a"/><path d="m313.97224 393.50357h20v20h-20z" fill="#fff"/><path d="m353.97224 393.50357v20h-20v-20z" fill="#fff"/><path d="m373.97224 393.50357v20h-20v-20z" fill="#961e96"/><path d="m393.97224 393.50357v20h-20v-20z" fill="#fff"/><path d="m413.97224 393.50357v20h-20v-20z" fill="#fff"/><path d="m433.97223 393.50357v20h-19.99999v-20z" fill="#eb500a"/><path d="m453.97223 393.50357v20h-20v-20z" fill="#eb500a"/><path d="m473.97223 393.50357v20h-20v-20z" fill="#fff"/><path d="m313.97224 413.50357h20v20h-20z" fill="#fff"/><path d="m353.97224 413.50357v20h-20v-20z" fill="#961e96"/><path d="m373.97224 413.50357v20h-20v-20z" fill="#961e96"/><path d="m393.97224 413.50357v20h-20v-20z" fill="#fff"/><path d="m413.97224 413.50357v20h-20v-20z" fill="#fff"/><path d="m433.97223 413.50357v20h-19.99999v-20z" fill="#fff"/><path d="m453.97223 413.50357v20h-20v-20z" fill="#fff"/><path d="m473.97223 413.50357v20h-20v-20z" fill="#fff"/><path d="m493.97223 273.50357v20h-20v-20z" fill="#961e96"/><path d="m513.97222 273.50357v20h-19.99999v-20z" fill="#961e96"/><path d="m533.97222 273.50357v20h-20v-20z" fill="#fff"/><path d="m553.97222 273.50357v20h-20v-20z" fill="#fff"/><path d="m493.97223 293.50357v20h-20v-20z" fill="#fff"/><path d="m513.97222 293.50357v20h-19.99999v-20z" fill="#fff"/><path d="m533.97222 293.50357v20h-20v-20z" fill="#961e96"/><path d="m553.97222 293.50357v20h-20v-20z" fill="#fff"/><path d="m493.97224 313.50357v20h-20v-20z" fill="#fff"/><path d="m513.97223 313.50357v20h-19.99999v-20z" fill="#fff"/><path d="m533.97223 313.50357v20h-20v-20z" fill="#961e96"/><path d="m553.97223 313.50357v20h-20v-20z" fill="#fff"/><path d="m493.97224 333.50357v20h-20v-20z" fill="#961e96"/><path d="m513.97223 333.50357v20h-19.99999v-20z" fill="#fff"/><path d="m533.97223 333.50357v20h-20v-20z" fill="#961e96"/><path d="m553.97223 333.50357v20h-20v-20z" fill="#fff"/><path d="m493.97224 353.50357v20h-20v-20z" fill="#961e96"/><path d="m513.97223 353.50357v20h-19.99999v-20z" fill="#fff"/><path d="m533.97223 353.50357v20h-20v-20z" fill="#961e96"/><path d="m553.97223 353.50357v20h-20v-20z" fill="#fff"/><path d="m493.97224 373.50357v20h-20v-20z" fill="#fff"/><path d="m513.97223 373.50357v20h-19.99999v-20z" fill="#fff"/><path d="m533.97223 373.50357v20h-20v-20z" fill="#961e96"/><path d="m553.97223 373.50357v20h-20v-20z" fill="#fff"/><path d="m493.97224 393.50357v20h-20v-20z" fill="#fff"/><path d="m513.97223 393.50357v20h-19.99999v-20z" fill="#961e96"/><path d="m533.97223 393.50357v20h-20v-20z" fill="#fff"/><path d="m553.97223 393.50357v20h-20v-20z" fill="#fff"/><path d="m493.97224 413.50357v20h-20v-20z" fill="#fff"/><path d="m513.97223 413.50357v20h-19.99999v-20z" fill="#961e96"/><path d="m533.97223 413.50357v20h-20v-20z" fill="#961e96"/><path d="m553.97223 413.50357v20h-20v-20z" fill="#fff"/><path d="m313.97223 433.50357h20v20h-20z" fill="#fff"/><path d="m353.97223 433.50357v20h-20v-20z" fill="#961e96"/><path d="m373.97223 433.50357v20h-20v-20z" fill="#961e96"/><path d="m393.97223 433.50357v20h-20v-20z" fill="#fff"/><path d="m413.97223 433.50357v20h-20v-20z" fill="#fff"/><path d="m433.97222 433.50357v20h-19.99999v-20z" fill="#fff"/><path d="m453.97222 433.50357v20h-20v-20z" fill="#fff"/><path d="m473.97222 433.50357v20h-20v-20z" fill="#fff"/><path d="m313.97223 453.50357h20v20h-20z" fill="#fff"/><path d="m353.97223 453.50357v20h-20v-20z" fill="#961e96"/><path d="m373.97223 453.50357v20h-20v-20z" fill="#961e96"/><path d="m393.97223 453.50357v20h-20v-20z" fill="#fff"/><path d="m413.97223 453.50357v20h-20v-20z" fill="#fff"/><path d="m433.97222 453.50357v20h-19.99999v-20z" fill="#fff"/><path d="m453.97222 453.50357v20h-20v-20z" fill="#fff"/><path d="m473.97222 453.50357v20h-20v-20z" fill="#fff"/><path d="m313.97223 473.50357h20v20h-20z" fill="#fff"/><path d="m353.97223 473.50357v20h-20v-20z" fill="#961e96"/><g fill="#fff"><path d="m373.97223 473.50357v20h-20v-20z"/><path d="m393.97223 473.50357v20h-20v-20z"/><path d="m413.97223 473.50357v20h-20v-20z"/><path d="m433.97222 473.50357v20h-19.99999v-20z"/><path d="m453.97222 473.50357v20h-20v-20z"/><path d="m473.97222 473.50357v20h-20v-20z"/><path d="m313.97223 493.50357h20v20h-20z"/><path d="m353.97223 493.50357v20h-20v-20z"/><path d="m373.97223 493.50357v20h-20v-20z"/></g><path d="m393.97223 493.50357v20h-20v-20z" fill="#eb500a"/><path d="m413.97223 493.50357v20h-20v-20z" fill="#eb500a"/><path d="m433.97222 493.50357v20h-19.99999v-20z" fill="#961e96"/><path d="m453.97222 493.50357v20h-20v-20z" fill="#961e96"/><path d="m473.97222 493.50357v20h-20v-20z" fill="#eb500a"/><path d="m493.97223 433.50357v20h-20v-20z" fill="#fff"/><path d="m513.97222 433.50357v20h-19.99999v-20z" fill="#961e96"/><path d="m533.97222 433.50357v20h-20v-20z" fill="#961e96"/><path d="m553.97222 433.50357v20h-20v-20z" fill="#fff"/><path d="m493.97223 453.50357v20h-20v-20z" fill="#fff"/><path d="m513.97222 453.50357v20h-19.99999v-20z" fill="#961e96"/><path d="m533.97222 453.50357v20h-20v-20z" fill="#961e96"/><path d="m553.97222 453.50357v20h-20v-20z" fill="#fff"/><path d="m493.97223 473.50357v20h-20v-20z" fill="#fff"/><path d="m513.97222 473.50357v20h-19.99999v-20z" fill="#fff"/><path d="m533.97222 473.50357v20h-20v-20z" fill="#961e96"/><path d="m553.97222 473.50357v20h-20v-20z" fill="#fff"/><path d="m493.97223 493.50357v20h-20v-20z" fill="#eb500a"/><path d="m513.97222 493.50357v20h-19.99999v-20z" fill="#fff"/><path d="m533.97222 493.50357v20h-20v-20z" fill="#fff"/><path d="m553.97222 493.50357v20h-20v-20z" fill="#fff"/></g></svg>